version 1
nodes
0 "NPC_423" -1
1 "Bip001" 0
2 "Bip001 Pelvis" 1
3 "Bip001 Spine" 2
4 "Bip001 Spine1" 3
5 "Bip001 Neck" 4
6 "Bip001 L Clavicle" 5
7 "Bip001 L UpperArm" 6
8 "Bip001 L Forearm" 7
9 "Bip001 L Hand" 8
10 "Bip001 L Finger0" 9
11 "Bip001 L Finger01" 10
12 "Bip001 L Finger1" 9
13 "Bip001 L Finger11" 12
14 "Bone001" 6
15 "Bip001 R Clavicle" 5
16 "Bip001 R UpperArm" 15
17 "Bip001 R Forearm" 16
18 "Bip001 R Hand" 17
19 "Bip001 R Finger0" 18
20 "Bip001 R Finger01" 19
21 "Bip001 R Finger1" 18
22 "Bip001 R Finger11" 21
23 "Bip001 Head" 5
24 "Bip001 L Thigh" 3
25 "Bip001 L Calf" 24
26 "Bip001 L Foot" 25
27 "Bip001 L Toe0" 26
28 "Bip001 R Thigh" 3
29 "Bip001 R Calf" 28
30 "Bip001 R Foot" 29
31 "Bip001 R Toe0" 30
32 "Bone002(mirrored)" 2
33 "Bone003(mirrored)" 32
34 "Bone002" 2
35 "Bone003" 34
36 "Bone008" 2
37 "Bone009" 36
38 "Bone005" 2
39 "Bone006" 38
end
skeleton
time 0
0 0.000000 0.000000 0.000000 1.570796 -0.000000 0.000000
1 0.000001 93.107216 -3.217057 1.694275 -1.290678 2.934519
2 -0.000000 -0.000000 0.000003 -1.570795 -1.570796 0.000000
3 18.064596 1.612345 0.000837 -0.054424 0.025048 -0.020431
4 18.776325 -0.019842 0.001516 -0.076489 0.085090 0.006146
5 30.403128 -4.923403 0.000001 0.000000 -0.000001 0.320624
6 -6.370774 3.851235 9.388217 -0.762471 -1.445167 -2.704493
7 15.294983 0.000000 -0.000002 0.949332 1.108121 0.495707
8 31.848379 -0.000006 -0.000004 0.000000 -0.000000 -0.420572
9 25.199862 -0.000002 -0.000001 -1.865779 0.159973 -0.016499
10 4.981271 5.314323 -5.471675 1.725575 0.733419 0.506503
11 7.043931 -0.000007 0.000000 -0.000000 -0.000000 0.708841
12 15.014610 -0.003020 -1.047788 0.095200 0.014153 1.453530
13 7.827642 0.000004 -0.000001 0.000000 -0.000000 1.657048
14 12.673380 2.128983 4.586261 1.579381 -0.410632 -0.089723
15 -6.370774 3.851290 -9.388222 1.038529 1.392739 -2.431479
16 15.294988 0.000001 -0.000005 -0.612705 -1.073456 0.776321
17 31.848379 0.000001 -0.000000 0.000000 -0.000000 -0.408647
18 25.199865 -0.000002 -0.000003 1.991396 -0.000000 -0.000000
19 4.981266 5.314328 5.471678 -2.030175 -0.709233 0.733253
20 7.043930 -0.000008 -0.000003 0.000000 -0.000000 0.708841
21 15.014608 -0.003021 1.047784 -0.096232 -0.001483 1.585306
22 7.827641 -0.000003 -0.000006 -0.000000 -0.000000 1.574982
23 6.497872 -0.000004 0.000000 0.368370 -0.023698 -0.143779
24 -18.458382 -2.921738 16.628126 3.025710 -0.324127 3.018442
25 44.544304 -0.000006 0.000007 0.000000 -0.000000 -0.510504
26 36.285263 0.000001 0.000003 -0.155937 -0.245490 0.257049
27 13.798660 17.869457 0.000000 -0.001537 0.005821 1.582702
28 -17.579021 -1.043508 -17.767601 -2.401790 0.070792 -2.918082
29 44.544300 0.000000 0.000002 0.000000 -0.000000 -0.185566
30 36.285267 0.000001 0.000002 -0.266716 0.166604 0.197752
31 13.798658 17.869459 -0.000003 -0.000031 -0.000036 1.570506
32 9.473439 1.433091 22.460855 1.528880 -0.706816 -3.129286
33 23.080151 -0.000008 0.000014 0.000001 -0.000000 0.015792
34 9.473495 1.432967 -22.461212 1.609472 0.379185 -3.016076
35 23.080168 0.000005 0.000003 0.000000 -0.000000 -0.015792
36 9.771009 22.181156 -0.000036 -3.116478 -0.142464 2.908576
37 23.541599 0.000006 0.000002 -0.000001 0.030597 -0.029432
38 6.820171 -16.874147 0.000058 -3.090785 -0.063830 -2.772509
39 19.889784 -0.000001 -0.000001 -0.000000 -0.026328 0.123273
time 1
0 0.000000 0.000000 0.000000 1.570796 -0.000000 0.000000
1 0.000000 93.107208 -3.394181 1.713892 -1.289920 2.914104
2 -0.000000 -0.000000 0.000000 -1.570795 -1.570796 0.000000
3 18.064882 1.612339 0.000811 -0.052684 0.019919 -0.002141
4 18.776281 -0.019842 0.001519 -0.076656 0.085887 0.003791
5 30.403128 -4.923405 -0.000001 0.000000 -0.000001 0.320624
6 -6.370789 3.851239 9.388214 -0.762472 -1.445166 -2.704493
7 15.294987 0.000001 -0.000003 0.931118 1.098883 0.481308
8 31.848366 0.000000 0.000002 0.000000 -0.000000 -0.426948
9 25.199850 -0.000002 -0.000004 -1.869487 0.168402 -0.037026
10 4.981273 5.314325 -5.471675 1.725575 0.733419 0.506503
11 7.043924 -0.000006 -0.000004 -0.000000 -0.000000 0.708841
12 15.014614 -0.003024 -1.047784 0.095200 0.014153 1.453530
13 7.827643 -0.000006 -0.000002 0.000000 -0.000000 1.657048
14 12.673383 2.128983 4.586247 1.579381 -0.410632 -0.089723
15 -6.370790 3.851294 -9.388221 1.038529 1.392739 -2.431479
16 15.294989 -0.000003 -0.000006 -0.607833 -1.087505 0.773052
17 31.848372 -0.000003 0.000001 0.000000 -0.000000 -0.418886
18 25.199875 -0.000000 -0.000001 1.991396 -0.000000 -0.000000
19 4.981273 5.314326 5.471679 -2.030175 -0.709233 0.733252
20 7.043929 0.000003 -0.000001 0.000000 -0.000000 0.708841
21 15.014619 -0.003021 1.047788 -0.096232 -0.001483 1.585306
22 7.827642 -0.000003 -0.000002 -0.000000 -0.000000 1.574982
23 6.497854 0.000003 0.000000 0.369875 -0.014016 -0.167584
24 -18.403988 -2.555397 16.748663 3.026942 -0.330525 3.003621
25 44.544308 -0.000002 -0.000002 0.000000 -0.000000 -0.509754
26 36.285275 0.000003 -0.000001 -0.154072 -0.245759 0.253938
27 13.798657 17.869459 -0.000004 -0.001468 0.005897 1.582402
28 -17.708189 -0.738284 -17.654556 -2.401910 0.066113 -2.935330
29 44.544312 -0.000001 0.000003 0.000000 -0.000000 -0.193047
30 36.285267 -0.000001 0.000004 -0.266729 0.164822 0.201274
31 13.798658 17.869465 0.000002 -0.000066 -0.000075 1.570176
32 9.473433 1.433089 22.460855 1.535016 -0.707004 -3.138726
33 23.080151 -0.000004 0.000014 0.000001 -0.000000 0.015792
34 9.473491 1.432967 -22.461212 1.609472 0.379185 -3.016076
35 23.080170 -0.000000 0.000002 0.000000 -0.000000 -0.015793
36 9.771004 22.181156 -0.000037 -3.116514 -0.129055 2.908913
37 23.541601 0.000005 0.000001 -0.000001 0.070770 -0.029432
38 6.820166 -16.874149 0.000058 -3.077413 -0.075595 -2.763229
39 19.889788 -0.000000 0.000000 -0.000027 -0.056255 0.123288
time 2
0 0.000000 0.000000 0.000000 1.570796 -0.000000 0.000000
1 0.000000 93.107216 -3.534694 1.734105 -1.289026 2.893065
2 -0.000000 -0.000000 -0.000003 -1.570795 -1.570796 0.000000
3 18.065172 1.612340 0.000784 -0.051207 0.015154 0.014696
4 18.776220 -0.019842 0.001522 -0.076816 0.086649 0.001534
5 30.403122 -4.923405 -0.000000 0.000000 -0.000001 0.320624
6 -6.370766 3.851238 9.388216 -0.762471 -1.445166 -2.704492
7 15.294987 0.000001 -0.000019 0.909649 1.090602 0.464006
8 31.848354 0.000004 -0.000001 0.000000 -0.000000 -0.433102
9 25.199873 -0.000001 -0.000003 -1.872121 0.174507 -0.052083
10 4.981270 5.314331 -5.471681 1.725575 0.733419 0.506503
11 7.043932 0.000005 0.000002 -0.000000 -0.000000 0.708841
12 15.014613 -0.003020 -1.047787 0.095200 0.014153 1.453530
13 7.827643 -0.000005 -0.000003 0.000000 -0.000000 1.657048
14 12.673381 2.128986 4.586249 1.579381 -0.410632 -0.089723
15 -6.370790 3.851291 -9.388222 1.038529 1.392738 -2.431479
16 15.294985 0.000001 -0.000019 -0.602721 -1.101778 0.769533
17 31.848372 -0.000001 -0.000004 0.000000 -0.000000 -0.429307
18 25.199877 -0.000002 -0.000000 1.991396 -0.000000 -0.000000
19 4.981272 5.314337 5.471680 -2.030175 -0.709233 0.733253
20 7.043933 -0.000004 -0.000002 0.000000 -0.000000 0.708841
21 15.014610 -0.003016 1.047790 -0.096232 -0.001483 1.585306
22 7.827639 -0.000004 -0.000007 -0.000000 -0.000000 1.574982
23 6.497862 0.000000 0.000000 0.371177 -0.005623 -0.187833
24 -18.340261 -2.180316 16.871489 3.028196 -0.337290 2.988016
25 44.544315 0.000000 -0.000001 0.000000 -0.000000 -0.509125
26 36.285271 -0.000003 -0.000004 -0.152163 -0.245947 0.251233
27 13.798661 17.869471 -0.000008 -0.001525 0.005834 1.582650
28 -17.834078 -0.422380 -17.538115 -2.401989 0.061263 -2.952228
29 44.544300 0.000001 0.000001 0.000000 -0.000000 -0.199764
30 36.285275 0.000000 -0.000001 -0.266681 0.163430 0.204023
31 13.798659 17.869467 -0.000002 -0.000085 -0.000098 1.569984
32 9.473432 1.433090 22.460854 1.543068 -0.707250 3.132066
33 23.080158 -0.000006 0.000013 0.000001 -0.000000 0.015792
34 9.473491 1.432966 -22.461210 1.609472 0.379185 -3.016076
35 23.080166 -0.000002 0.000003 0.000000 -0.000000 -0.015793
36 9.771003 22.181156 -0.000037 -3.116568 -0.108868 2.909421
37 23.541599 0.000005 0.000002 -0.000001 0.096303 -0.029432
38 6.820163 -16.874147 0.000058 -3.058463 -0.092269 -2.750079
39 19.889782 -0.000004 0.000000 -0.000054 -0.069920 0.123303
time 3
0 0.000000 0.000000 0.000000 1.570796 -0.000000 0.000000
1 0.000001 93.107208 -3.646308 1.752100 -1.288118 2.874329
2 -0.000000 -0.000000 0.000001 -1.570795 -1.570796 0.000000
3 18.065437 1.612346 0.000761 -0.049830 0.010407 0.031367
4 18.776190 -0.019842 0.001525 -0.076950 0.087286 -0.000351
5 30.403124 -4.923404 -0.000002 0.000000 -0.000001 0.320624
6 -6.370764 3.851237 9.388216 -0.762472 -1.445166 -2.704493
7 15.294981 -0.000001 0.000005 0.892545 1.081769 0.450965
8 31.848358 -0.000004 -0.000001 0.000000 -0.000000 -0.438672
9 25.199877 0.000004 -0.000001 -1.873139 0.178089 -0.060169
10 4.981274 5.314323 -5.471675 1.725575 0.733419 0.506503
11 7.043925 -0.000004 -0.000001 -0.000000 -0.000000 0.708841
12 15.014609 -0.003020 -1.047786 0.095200 0.014153 1.453530
13 7.827642 0.000003 0.000000 0.000000 -0.000000 1.657048
14 12.673378 2.128984 4.586256 1.579381 -0.410632 -0.089723
15 -6.370783 3.851289 -9.388219 1.038529 1.392738 -2.431479
16 15.294987 -0.000002 0.000002 -0.597893 -1.114904 0.766143
17 31.848364 0.000001 -0.000009 0.000000 -0.000000 -0.437270
18 25.199875 -0.000003 -0.000001 1.991396 -0.000000 -0.000000
19 4.981284 5.314322 5.471678 -2.030175 -0.709233 0.733252
20 7.043938 0.000002 0.000000 0.000000 -0.000000 0.708841
21 15.014624 -0.003029 1.047788 -0.096232 -0.001483 1.585306
22 7.827651 -0.000017 -0.000004 -0.000000 -0.000000 1.574982
23 6.497873 0.000000 0.000000 0.372169 -0.002215 -0.195386
24 -18.276510 -1.845871 16.980511 3.029319 -0.343173 2.974416
25 44.544300 -0.000001 0.000005 0.000000 -0.000000 -0.508545
26 36.285263 0.000001 -0.000003 -0.150430 -0.246077 0.248854
27 13.798658 17.869461 -0.000003 -0.001489 0.005874 1.582492
28 -17.940849 -0.137778 -17.433691 -2.401924 0.056386 -2.966861
29 44.544296 -0.000000 -0.000004 0.000000 -0.000000 -0.205159
30 36.285267 0.000000 0.000000 -0.266665 0.162305 0.206181
31 13.798654 17.869455 0.000001 -0.000107 -0.000123 1.569769
32 9.473437 1.433091 22.460854 1.551475 -0.707507 3.119131
33 23.080143 -0.000006 0.000012 0.000001 -0.000000 0.015792
34 9.473492 1.432965 -22.461210 1.609472 0.379185 -3.016076
35 23.080160 -0.000002 0.000004 -0.000001 0.000000 -0.015792
36 9.771004 22.181150 -0.000036 -3.116619 -0.089572 2.909906
37 23.541597 0.000002 0.000003 -0.000001 0.083391 -0.029432
38 6.820163 -16.874146 0.000057 -3.039089 -0.109321 -2.736634
39 19.889776 0.000000 0.000000 0.005779 -0.059341 0.120070
time 4
0 0.000000 0.000000 0.000000 1.570796 -0.000000 0.000000
1 0.000000 93.107216 -3.766242 1.765150 -1.287396 2.860738
2 -0.000000 -0.000000 0.000002 -1.570795 -1.570796 0.000000
3 18.065620 1.612353 0.000748 -0.048691 0.006398 0.045420
4 18.776157 -0.019842 0.001528 -0.077039 0.087706 -0.001596
5 30.403133 -4.923405 0.000000 0.000000 -0.000001 0.320624
6 -6.370775 3.851237 9.388214 -0.762472 -1.445167 -2.704493
7 15.294993 -0.000001 -0.000014 0.884831 1.073840 0.446301
8 31.848394 -0.000003 0.000004 0.000000 -0.000000 -0.443817
9 25.199871 -0.000002 0.000004 -1.872812 0.179501 -0.062519
10 4.981271 5.314328 -5.471676 1.725575 0.733420 0.506503
11 7.043932 -0.000006 -0.000002 -0.000000 -0.000000 0.708841
12 15.014613 -0.003018 -1.047794 0.095200 0.014153 1.453530
13 7.827636 0.000003 0.000002 0.000000 -0.000000 1.657048
14 12.673387 2.128983 4.586256 1.579381 -0.410632 -0.089723
15 -6.370776 3.851290 -9.388221 1.038529 1.392738 -2.431479
16 15.294994 0.000000 0.000020 -0.594559 -1.123683 0.763752
17 31.848387 0.000001 -0.000008 0.000000 -0.000000 -0.443237
18 25.199879 -0.000004 -0.000003 1.991396 -0.000000 -0.000000
19 4.981269 5.314326 5.471680 -2.030176 -0.709233 0.733252
20 7.043936 -0.000003 -0.000002 0.000000 -0.000000 0.708841
21 15.014616 -0.003018 1.047791 -0.096232 -0.001483 1.585306
22 7.827644 -0.000004 -0.000003 -0.000000 -0.000000 1.574982
23 6.497863 0.000003 -0.000001 0.372944 -0.001496 -0.196327
24 -18.225643 -1.600826 17.060091 3.030349 -0.347778 2.963578
25 44.544327 -0.000003 0.000001 0.000000 -0.000000 -0.507999
26 36.285286 0.000001 -0.000001 -0.149140 -0.246265 0.246921
27 13.798664 17.869469 0.000001 -0.001447 0.005921 1.582311
28 -18.015799 0.072524 -17.356813 -2.401847 0.053204 -2.978303
29 44.544331 0.000001 -0.000004 0.000000 -0.000000 -0.209522
30 36.285271 -0.000004 0.000004 -0.266671 0.161184 0.208268
31 13.798662 17.869474 -0.000001 -0.000138 -0.000159 1.569456
32 9.473441 1.433089 22.460855 1.558861 -0.707732 3.107765
33 23.080154 -0.000007 0.000014 0.000001 -0.000000 0.015792
34 9.473497 1.432968 -22.461210 1.609472 0.379185 -3.016076
35 23.080170 -0.000004 0.000003 0.000000 -0.000000 -0.015792
36 9.771011 22.181162 -0.000037 -3.116654 -0.076527 2.910234
37 23.541601 0.000006 0.000003 -0.000001 0.044980 -0.029432
38 6.820170 -16.874153 0.000060 -3.022897 -0.123568 -2.725397
39 19.889790 0.000001 -0.000001 0.020658 -0.030991 0.111821
time 5
0 0.000000 0.000000 0.000000 1.570796 -0.000000 0.000000
1 0.000000 93.107208 -3.878888 1.770885 -1.287062 2.854764
2 -0.000000 -0.000000 -0.000003 -1.570795 -1.570796 0.000000
3 18.065704 1.612356 0.000742 -0.048046 0.004201 0.053140
4 18.776154 -0.019842 0.001528 -0.077075 0.087883 -0.002119
5 30.403124 -4.923403 -0.000000 0.000000 -0.000001 0.320624
6 -6.370773 3.851239 9.388213 -0.762472 -1.445167 -2.704493
7 15.294987 -0.000001 0.000008 0.882174 1.069026 0.445334
8 31.848373 0.000001 0.000009 0.000000 -0.000000 -0.447945
9 25.199867 0.000002 -0.000004 -1.872040 0.177658 -0.060942
10 4.981270 5.314328 -5.471678 1.725575 0.733419 0.506503
11 7.043933 0.000002 0.000001 -0.000000 -0.000000 0.708841
12 15.014610 -0.003026 -1.047787 0.095200 0.014153 1.453530
13 7.827650 -0.000002 -0.000001 0.000000 -0.000000 1.657048
14 12.673382 2.128982 4.586260 1.579381 -0.410632 -0.089723
15 -6.370763 3.851288 -9.388218 1.038529 1.392738 -2.431479
16 15.294987 -0.000001 0.000009 -0.592749 -1.128382 0.762443
17 31.848372 0.000001 -0.000008 0.000000 -0.000000 -0.447317
18 25.199867 -0.000001 -0.000001 1.991396 -0.000000 0.000000
19 4.981280 5.314328 5.471677 -2.030176 -0.709233 0.733252
20 7.043932 0.000006 -0.000006 0.000000 -0.000000 0.708841
21 15.014615 -0.003018 1.047789 -0.096232 -0.001483 1.585306
22 7.827644 -0.000002 -0.000004 -0.000000 -0.000000 1.574982
23 6.497880 -0.000000 0.000000 0.373037 -0.005130 -0.186826
24 -18.202253 -1.493551 17.094845 3.031028 -0.349782 2.958587
25 44.544308 -0.000002 -0.000000 0.000000 -0.000000 -0.507483
26 36.285278 0.000001 0.000000 -0.148702 -0.246447 0.245267
27 13.798660 17.869465 -0.000001 -0.001462 0.005905 1.582373
28 -18.047707 0.165057 -17.323067 -2.401822 0.052404 -2.984243
29 44.544319 -0.000000 0.000000 0.000000 -0.000000 -0.213153
30 36.285271 -0.000000 0.000003 -0.266687 0.160080 0.210293
31 13.798661 17.869465 0.000003 -0.000165 -0.000190 1.569183
32 9.473439 1.433090 22.460857 1.562073 -0.707830 3.102823
33 23.080158 -0.000008 0.000013 0.000001 -0.000000 0.015792
34 9.473494 1.432966 -22.461210 1.609472 0.379185 -3.016076
35 23.080172 -0.000002 0.000004 -0.000001 -0.000000 -0.015793
36 9.771008 22.181156 -0.000035 -3.116681 -0.066718 2.910481
37 23.541605 0.000005 0.000003 -0.000001 -0.003024 -0.029432
38 6.820168 -16.874151 0.000059 -3.015549 -0.130034 -2.720299
39 19.889790 -0.000001 -0.000000 0.036284 -0.001215 0.103159
time 6
0 0.000000 0.000000 0.000000 1.570796 -0.000000 0.000000
1 0.000001 93.107216 -3.968241 1.767099 -1.287285 2.858708
2 -0.000000 -0.000000 0.000003 -1.570795 -1.570796 0.000000
3 18.065643 1.612352 0.000745 -0.048409 0.005463 0.048711
4 18.776171 -0.019842 0.001528 -0.077057 0.087793 -0.001854
5 30.403139 -4.923404 0.000001 0.000000 -0.000001 0.320624
6 -6.370780 3.851240 9.388211 -0.762472 -1.445166 -2.704493
7 15.294989 0.000001 -0.000016 0.884546 1.070470 0.447027
8 31.848375 -0.000001 -0.000001 0.000000 -0.000000 -0.445772
9 25.199869 -0.000002 -0.000000 -1.870890 0.169920 -0.054460
10 4.981264 5.314328 -5.471676 1.725575 0.733419 0.506503
11 7.043943 0.000008 0.000004 -0.000000 -0.000000 0.708841
12 15.014614 -0.003022 -1.047789 0.095200 0.014153 1.453530
13 7.827643 0.000006 -0.000002 0.000000 -0.000000 1.657048
14 12.673381 2.128983 4.586251 1.579381 -0.410632 -0.089723
15 -6.370773 3.851290 -9.388220 1.038530 1.392738 -2.431480
16 15.294990 -0.000000 -0.000009 -0.593899 -1.125404 0.763275
17 31.848368 -0.000001 -0.000000 0.000000 -0.000000 -0.446102
18 25.199867 -0.000001 0.000003 1.991396 -0.000000 -0.000000
19 4.981265 5.314327 5.471675 -2.030175 -0.709233 0.733253
20 7.043932 -0.000007 -0.000001 0.000000 -0.000000 0.708841
21 15.014602 -0.003020 1.047788 -0.096232 -0.001483 1.585306
22 7.827641 -0.000005 0.000001 -0.000000 -0.000000 1.574982
23 6.497857 0.000004 -0.000001 0.372563 -0.011748 -0.170233
24 -18.217112 -1.561396 17.072866 3.031240 -0.348942 2.960071
25 44.544315 -0.000003 0.000002 0.000000 -0.000000 -0.507058
26 36.285255 0.000002 -0.000002 -0.148957 -0.246612 0.243877
27 13.798660 17.869469 0.000003 -0.001524 0.005835 1.582641
28 -18.027575 0.106502 -17.344416 -2.401868 0.053973 -2.984462
29 44.544312 0.000001 0.000002 0.000000 -0.000000 -0.215980
30 36.285275 -0.000001 0.000003 -0.266786 0.159177 0.211778
31 13.798662 17.869469 -0.000001 -0.000187 -0.000215 1.568955
32 9.473442 1.433089 22.460854 1.560033 -0.707768 3.105962
33 23.080154 -0.000003 0.000013 0.000001 -0.000000 0.015792
34 9.473495 1.432967 -22.461212 1.609472 0.379185 -3.016076
35 23.080168 0.000003 0.000003 0.000000 -0.000000 -0.015793
36 9.771007 22.181158 -0.000038 -3.116670 -0.070586 2.910383
37 23.541601 0.000004 0.000002 -0.000001 -0.047118 -0.029432
38 6.820168 -16.874149 0.000058 -3.021070 -0.125175 -2.724130
39 19.889790 -0.000001 -0.000001 0.050138 0.025185 0.095480
time 7
0 0.000000 0.000000 0.000000 1.570796 -0.000000 0.000000
1 0.000001 93.107216 -4.018291 1.755593 -1.287928 2.870691
2 -0.000000 -0.000000 0.000000 -1.570795 -1.570796 0.000000
3 18.065470 1.612347 0.000758 -0.049576 0.009360 0.034987
4 18.776163 -0.019843 0.001526 -0.076978 0.087415 -0.000734
5 30.403152 -4.923407 -0.000001 0.000000 -0.000001 0.320624
6 -6.370788 3.851242 9.388219 -0.762472 -1.445166 -2.704493
7 15.294991 -0.000000 -0.000001 0.892705 1.077417 0.452319
8 31.848385 -0.000002 -0.000007 0.000000 -0.000000 -0.441219
9 25.199869 0.000002 -0.000001 -1.869470 0.158803 -0.044129
10 4.981267 5.314327 -5.471680 1.725575 0.733419 0.506503
11 7.043928 0.000001 0.000001 -0.000000 -0.000000 0.708841
12 15.014613 -0.003019 -1.047788 0.095200 0.014153 1.453530
13 7.827640 -0.000005 0.000002 0.000000 -0.000000 1.657048
14 12.673385 2.128984 4.586260 1.579381 -0.410632 -0.089723
15 -6.370794 3.851290 -9.388225 1.038529 1.392738 -2.431479
16 15.294998 -0.000001 0.000002 -0.596954 -1.117398 0.765474
17 31.848402 -0.000001 0.000005 0.000000 -0.000000 -0.439203
18 25.199873 -0.000003 -0.000008 1.991396 -0.000000 -0.000000
19 4.981283 5.314325 5.471684 -2.030175 -0.709233 0.733253
20 7.043941 0.000015 0.000001 0.000000 -0.000000 0.708841
21 15.014628 -0.003024 1.047789 -0.096232 -0.001483 1.585306
22 7.827651 -0.000009 0.000002 -0.000000 -0.000000 1.574982
23 6.497868 0.000001 0.000000 0.371838 -0.019003 -0.152198
24 -18.262856 -1.778373 17.002459 3.030933 -0.345345 2.967931
25 44.544323 -0.000001 0.000003 0.000000 -0.000000 -0.506759
26 36.285271 -0.000004 -0.000008 -0.150042 -0.246737 0.243352
27 13.798661 17.869465 0.000006 -0.001454 0.005914 1.582337
28 -17.961771 -0.079997 -17.412548 -2.402009 0.058026 -2.977882
29 44.544319 -0.000001 -0.000002 0.000000 -0.000000 -0.218193
30 36.285286 0.000002 -0.000006 -0.266955 0.158637 0.212662
31 13.798659 17.869471 -0.000003 -0.000196 -0.000226 1.568857
32 9.473434 1.433091 22.460854 1.553734 -0.707575 3.115656
33 23.080151 0.000000 0.000013 0.000001 -0.000000 0.015792
34 9.473488 1.432966 -22.461212 1.609472 0.379185 -3.016076
35 23.080164 0.000000 0.000004 0.000000 -0.000000 -0.015792
36 9.771001 22.181154 -0.000036 -3.116628 -0.086379 2.909986
37 23.541597 0.000004 0.000002 -0.000001 -0.081731 -0.029432
38 6.820162 -16.874149 0.000057 -3.034374 -0.113469 -2.733363
39 19.889786 0.000000 -0.000001 0.062121 0.048022 0.088839
time 8
0 0.000000 0.000000 0.000000 1.570796 -0.000000 0.000000
1 0.000000 93.107208 -4.013234 1.738622 -1.288807 2.888363
2 -0.000000 -0.000000 0.000002 -1.570795 -1.570796 0.000000
3 18.065231 1.612340 0.000781 -0.051014 0.014173 0.018042
4 18.776232 -0.019841 0.001522 -0.076846 0.086791 0.001113
5 30.403124 -4.923405 0.000001 0.000000 -0.000001 0.320624
6 -6.370760 3.851229 9.388213 -0.762471 -1.445166 -2.704492
7 15.294985 0.000001 0.000009 0.910108 1.085871 0.465716
8 31.848377 -0.000004 -0.000002 0.000000 -0.000000 -0.435985
9 25.199879 -0.000001 0.000001 -1.867975 0.149202 -0.032643
10 4.981277 5.314328 -5.471677 1.725575 0.733419 0.506503
11 7.043929 0.000003 0.000001 -0.000000 -0.000000 0.708841
12 15.014610 -0.003020 -1.047790 0.095200 0.014153 1.453530
13 7.827646 0.000003 0.000002 0.000000 -0.000000 1.657048
14 12.673380 2.128985 4.586257 1.579381 -0.410632 -0.089723
15 -6.370787 3.851292 -9.388221 1.038530 1.392737 -2.431479
16 15.294984 -0.000003 -0.000022 -0.601548 -1.105006 0.768716
17 31.848372 -0.000003 -0.000001 0.000000 -0.000000 -0.430530
18 25.199867 0.000000 -0.000003 1.991396 -0.000000 -0.000000
19 4.981276 5.314330 5.471674 -2.030175 -0.709233 0.733253
20 7.043932 0.000002 0.000000 0.000000 -0.000000 0.708841
21 15.014617 -0.003020 1.047784 -0.096232 -0.001483 1.585306
22 7.827646 0.000009 0.000001 -0.000000 -0.000000 1.574982
23 6.497880 -0.000002 0.000000 0.370574 -0.026557 -0.133681
24 -18.324823 -2.096149 16.898970 3.030241 -0.340080 2.979721
25 44.544312 -0.000001 0.000003 0.000000 -0.000000 -0.506850
26 36.285278 0.000003 -0.000005 -0.151672 -0.246783 0.243848
27 13.798664 17.869469 -0.000002 -0.001452 0.005917 1.582326
28 -17.861423 -0.351019 -17.511889 -2.402176 0.063364 -2.966492
29 44.544319 -0.000001 0.000002 0.000000 -0.000000 -0.218188
30 36.285275 -0.000001 0.000005 -0.267077 0.158918 0.212196
31 13.798661 17.869471 0.000001 -0.000196 -0.000226 1.568868
32 9.473437 1.433090 22.460857 1.545191 -0.707315 3.128800
33 23.080153 -0.000002 0.000014 0.000001 -0.000000 0.015792
34 9.473495 1.432967 -22.461212 1.609472 0.379185 -3.016076
35 23.080162 -0.000002 0.000003 0.000000 -0.000000 -0.015792
36 9.771005 22.181158 -0.000036 -3.116579 -0.104764 2.909524
37 23.541597 0.000002 0.000002 -0.000001 -0.103086 -0.029432
38 6.820168 -16.874149 0.000059 -3.053748 -0.096418 -2.746807
39 19.889780 0.000001 -0.000001 0.072603 0.067996 0.083029
time 9
0 0.000000 0.000000 0.000000 1.570796 -0.000000 0.000000
1 0.000001 93.107208 -3.850282 1.718693 -1.289723 2.909108
2 -0.000000 -0.000000 0.000001 -1.570795 -1.570796 0.000000
3 18.064957 1.612339 0.000803 -0.052567 0.019309 -0.000062
4 18.776257 -0.019842 0.001521 -0.076685 0.086028 0.003371
5 30.403109 -4.923405 -0.000001 0.000000 -0.000001 0.320624
6 -6.370758 3.851237 9.388214 -0.762471 -1.445166 -2.704493
7 15.294989 -0.000001 0.000006 0.929676 1.094458 0.481111
8 31.848372 -0.000002 0.000001 0.000000 -0.000000 -0.429909
9 25.199873 0.000003 -0.000000 -1.866461 0.147788 -0.022201
10 4.981277 5.314331 -5.471673 1.725575 0.733419 0.506503
11 7.043931 -0.000007 -0.000003 -0.000000 -0.000000 0.708841
12 15.014613 -0.003020 -1.047786 0.095200 0.014153 1.453530
13 7.827643 -0.000004 -0.000002 0.000000 -0.000000 1.657048
14 12.673384 2.128983 4.586255 1.579381 -0.410632 -0.089723
15 -6.370768 3.851291 -9.388219 1.038530 1.392738 -2.431479
16 15.294990 -0.000001 0.000017 -0.606636 -1.090903 0.772238
17 31.848372 0.000007 0.000001 0.000000 -0.000000 -0.421407
18 25.199863 0.000000 -0.000000 1.991396 -0.000000 -0.000000
19 4.981275 5.314328 5.471678 -2.030175 -0.709233 0.733253
20 7.043931 -0.000004 -0.000002 0.000000 -0.000000 0.708841
21 15.014618 -0.003021 1.047790 -0.096232 -0.001483 1.585306
22 7.827641 0.000008 0.000003 -0.000000 -0.000000 1.574982
23 6.497876 0.000001 0.000000 0.369082 -0.031999 -0.120838
24 -18.389563 -2.466095 16.777960 3.028790 -0.333283 2.995626
25 44.544312 -0.000001 -0.000002 0.000000 -0.000000 -0.507614
26 36.285271 0.000002 0.000007 -0.153575 -0.246546 0.246899
27 13.798663 17.869473 -0.000002 -0.001454 0.005914 1.582337
28 -17.738754 -0.663383 -17.626896 -2.402252 0.068542 -2.949784
29 44.544312 -0.000000 0.000005 0.000000 -0.000000 -0.212188
30 36.285275 -0.000003 0.000003 -0.267116 0.160337 0.209876
31 13.798657 17.869467 -0.000004 -0.000163 -0.000187 1.569204
32 9.473437 1.433091 22.460854 1.536865 -0.707061 -3.141572
33 23.080147 -0.000003 0.000014 0.000001 -0.000000 0.015792
34 9.473489 1.432967 -22.461212 1.609472 0.379185 -3.016076
35 23.080160 0.000001 0.000003 0.000000 -0.000000 -0.015792
36 9.771004 22.181156 -0.000036 -3.116527 -0.124387 2.909031
37 23.541599 0.000001 0.000002 -0.000001 -0.090756 -0.029432
38 6.820165 -16.874147 0.000059 -3.073111 -0.079380 -2.760244
39 19.889780 -0.000001 -0.000001 0.056978 0.059845 0.091688
time 10
0 0.000000 0.000000 0.000000 1.570796 -0.000000 0.000000
1 0.000001 93.107216 -3.473460 1.698538 -1.290529 2.930084
2 -0.000000 -0.000000 0.000001 -1.570795 -1.570796 0.000000
3 18.064674 1.612342 0.000830 -0.054101 0.024233 -0.017470
4 18.776308 -0.019841 0.001515 -0.076518 0.085230 0.005733
5 30.403122 -4.923405 -0.000001 0.000000 -0.000001 0.320624
6 -6.370769 3.851239 9.388215 -0.762472 -1.445167 -2.704494
7 15.294989 -0.000001 0.000000 0.947456 1.104661 0.494788
8 31.848362 0.000003 0.000003 0.000000 -0.000000 -0.422843
9 25.199875 -0.000000 -0.000003 -1.864809 0.150254 -0.011645
10 4.981275 5.314329 -5.471679 1.725575 0.733419 0.506503
11 7.043924 -0.000001 -0.000006 -0.000000 -0.000000 0.708841
12 15.014613 -0.003022 -1.047787 0.095200 0.014153 1.453530
13 7.827646 0.000008 -0.000003 0.000000 -0.000000 1.657048
14 12.673382 2.128982 4.586255 1.579381 -0.410632 -0.089723
15 -6.370763 3.851284 -9.388220 1.038529 1.392738 -2.431479
16 15.294984 0.000001 -0.000011 -0.611556 -1.076783 0.775552
17 31.848366 -0.000002 -0.000003 0.000000 -0.000000 -0.411777
18 25.199858 -0.000001 0.000000 1.991396 -0.000000 -0.000000
19 4.981271 5.314322 5.471678 -2.030175 -0.709233 0.733252
20 7.043926 -0.000009 -0.000001 0.000000 -0.000000 0.708841
21 15.014607 -0.003023 1.047785 -0.096232 -0.001483 1.585306
22 7.827635 0.000007 0.000001 -0.000000 -0.000000 1.574982
23 6.497881 0.000000 0.000000 0.368001 -0.032278 -0.121302
24 -18.446772 -2.838959 16.655411 3.026795 -0.326015 3.013178
25 44.544315 0.000002 -0.000001 0.000000 -0.000000 -0.509324
26 36.285275 0.000005 -0.000002 -0.155496 -0.245904 0.252881
27 13.798660 17.869465 -0.000006 -0.001454 0.005914 1.582337
28 -17.608753 -0.974824 -17.742117 -2.402041 0.071833 -2.927547
29 44.544315 0.000002 0.000003 0.000000 -0.000000 -0.197250
30 36.285267 0.000001 0.000001 -0.266921 0.164007 0.202766
31 13.798659 17.869467 -0.000000 -0.000056 -0.000064 1.570255
32 9.473438 1.433090 22.460857 1.531294 -0.706890 -3.133001
33 23.080147 -0.000002 0.000014 0.000001 -0.000000 0.015792
34 9.473494 1.432967 -22.461212 1.609472 0.379185 -3.016076
35 23.080160 -0.000001 0.000003 0.000000 -0.000000 -0.015792
36 9.771008 22.181156 -0.000037 -3.116492 -0.137460 2.908702
37 23.541601 0.000004 0.000002 -0.000001 -0.051581 -0.029432
38 6.820172 -16.874149 0.000058 -3.087902 -0.066366 -2.770509
39 19.889788 0.000001 -0.000001 0.023159 0.032618 0.110432
time 11
0 0.000000 0.000000 0.000000 1.570796 -0.000000 0.000000
1 0.000000 93.107208 -3.084548 1.680792 -1.291140 2.948548
2 -0.000000 -0.000000 -0.000002 -1.570795 -1.570796 0.000000
3 18.064421 1.612350 0.000855 -0.055791 0.029033 -0.034659
4 18.776331 -0.019843 0.001514 -0.076369 0.084517 0.007842
5 30.403111 -4.923407 -0.000001 0.000000 -0.000001 0.320624
6 -6.370764 3.851241 9.388211 -0.762471 -1.445166 -2.704493
7 15.294992 0.000002 0.000005 0.962495 1.115416 0.506036
8 31.848392 0.000006 0.000000 0.000000 -0.000000 -0.415640
9 25.199881 -0.000001 0.000001 -1.863088 0.153542 -0.000986
10 4.981267 5.314330 -5.471676 1.725575 0.733419 0.506503
11 7.043931 -0.000007 -0.000000 -0.000000 -0.000000 0.708841
12 15.014615 -0.003020 -1.047791 0.095200 0.014153 1.453530
13 7.827652 0.000000 -0.000002 0.000000 -0.000000 1.657048
14 12.673385 2.128984 4.586253 1.579381 -0.410632 -0.089723
15 -6.370763 3.851289 -9.388218 1.038530 1.392738 -2.431479
16 15.294991 -0.000001 -0.000009 -0.615863 -1.064135 0.778395
17 31.848387 0.000002 -0.000005 0.000000 -0.000000 -0.401997
18 25.199869 -0.000003 0.000006 1.991396 -0.000000 -0.000000
19 4.981280 5.314325 5.471673 -2.030176 -0.709233 0.733252
20 7.043938 -0.000002 -0.000005 0.000000 -0.000000 0.708841
21 15.014613 -0.003024 1.047789 -0.096232 -0.001483 1.585306
22 7.827649 0.000003 0.000002 -0.000000 -0.000000 1.574982
23 6.497881 0.000004 0.000000 0.367144 -0.031347 -0.124830
24 -18.490271 -3.165000 16.547785 3.024773 -0.319318 3.029598
25 44.544319 -0.000001 -0.000002 0.000000 -0.000000 -0.511094
26 36.285263 0.000000 -0.000003 -0.157197 -0.245275 0.259357
27 13.798660 17.869469 -0.000002 -0.001454 0.005914 1.582337
28 -17.489918 -1.244380 -17.842302 -2.401640 0.073763 -2.905882
29 44.544319 0.000002 -0.000001 0.000000 -0.000000 -0.179905
30 36.285267 -0.000004 -0.000000 -0.266693 0.167873 0.194649
31 13.798658 17.869467 -0.000000 -0.000001 -0.000000 1.570797
32 9.473438 1.433091 22.460855 1.527195 -0.706765 -3.126693
33 23.080154 -0.000005 0.000013 0.000001 -0.000000 0.015792
34 9.473493 1.432967 -22.461212 1.609472 0.379185 -3.016076
35 23.080168 0.000003 0.000003 0.000000 -0.000000 -0.015792
36 9.771002 22.181154 -0.000036 -3.116467 -0.146526 2.908474
37 23.541597 0.000004 0.000002 -0.000001 -0.000000 -0.029432
38 6.820166 -16.874147 0.000058 -3.094507 -0.060555 -2.775093
39 19.889788 -0.000004 0.000000 0.000000 -0.000000 0.123273
end
