version 1
nodes
0 "NPC_423" -1
1 "Bip001" 0
2 "Bip001 Pelvis" 1
3 "Bip001 Spine" 2
4 "Bip001 Spine1" 3
5 "Bip001 Neck" 4
6 "Bip001 L Clavicle" 5
7 "Bip001 L UpperArm" 6
8 "Bip001 L Forearm" 7
9 "Bip001 L Hand" 8
10 "Bip001 L Finger0" 9
11 "Bip001 L Finger01" 10
12 "Bip001 L Finger1" 9
13 "Bip001 L Finger11" 12
14 "Bone001" 6
15 "Bip001 R Clavicle" 5
16 "Bip001 R UpperArm" 15
17 "Bip001 R Forearm" 16
18 "Bip001 R Hand" 17
19 "Bip001 R Finger0" 18
20 "Bip001 R Finger01" 19
21 "Bip001 R Finger1" 18
22 "Bip001 R Finger11" 21
23 "Bip001 Head" 5
24 "Bip001 L Thigh" 3
25 "Bip001 L Calf" 24
26 "Bip001 L Foot" 25
27 "Bip001 L Toe0" 26
28 "Bip001 R Thigh" 3
29 "Bip001 R Calf" 28
30 "Bip001 R Foot" 29
31 "Bip001 R Toe0" 30
32 "Bone002(mirrored)" 2
33 "Bone003(mirrored)" 32
34 "Bone002" 2
35 "Bone003" 34
36 "Bone008" 2
37 "Bone009" 36
38 "Bone005" 2
39 "Bone006" 38
end
skeleton
time 0
0 0.000000 0.000000 0.000000 1.570796 -0.000000 0.000000
1 0.315722 93.003593 -2.973838 1.673325 -1.274612 2.954268
2 0.000000 0.000000 -0.000002 -1.570795 -1.570796 0.000000
3 18.064426 1.612349 0.000856 -0.055777 0.029033 -0.034659
4 18.776512 -0.019838 0.001530 -0.077274 0.084334 0.015123
5 30.403137 -4.923406 -0.000001 0.000000 -0.000001 0.320525
6 -6.370765 3.851238 9.388219 -0.538320 -1.453650 -2.927645
7 15.294988 0.000001 -0.000001 0.735901 1.130518 0.261855
8 31.848372 -0.000002 -0.000004 0.000000 -0.000000 -0.666307
9 25.199877 -0.000004 -0.000002 -1.667587 0.105739 -0.054177
10 4.981267 5.314319 -5.471680 1.725575 0.733420 0.506503
11 7.043930 -0.000003 -0.000002 -0.000000 -0.000000 0.708841
12 15.014620 -0.003025 -1.047784 0.094116 0.020164 1.390231
13 7.827642 -0.000007 0.000003 0.000000 -0.000000 1.439612
14 12.673381 2.128983 4.586249 1.579381 -0.410632 -0.089723
15 -6.370766 3.851286 -9.388224 1.038529 1.392740 -2.431479
16 15.294991 -0.000000 -0.000004 -0.611585 -1.080882 0.596742
17 31.848391 0.000004 -0.000000 0.000000 -0.000000 -0.623377
18 25.199869 -0.000004 -0.000001 1.749235 -0.016878 0.008387
19 4.981282 5.314327 5.471677 -2.030176 -0.709233 0.733252
20 7.043940 0.000012 0.000008 0.000000 -0.000000 0.708841
21 15.014622 -0.003022 1.047786 -0.096232 -0.001483 1.585306
22 7.827644 -0.000004 0.000003 -0.000000 -0.000000 1.574982
23 6.497875 -0.000004 -0.000000 0.228655 -0.037533 -0.132943
24 -18.490253 -3.164998 16.547783 3.023872 -0.317356 3.030595
25 44.544312 -0.000001 -0.000003 0.000000 -0.000000 -0.529976
26 36.285290 0.000001 0.000007 -0.173408 -0.242185 0.278049
27 13.798663 17.869465 -0.000004 -0.001393 0.005982 1.582053
28 -17.489908 -1.244380 -17.842302 -2.402974 0.088665 -2.917789
29 44.544323 0.000001 0.000000 0.000000 -0.000000 -0.205230
30 36.285282 0.000001 0.000001 -0.283309 0.170390 0.202717
31 13.798667 17.869465 -0.000001 -0.000058 -0.000065 1.570247
32 9.473442 1.433091 22.460857 1.520936 -0.706964 -3.119366
33 23.080149 -0.000005 0.000013 0.007746 -0.009481 0.008243
34 9.473496 1.432965 -22.461212 1.602425 0.381332 -3.023921
35 23.080164 -0.000000 0.000004 0.003119 0.005743 -0.015588
36 9.771008 22.181156 -0.000036 -3.122743 -0.153408 2.909422
37 23.541607 0.000004 0.000002 -0.000001 -0.004628 -0.029432
38 6.820174 -16.874149 0.000057 -3.096292 -0.055259 -2.766443
39 19.889791 -0.000000 -0.000001 0.003188 0.007472 0.123562
time 1
0 0.000000 0.000000 0.000000 1.570796 -0.000000 0.000000
1 0.792807 92.852654 -2.778024 1.665627 -1.253095 2.959883
2 0.000000 0.000000 -0.000002 -1.570795 -1.570796 0.000000
3 18.064423 1.612350 0.000856 -0.055724 0.029033 -0.034659
4 18.776695 -0.019829 0.001555 -0.078231 0.084140 0.024623
5 30.403135 -4.923404 -0.000001 -0.000000 -0.000001 0.320221
6 -6.370778 3.851240 9.388214 -0.223809 -1.457440 3.042597
7 15.294986 -0.000001 0.000002 0.440614 1.108403 -0.056969
8 31.848398 -0.000004 -0.000005 0.000000 -0.000000 -1.005308
9 25.199860 -0.000002 0.000004 -1.391360 0.057254 -0.133667
10 4.981275 5.314326 -5.471670 1.725575 0.733419 0.506504
11 7.043933 -0.000002 0.000005 -0.000000 -0.000000 0.708841
12 15.014611 -0.003020 -1.047787 0.092063 0.027957 1.306650
13 7.827651 -0.000004 0.000004 0.000000 -0.000000 1.151348
14 12.673384 2.128984 4.586261 1.579381 -0.410632 -0.089723
15 -6.370780 3.851296 -9.388223 1.038530 1.392737 -2.431489
16 15.294989 -0.000003 0.000017 -0.593218 -1.098088 0.346810
17 31.848373 -0.000001 0.000002 0.000000 -0.000000 -0.917837
18 25.199871 -0.000008 -0.000010 1.410702 -0.035296 0.024435
19 4.981272 5.314328 5.471680 -2.030175 -0.709233 0.733253
20 7.043934 0.000004 0.000002 0.000000 -0.000000 0.708841
21 15.014609 -0.003023 1.047787 -0.096232 -0.001483 1.585306
22 7.827643 0.000005 0.000005 -0.000000 -0.000000 1.574982
23 6.497870 0.000001 0.000000 0.034324 -0.046247 -0.142436
24 -18.490257 -3.164999 16.547781 3.022357 -0.313563 3.032030
25 44.544312 -0.000001 -0.000001 0.000000 -0.000000 -0.555655
26 36.285267 0.000002 0.000002 -0.194433 -0.237369 0.303498
27 13.798662 17.869467 -0.000004 -0.001421 0.005950 1.582154
28 -17.489920 -1.244380 -17.842304 -2.404839 0.108207 -2.932825
29 44.544312 -0.000001 -0.000002 0.000000 -0.000000 -0.238574
30 36.285278 -0.000001 -0.000004 -0.304773 0.174321 0.210890
31 13.798657 17.869461 0.000001 -0.000126 -0.000146 1.569586
32 9.473433 1.433090 22.460855 1.499779 -0.707634 -3.094596
33 23.080153 -0.000001 0.000013 0.038704 -0.047355 -0.021932
34 9.473490 1.432967 -22.461212 1.580978 0.387868 -3.047798
35 23.080164 -0.000005 0.000003 0.015430 0.028409 -0.014778
36 9.771006 22.181158 -0.000036 3.136458 -0.179715 2.913048
37 23.541603 0.000003 0.000002 -0.000001 -0.010767 -0.029432
38 6.820168 -16.874151 0.000057 -3.102158 -0.037866 -2.738037
39 19.889786 -0.000001 0.000000 0.016030 0.037572 0.124729
time 2
0 0.000000 0.000000 0.000000 1.570796 -0.000000 0.000000
1 1.307257 92.692841 -2.552181 1.658854 -1.231578 2.964580
2 0.000000 0.000000 0.000002 -1.570795 -1.570796 0.000000
3 18.064417 1.612350 0.000856 -0.055652 0.029033 -0.034659
4 18.776869 -0.019823 0.001583 -0.079212 0.083673 0.034151
5 30.403131 -4.923404 0.000003 -0.000000 -0.000001 0.320033
6 -6.370797 3.851235 9.388212 0.075112 -1.449161 2.745612
7 15.294990 -0.000000 0.000000 0.201533 1.049913 -0.322426
8 31.848381 0.000002 -0.000001 0.000000 -0.000000 -1.307212
9 25.199871 0.000006 -0.000003 -1.172206 0.029386 -0.224290
10 4.981278 5.314330 -5.471677 1.725575 0.733419 0.506503
11 7.043932 -0.000004 -0.000000 -0.000000 -0.000000 0.708841
12 15.014613 -0.003027 -1.047792 0.089513 0.035430 1.224763
13 7.827638 0.000002 -0.000004 -0.000000 -0.000000 0.875046
14 12.673383 2.128984 4.586253 1.579381 -0.410632 -0.089723
15 -6.370775 3.851292 -9.388219 1.038530 1.392738 -2.431511
16 15.294992 -0.000000 0.000013 -0.550367 -1.118613 0.073998
17 31.848372 -0.000002 -0.000003 0.000000 -0.000000 -1.193494
18 25.199873 -0.000003 -0.000004 1.130506 -0.047463 0.046833
19 4.981276 5.314323 5.471677 -2.030175 -0.709232 0.733252
20 7.043935 0.000002 -0.000006 0.000000 -0.000000 0.708841
21 15.014618 -0.003022 1.047785 -0.096232 -0.001483 1.585306
22 7.827649 -0.000002 -0.000001 -0.000000 -0.000000 1.574982
23 6.497847 -0.000001 -0.000000 -0.143441 -0.053952 -0.150185
24 -18.490259 -3.165001 16.547783 3.020583 -0.308827 3.033584
25 44.544319 -0.000002 -0.000001 0.000000 -0.000000 -0.580607
26 36.285278 0.000001 0.000005 -0.215378 -0.231603 0.328485
27 13.798661 17.869467 0.000003 -0.001494 0.005868 1.582458
28 -17.489916 -1.244380 -17.842300 -2.406985 0.127228 -2.946394
29 44.544312 0.000000 0.000001 0.000000 -0.000000 -0.270831
30 36.285267 -0.000002 0.000001 -0.326396 0.178345 0.216082
31 13.798660 17.869471 -0.000001 -0.000177 -0.000203 1.569098
32 9.473441 1.433091 22.460857 1.470551 -0.708558 -3.060378
33 23.080158 -0.000006 0.000013 0.071816 -0.087848 -0.054206
34 9.473496 1.432968 -22.461212 1.550554 0.397133 -3.081668
35 23.080164 -0.000000 0.000003 0.029866 0.054986 -0.013826
36 9.771012 22.181162 -0.000037 3.106539 -0.212528 2.917575
37 23.541597 0.000003 0.000002 -0.000001 -0.016875 -0.029432
38 6.820172 -16.874151 0.000058 -3.110269 -0.013798 -2.698734
39 19.889791 0.000002 -0.000001 0.029987 0.070286 0.126000
time 3
0 0.000000 0.000000 0.000000 1.570796 -0.000000 0.000000
1 1.822069 92.532921 -2.326047 1.651382 -1.209816 2.969688
2 0.000000 0.000000 -0.000001 -1.570795 -1.570796 0.000000
3 18.064421 1.612351 0.000856 -0.055579 0.029033 -0.034659
4 18.777046 -0.019814 0.001604 -0.080131 0.083294 0.043660
5 30.403160 -4.923404 0.000001 0.000000 -0.000001 0.320302
6 -6.370785 3.851238 9.388216 0.314690 -1.431446 2.508404
7 15.294987 -0.000000 0.000012 0.034770 0.964494 -0.521032
8 31.848373 -0.000003 -0.000006 0.000000 -0.000000 -1.562156
9 25.199869 -0.000001 0.000004 -1.165700 0.007325 -0.320027
10 4.981269 5.314332 -5.471676 1.725575 0.733419 0.506504
11 7.043927 0.000005 -0.000007 -0.000000 -0.000000 0.708841
12 15.014606 -0.003019 -1.047780 0.086356 0.042476 1.144643
13 7.827652 -0.000008 -0.000001 -0.000000 -0.000000 0.610408
14 12.673381 2.128985 4.586266 1.579381 -0.410632 -0.089723
15 -6.370760 3.851285 -9.388224 1.038529 1.392738 -2.431588
16 15.294990 -0.000000 0.000008 -0.317580 -1.153571 -0.395926
17 31.848360 0.000000 0.000001 0.000000 -0.000000 -1.408481
18 25.199865 0.000004 -0.000000 1.045603 -0.043921 0.077766
19 4.981277 5.314320 5.471687 -2.030176 -0.709233 0.733252
20 7.043933 -0.000004 -0.000003 0.000000 -0.000000 0.708841
21 15.014614 -0.003025 1.047798 -0.096232 -0.001482 1.585316
22 7.827645 -0.000001 0.000000 -0.000000 -0.000000 1.574982
23 6.497871 0.000001 0.000000 -0.276097 -0.059394 -0.157480
24 -18.490269 -3.164998 16.547787 3.018825 -0.304134 3.035205
25 44.544319 -0.000005 0.000003 0.000000 -0.000000 -0.603805
26 36.285263 0.000002 0.000005 -0.236779 -0.225580 0.352609
27 13.798660 17.869473 0.000001 -0.001616 0.005731 1.583001
28 -17.489923 -1.244382 -17.842306 -2.409188 0.144720 -2.959695
29 44.544315 -0.000001 0.000003 0.000000 -0.000000 -0.297061
30 36.285271 -0.000001 -0.000005 -0.348440 0.182079 0.219022
31 13.798659 17.869467 -0.000001 -0.000183 -0.000211 1.568997
32 9.473433 1.433090 22.460855 1.442576 -0.709438 -3.027626
33 23.080156 -0.000004 0.000013 0.100752 -0.123165 -0.082358
34 9.473495 1.432967 -22.461210 1.520314 0.406336 -3.115333
35 23.080164 0.000004 0.000003 0.042511 0.077897 -0.012891
36 9.771005 22.181156 -0.000037 3.076219 -0.245778 2.922169
37 23.541601 0.000001 0.000002 -0.000001 -0.022837 -0.029432
38 6.820167 -16.874149 0.000058 -3.118232 0.009850 -2.660118
39 19.889790 0.000001 -0.000001 0.042998 0.100781 0.127187
time 4
0 0.000000 0.000000 0.000000 1.570796 -0.000000 0.000000
1 2.300237 92.381737 -2.129363 1.642122 -1.187903 2.976085
2 0.000000 0.000000 -0.000001 -1.570795 -1.570796 0.000000
3 18.064400 1.612350 0.000856 -0.055526 0.029033 -0.034659
4 18.777239 -0.019800 0.001611 -0.080804 0.083471 0.053076
5 30.403126 -4.923401 -0.000000 0.000000 -0.000001 0.321586
6 -6.367388 3.856853 9.388214 0.492870 -1.409275 2.331825
7 15.294988 0.000000 0.000000 -0.077945 0.867437 -0.673024
8 31.848372 -0.000000 -0.000002 0.000000 -0.000000 -1.705303
9 25.199875 -0.000009 0.000011 -1.467464 -0.048307 -0.406948
10 4.981265 5.314329 -5.471684 1.725575 0.733419 0.506503
11 7.043929 0.000001 -0.000006 -0.000000 -0.000000 0.708841
12 15.014611 -0.003030 -1.047789 0.082593 0.049481 1.062090
13 7.827645 0.000023 0.000006 -0.000000 0.000000 0.353094
14 12.673381 2.128983 4.586257 1.579381 -0.410632 -0.089723
15 -6.367398 3.856909 -9.388223 1.038529 1.392738 -2.432266
16 15.294989 -0.000001 -0.000005 0.176830 -1.102686 -1.145597
17 31.848377 -0.000004 -0.000009 0.000000 -0.000000 -1.541802
18 25.199865 0.000002 0.000009 1.231562 -0.024737 0.119645
19 4.981275 5.314326 5.471680 -2.030175 -0.709233 0.733253
20 7.043933 -0.000000 -0.000008 0.000000 -0.000000 0.708841
21 15.014619 -0.003032 1.047800 -0.096232 -0.001461 1.585535
22 7.827642 0.000002 -0.000004 -0.000000 -0.000000 1.574982
23 6.497882 -0.000006 -0.000001 -0.350101 -0.061021 -0.167705
24 -18.490252 -3.164998 16.547785 3.017452 -0.300244 3.036652
25 44.544312 -0.000000 0.000003 0.000000 -0.000000 -0.626352
26 36.285271 -0.000001 0.000004 -0.259196 -0.219918 0.375541
27 13.798660 17.869471 0.000001 -0.001646 0.005696 1.583121
28 -17.489912 -1.244380 -17.842304 -2.411302 0.159821 -2.972914
29 44.544315 0.000003 0.000003 0.000000 -0.000000 -0.318626
30 36.285255 -0.000001 -0.000001 -0.371221 0.184750 0.219161
31 13.798660 17.869469 0.000001 -0.000162 -0.000187 1.569131
32 9.473434 1.433092 22.460859 1.420829 -0.710111 -3.002107
33 23.080151 -0.000008 0.000012 0.126258 -0.154293 -0.107171
34 9.473493 1.432965 -22.461214 1.498914 0.412852 -3.139144
35 23.080160 -0.000002 0.000003 0.053837 0.098604 -0.012104
36 9.771004 22.181156 -0.000035 3.053378 -0.270814 2.925631
37 23.541597 0.000003 0.000001 0.000131 -0.028402 -0.029529
38 6.820171 -16.874147 0.000057 -3.123988 0.026944 -2.632207
39 19.889780 -0.000001 -0.000001 0.052489 0.123137 0.128451
time 5
0 0.000000 0.000000 0.000000 1.570796 -0.000000 0.000000
1 2.704785 92.248093 -1.991843 1.625490 -1.160818 2.987831
2 0.000000 0.000000 0.000000 -1.570795 -1.570796 0.000000
3 18.064409 1.612350 0.000857 -0.055513 0.029033 -0.034659
4 18.777433 -0.019790 0.001604 -0.081050 0.085044 0.062299
5 30.403149 -4.923398 0.000000 0.000000 -0.000001 0.324639
6 -6.355741 3.876043 9.388215 0.540306 -1.401002 2.282375
7 15.294987 0.000002 0.000003 -0.095021 0.862959 -0.736157
8 31.848381 -0.000000 0.000000 0.000000 -0.000000 -1.734938
9 25.199869 -0.000000 0.000010 -1.566278 -0.186351 -0.439664
10 4.981270 5.314324 -5.471683 1.725575 0.733419 0.506503
11 7.043925 0.000000 0.000000 -0.000000 -0.000000 0.708841
12 15.014607 -0.003016 -1.047780 0.081391 0.051421 1.038406
13 7.827642 0.000025 0.000003 0.000000 -0.000000 0.359528
14 12.673379 2.128983 4.586257 1.579381 -0.410632 -0.089723
15 -6.355739 3.876091 -9.388222 1.038530 1.392739 -2.435404
16 15.294987 -0.000001 -0.000015 0.338866 -1.030556 -1.386055
17 31.848375 0.000000 0.000002 0.000000 -0.000000 -1.602828
18 25.199871 0.000002 -0.000001 1.303544 -0.115376 0.125018
19 4.981277 5.314327 5.471680 -2.030175 -0.709233 0.733252
20 7.043934 0.000001 0.000008 0.000000 -0.000000 0.708841
21 15.014619 -0.003023 1.047793 -0.096233 -0.001431 1.585843
22 7.827645 -0.000004 0.000001 -0.000000 -0.000000 1.574982
23 6.497850 0.000000 -0.000000 -0.396888 -0.060121 -0.183953
24 -18.490265 -3.165000 16.547785 3.015758 -0.298476 3.038846
25 44.544312 -0.000002 0.000002 0.000000 -0.000000 -0.647440
26 36.285275 0.000004 0.000002 -0.285232 -0.214913 0.398836
27 13.798661 17.869467 0.000005 -0.001683 0.005655 1.583268
28 -17.489923 -1.244381 -17.842304 -2.413107 0.169914 -2.990152
29 44.544315 0.000001 -0.000000 0.000000 -0.000000 -0.335977
30 36.285267 0.000001 -0.000001 -0.399589 0.185155 0.214907
31 13.798661 17.869465 -0.000001 -0.000143 -0.000164 1.569341
32 9.473437 1.433091 22.460855 1.421401 -0.710248 -3.003624
33 23.080147 -0.000007 0.000012 0.127087 -0.157685 -0.109874
34 9.473487 1.432966 -22.461210 1.496040 0.413695 3.140720
35 23.080166 0.000001 0.000003 0.047878 0.098021 -0.015349
36 9.771005 22.181158 -0.000035 3.051029 -0.273865 2.925938
37 23.541601 0.000002 0.000001 -0.005809 -0.022624 -0.025221
38 6.820166 -16.874149 0.000058 -3.124903 0.027025 -2.635212
39 19.889784 -0.000001 -0.000000 0.053666 0.124117 0.122049
time 6
0 0.000000 0.000000 0.000000 1.570796 -0.000000 0.000000
1 2.998723 92.140831 -1.943217 1.590874 -1.114323 3.011878
2 0.000000 0.000000 -0.000001 -1.570795 -1.570796 0.000000
3 18.064417 1.612350 0.000856 -0.055558 0.029033 -0.034659
4 18.777622 -0.019778 0.001594 -0.080269 0.090696 0.070997
5 30.403151 -4.923395 -0.000000 0.000000 -0.000001 0.327613
6 -6.343861 3.895490 9.388213 0.540548 -1.400957 2.279459
7 15.294989 0.000000 0.000000 -0.092444 0.898923 -0.773781
8 31.848370 -0.000001 -0.000009 0.000000 -0.000000 -1.726864
9 25.199862 0.000002 0.000002 -1.507568 -0.331563 -0.460395
10 4.981267 5.314336 -5.471673 1.725575 0.733419 0.506503
11 7.043926 -0.000000 -0.000005 -0.000000 -0.000000 0.708841
12 15.014602 -0.003020 -1.047783 0.081396 0.051416 1.038478
13 7.827643 0.000014 0.000005 -0.000000 0.000000 0.468815
14 12.673382 2.128984 4.586252 1.579381 -0.410632 -0.089723
15 -6.343861 3.895544 -9.388221 1.038530 1.392738 -2.438393
16 15.294989 -0.000002 0.000013 0.347355 -1.002945 -1.379324
17 31.848366 0.000004 -0.000004 0.000000 -0.000000 -1.612444
18 25.199869 -0.000000 -0.000007 1.268852 -0.238203 0.115376
19 4.981275 5.314335 5.471676 -2.030175 -0.709233 0.733252
20 7.043933 0.000001 -0.000012 0.000000 -0.000000 0.708841
21 15.014611 -0.003018 1.047792 -0.096233 -0.001421 1.585951
22 7.827644 -0.000003 0.000007 -0.000000 -0.000000 1.575462
23 6.497862 0.000002 -0.000001 -0.417390 -0.062092 -0.200567
24 -18.490253 -3.165002 16.547781 3.011411 -0.304353 3.045207
25 44.544319 -0.000005 -0.000002 0.000000 -0.000000 -0.668455
26 36.285275 0.000000 0.000002 -0.330876 -0.211369 0.429891
27 13.798663 17.869467 -0.000003 -0.001805 0.005517 1.583854
28 -17.489912 -1.244380 -17.842302 -2.414433 0.174006 -3.013635
29 44.544312 -0.000003 0.000002 0.000000 -0.000000 -0.345530
30 36.285263 -0.000001 0.000004 -0.449964 0.180050 0.199323
31 13.798662 17.869473 0.000002 -0.000094 -0.000107 1.569872
32 9.473437 1.433091 22.460857 1.444618 -0.709944 -3.033113
33 23.080151 -0.000004 0.000014 0.027548 -0.058544 -0.031311
34 9.473494 1.432966 -22.461210 1.530633 0.402972 -3.104705
35 23.080164 -0.000002 0.000003 -0.058332 0.003057 -0.049760
36 9.771005 22.181162 -0.000036 3.088248 -0.237452 2.919864
37 23.541599 0.000004 0.000001 -0.065025 0.047983 0.017646
38 6.820166 -16.874155 0.000058 -3.119442 0.001483 -2.688011
39 19.889786 -0.000001 -0.000001 0.027039 0.041112 0.045048
time 7
0 0.000000 0.000000 0.000000 1.570796 -0.000000 0.000000
1 3.145044 92.068748 -2.013224 1.566459 -1.088153 3.028347
2 0.000000 0.000000 -0.000001 -1.570795 -1.570796 0.000000
3 18.064419 1.612350 0.000856 -0.055682 0.029033 -0.034659
4 18.777775 -0.019771 0.001504 -0.076303 0.093652 0.079281
5 30.403166 -4.923393 0.000000 -0.000000 -0.000001 0.328866
6 -6.340508 3.900930 9.388214 0.540197 -1.401022 2.278533
7 15.294988 0.000003 0.000019 -0.084892 0.932310 -0.810857
8 31.848372 0.000000 -0.000000 0.000000 -0.000000 -1.718084
9 25.199873 0.000011 -0.000011 -1.443469 -0.469931 -0.491850
10 4.981273 5.314332 -5.471678 1.725575 0.733419 0.506503
11 7.043935 -0.000003 0.000002 -0.000000 -0.000000 0.708841
12 15.014617 -0.003019 -1.047789 0.081443 0.051339 1.039416
13 7.827640 -0.000003 0.000002 0.000000 -0.000000 0.572397
14 12.673380 2.128984 4.586259 1.579381 -0.410632 -0.089723
15 -6.340510 3.900985 -9.388221 1.038529 1.392738 -2.439258
16 15.294989 -0.000002 -0.000012 0.359663 -0.977370 -1.372089
17 31.848387 0.000004 -0.000000 0.000000 -0.000000 -1.621634
18 25.199873 0.000009 0.000003 1.236351 -0.354994 0.110447
19 4.981277 5.314321 5.471683 -2.030176 -0.709233 0.733252
20 7.043934 -0.000001 -0.000010 0.000000 -0.000000 0.708841
21 15.014617 -0.003022 1.047790 -0.096232 -0.001458 1.585570
22 7.827639 0.000001 0.000006 -0.000000 -0.000000 1.575792
23 6.497889 -0.000001 0.000001 -0.408267 -0.062170 -0.211439
24 -18.490263 -3.165001 16.547783 3.011955 -0.309629 3.046152
25 44.544312 -0.000002 0.000004 0.000000 -0.000000 -0.681033
26 36.285267 0.000003 0.000002 -0.363682 -0.209522 0.450421
27 13.798660 17.869469 -0.000003 -0.001829 0.005491 1.583940
28 -17.489912 -1.244379 -17.842306 -2.414430 0.171539 -3.030198
29 44.544312 0.000004 0.000000 0.000000 -0.000000 -0.348879
30 36.285263 0.000000 0.000002 -0.482196 0.174810 0.188001
31 13.798656 17.869461 0.000002 -0.000018 -0.000020 1.570688
32 9.473436 1.433090 22.460857 1.494399 -0.708373 -3.091133
33 23.080153 -0.000006 0.000013 -0.092322 0.060980 0.063266
34 9.473486 1.432968 -22.461212 1.581695 0.387407 -3.047943
35 23.080164 -0.000000 0.000005 -0.176463 -0.102612 -0.087971
36 9.771005 22.181156 -0.000037 -3.141472 -0.178962 2.911756
37 23.541595 0.000004 0.000002 -0.127755 0.123041 0.063045
38 6.820166 -16.874149 0.000058 -3.106471 -0.040281 -2.760109
39 19.889786 0.000000 -0.000001 -0.001317 -0.047489 -0.037028
time 8
0 0.000000 0.000000 0.000000 1.570796 -0.000000 0.000000
1 3.094217 92.042244 -2.248985 1.575735 -1.124850 3.023450
2 0.000000 0.000000 0.000001 -1.570795 -1.570796 0.000000
3 18.064409 1.612350 0.000860 -0.056015 0.029034 -0.034659
4 18.777882 -0.019779 0.001247 -0.061807 0.083077 0.086811
5 30.403151 -4.923397 0.000000 0.000000 -0.000001 0.324244
6 -6.354487 3.878099 9.388218 0.540196 -1.401023 2.282141
7 15.294980 -0.000000 0.000011 -0.035881 0.950428 -0.795846
8 31.848381 0.000001 -0.000007 0.000000 -0.000000 -1.726758
9 25.199865 0.000006 -0.000007 -1.415707 -0.589377 -0.473118
10 4.981268 5.314323 -5.471685 1.725575 0.733419 0.506503
11 7.043945 -0.000000 0.000017 -0.000000 -0.000000 0.708841
12 15.014609 -0.003028 -1.047795 0.078805 0.055139 0.991404
13 7.827643 0.000003 -0.000005 -0.000000 0.000000 0.654290
14 12.673378 2.128983 4.586268 1.579381 -0.410632 -0.089723
15 -6.354489 3.878154 -9.388224 1.038529 1.392739 -2.435723
16 15.294981 0.000000 0.000008 0.391693 -0.957638 -1.375836
17 31.848364 -0.000002 -0.000002 0.000000 -0.000000 -1.631394
18 25.199856 -0.000004 -0.000002 1.161757 -0.463345 0.078194
19 4.981275 5.314322 5.471683 -2.030175 -0.709233 0.733252
20 7.043931 -0.000003 0.000008 0.000000 -0.000000 0.708841
21 15.014610 -0.003018 1.047794 -0.096049 -0.003879 1.560396
22 7.827628 0.000000 0.000002 -0.000000 -0.000000 1.543425
23 6.497860 0.000000 0.000000 -0.362540 -0.053181 -0.209163
24 -18.490263 -3.169506 16.546913 3.031811 -0.307905 3.024756
25 44.544304 -0.000002 0.000002 0.000000 -0.000000 -0.683291
26 36.285259 -0.000002 0.000002 -0.339063 -0.211236 0.435158
27 13.798655 17.869467 0.000001 -0.001566 0.005786 1.582567
28 -17.489908 -1.239520 -17.842649 -2.413814 0.168509 -3.023755
29 44.544304 -0.000002 -0.000002 0.000000 -0.000000 -0.352966
30 36.285267 0.000002 -0.000001 -0.444004 0.177800 0.202556
31 13.798660 17.869473 0.000000 0.000029 0.000035 1.571229
32 9.473438 1.433090 22.460859 1.558357 -0.702978 3.125328
33 23.080153 -0.000008 0.000014 -0.115213 0.083514 0.083921
34 9.473497 1.432968 -22.461216 1.632405 0.372663 -2.988915
35 23.080158 -0.000002 0.000002 -0.200432 -0.122907 -0.096140
36 9.771004 22.181158 -0.000036 -3.100046 -0.120148 2.906788
37 23.541592 0.000006 0.000002 -0.143533 0.139207 0.074454
38 6.820168 -16.874149 0.000058 -3.081314 -0.075637 -2.774694
39 19.889784 -0.000003 -0.000000 -0.007150 -0.069336 -0.060384
time 9
0 0.000000 0.000000 0.000000 1.570796 -0.000000 0.000000
1 2.759174 92.073311 -2.764332 1.614873 -1.206764 2.997433
2 0.000000 0.000000 -0.000002 -1.570795 -1.570796 0.000000
3 18.064411 1.612352 0.000890 -0.057114 0.029034 -0.034659
4 18.777981 -0.019789 0.000874 -0.042217 0.065054 0.094372
5 30.403095 -4.923418 0.000001 0.000000 -0.000001 0.311615
6 -6.399444 3.803297 9.388213 0.540197 -1.401023 2.293748
7 15.294988 0.000000 0.000003 0.092989 0.891891 -0.607501
8 31.848379 -0.000003 -0.000009 0.000000 -0.000000 -1.803900
9 25.199867 -0.000006 0.000006 -1.629057 -0.512105 -0.144251
10 4.981280 5.314323 -5.471670 1.725575 0.733419 0.506503
11 7.043925 -0.000002 -0.000006 -0.000000 -0.000000 0.708841
12 15.014620 -0.003025 -1.047789 0.061948 0.073678 0.730048
13 7.827642 0.000003 0.000005 -0.000000 0.000000 0.621125
14 12.673382 2.128983 4.586265 1.579381 -0.410632 -0.089723
15 -6.399454 3.803355 -9.388219 1.038530 1.392738 -2.422924
16 15.294988 0.000000 -0.000024 0.441096 -0.949717 -1.405927
17 31.848373 0.000004 0.000001 0.000000 -0.000000 -1.641750
18 25.199862 -0.000000 0.000004 0.918094 -0.490971 -0.095816
19 4.981279 5.314321 5.471676 -2.030175 -0.709233 0.733253
20 7.043932 -0.000001 -0.000005 0.000000 -0.000000 0.708841
21 15.014621 -0.003035 1.047783 -0.094957 -0.015195 1.442541
22 7.827662 0.000001 -0.000001 -0.000000 0.000000 1.322445
23 6.497890 -0.000001 -0.000000 -0.242452 -0.044404 -0.185362
24 -18.490284 -3.201956 16.540602 3.063636 -0.299883 2.989271
25 44.544312 -0.000002 -0.000004 0.000000 -0.000000 -0.667476
26 36.285271 0.000002 0.000005 -0.279360 -0.216443 0.391657
27 13.798659 17.869469 -0.000004 -0.001327 0.006056 1.581363
28 -17.489882 -1.204523 -17.845098 -2.413662 0.162535 -2.999951
29 44.544312 -0.000001 -0.000000 0.000000 -0.000000 -0.357533
30 36.285271 0.000001 0.000005 -0.352952 0.180684 0.236096
31 13.798659 17.869476 0.000002 -0.000010 -0.000011 1.571007
32 9.473434 1.433091 22.460855 1.647371 -0.682622 3.038312
33 23.080147 -0.000006 0.000012 -0.087667 0.054040 0.075101
34 9.473486 1.432966 -22.461210 1.690909 0.356164 -2.919001
35 23.080166 0.000001 0.000004 -0.150706 -0.066251 -0.084880
36 9.771005 22.181156 -0.000037 -3.059523 -0.048631 2.903265
37 23.541599 0.000005 0.000003 -0.124070 0.096252 0.060369
38 6.820168 -16.874149 0.000057 -3.043958 -0.113357 -2.770746
39 19.889782 0.000001 0.000000 0.011602 -0.034680 -0.049576
time 10
0 0.000000 0.000000 0.000000 1.570796 -0.000000 0.000000
1 2.203245 92.150665 -3.489433 1.699308 -1.310292 2.930080
2 0.000000 0.000000 -0.000000 -1.570795 -1.570796 0.000000
3 18.064407 1.612352 0.000926 -0.058441 0.029035 -0.034659
4 18.778109 -0.019793 0.000446 -0.021670 0.045594 0.101449
5 30.402956 -4.923457 -0.000001 0.000000 -0.000001 0.287471
6 -6.497138 3.633688 9.388214 0.540194 -1.401023 2.320171
7 15.294991 0.000001 0.000005 0.181251 0.805709 -0.445769
8 31.848375 -0.000002 0.000006 0.000000 -0.000000 -1.873437
9 25.199871 0.000006 -0.000008 -1.760429 -0.288702 0.077927
10 4.981274 5.314322 -5.471670 1.725575 0.733419 0.506503
11 7.043930 -0.000000 -0.000005 -0.000000 -0.000000 0.708841
12 15.014618 -0.003020 -1.047778 0.044556 0.085397 0.511495
13 7.827645 -0.000001 -0.000012 0.000000 -0.000000 0.526110
14 12.673383 2.128983 4.586255 1.579381 -0.410632 -0.089723
15 -6.497132 3.633740 -9.388221 1.038530 1.392738 -2.397580
16 15.294990 0.000000 0.000001 0.496783 -0.949481 -1.450011
17 31.848385 -0.000005 -0.000001 0.000000 -0.000000 -1.649589
18 25.199862 0.000002 0.000000 0.736541 -0.450451 -0.255660
19 4.981276 5.314316 5.471679 -2.030176 -0.709233 0.733252
20 7.043933 -0.000000 0.000004 0.000000 -0.000000 0.708841
21 15.014618 -0.003023 1.047790 -0.091890 -0.028670 1.299068
22 7.827650 0.000002 -0.000003 0.000000 -0.000000 1.055370
23 6.497890 -0.000001 -0.000000 0.059927 -0.055308 -0.127335
24 -18.490314 -3.240913 16.532948 3.098217 -0.286709 2.953045
25 44.544319 0.000001 -0.000002 0.000000 -0.000000 -0.630658
26 36.285282 -0.000001 -0.000004 -0.202619 -0.222300 0.325726
27 13.798662 17.869471 -0.000007 -0.001115 0.006297 1.580321
28 -17.489840 -1.162476 -17.847958 -2.413504 0.149069 -2.970224
29 44.544319 0.000000 0.000002 0.000000 -0.000000 -0.356476
30 36.285278 -0.000001 0.000003 -0.247859 0.180570 0.272717
31 13.798660 17.869465 -0.000002 0.000020 0.000024 1.571311
32 9.473437 1.433090 22.460855 1.746034 -0.653276 2.943300
33 23.080156 -0.000006 0.000012 -0.040914 0.003975 0.060303
34 9.473490 1.432966 -22.461210 1.751519 0.339262 -2.845955
35 23.080168 -0.000003 0.000003 -0.083784 0.010333 -0.069872
36 9.771001 22.181158 -0.000036 -3.018806 0.028549 2.900227
37 23.541601 0.000008 0.000004 -0.091753 0.024681 0.036983
38 6.820167 -16.874149 0.000058 -3.000144 -0.153183 -2.764552
39 19.889788 -0.000002 -0.000001 0.042866 0.022878 -0.031969
time 11
0 0.000000 0.000000 0.000000 1.570796 -0.000000 0.000000
1 1.515670 92.259331 -4.320656 1.884611 -1.416027 2.762539
2 0.000000 0.000000 -0.000001 -1.570795 -1.570796 0.000000
3 18.064426 1.612355 0.000937 -0.059250 0.029036 -0.034659
4 18.778193 -0.019789 0.000011 -0.001190 0.025908 0.107342
5 30.402811 -4.923500 -0.000001 -0.000000 -0.000001 0.253945
6 -6.612856 3.418252 9.388214 0.540193 -1.401023 2.352942
7 15.294985 -0.000000 0.000008 0.126133 0.783518 -0.532844
8 31.848372 0.000000 -0.000006 0.000000 -0.000000 -1.839266
9 25.199862 -0.000005 0.000005 -1.679551 -0.084585 -0.086419
10 4.981277 5.314322 -5.471680 1.725575 0.733419 0.506503
11 7.043932 -0.000008 0.000003 -0.000000 -0.000000 0.708841
12 15.014609 -0.003017 -1.047775 0.056571 0.077760 0.659743
13 7.827642 -0.000005 0.000009 0.000000 -0.000000 0.438147
14 12.673381 2.128983 4.586263 1.579381 -0.410632 -0.089723
15 -6.612856 3.418303 -9.388223 1.038530 1.392738 -2.365213
16 15.294988 -0.000000 0.000013 0.552376 -0.951476 -1.496145
17 31.848370 0.000001 -0.000002 0.000000 -0.000000 -1.650733
18 25.199875 0.000005 -0.000004 0.885191 -0.249554 -0.172850
19 4.981273 5.314335 5.471677 -2.030175 -0.709233 0.733252
20 7.043933 -0.000000 -0.000004 0.000000 -0.000000 0.708841
21 15.014613 -0.003019 1.047789 -0.087002 -0.040874 1.162533
22 7.827636 -0.000013 0.000001 -0.000000 -0.000000 0.818954
23 6.497875 0.000003 -0.000000 0.378407 -0.076074 -0.072687
24 -18.490337 -3.256468 16.529861 3.133741 -0.268414 2.920173
25 44.544312 -0.000002 -0.000002 0.000000 -0.000000 -0.582972
26 36.285271 0.000001 -0.000004 -0.122551 -0.226068 0.244941
27 13.798656 17.869469 -0.000001 -0.001243 0.006151 1.581146
28 -17.489838 -1.145687 -17.849068 -2.411929 0.128771 -2.939691
29 44.544312 -0.000000 0.000004 0.000000 -0.000000 -0.348338
30 36.285275 0.000002 0.000004 -0.134242 0.172642 0.305300
31 13.798658 17.869465 0.000001 0.000126 0.000146 1.572211
32 9.473438 1.433091 22.460857 1.833476 -0.624166 2.859741
33 23.080149 -0.000005 0.000012 0.011533 -0.052184 0.043659
34 9.473488 1.432966 -22.461212 1.806506 0.323986 -2.779372
35 23.080164 -0.000003 0.000003 -0.001615 0.104364 -0.051429
36 9.771006 22.181156 -0.000036 -2.987034 0.091396 2.898124
37 23.541595 0.000004 0.000003 -0.055298 -0.056045 0.010601
38 6.820166 -16.874149 0.000057 -2.964571 -0.183770 -2.758815
39 19.889784 0.000000 -0.000000 0.074894 0.081832 -0.013928
time 12
0 0.000000 0.000000 0.000000 1.570796 -0.000000 0.000000
1 0.785715 92.384361 -5.154342 2.572028 -1.485574 2.090155
2 0.000000 0.000000 0.000002 -1.570795 -1.570796 0.000000
3 18.064417 1.612353 0.000902 -0.058798 0.029036 -0.034659
4 18.778261 -0.019776 -0.000390 0.019335 0.005857 0.111361
5 30.402637 -4.923542 -0.000000 0.000000 -0.000001 0.220032
6 -6.717777 3.206785 9.388212 0.540194 -1.401023 2.385863
7 15.294982 0.000001 0.000013 0.009897 0.780654 -0.724715
8 31.848360 -0.000002 -0.000002 0.000000 -0.000000 -1.758522
9 25.199862 -0.000010 0.000004 -1.584452 0.168020 -0.385112
10 4.981271 5.314328 -5.471676 1.725575 0.733419 0.506504
11 7.043924 0.000001 0.000007 -0.000000 -0.000000 0.708841
12 15.014607 -0.003027 -1.047791 0.077245 0.057298 0.963621
13 7.827637 -0.000006 -0.000010 0.000000 -0.000000 0.344820
14 12.673377 2.128984 4.586257 1.579381 -0.410632 -0.089723
15 -6.717769 3.206836 -9.388221 1.038531 1.392738 -2.332891
16 15.294984 -0.000002 -0.000014 0.605217 -0.958232 -1.545511
17 31.848373 0.000000 0.000002 0.000000 -0.000000 -1.640727
18 25.199856 -0.000002 0.000006 1.215757 0.008467 0.051188
19 4.981272 5.314326 5.471683 -2.030175 -0.709233 0.733253
20 7.043933 -0.000000 0.000002 0.000000 -0.000000 0.708841
21 15.014611 -0.003020 1.047793 -0.081415 -0.051414 1.038568
22 7.827640 0.000000 -0.000003 0.000000 -0.000000 0.621321
23 6.497873 0.000002 0.000000 0.557293 -0.080727 -0.033411
24 -18.490305 -3.218700 16.537325 -3.115627 -0.247519 2.898033
25 44.544296 -0.000006 0.000002 0.000000 -0.000000 -0.519216
26 36.285263 -0.000001 0.000005 -0.052111 -0.227225 0.159683
27 13.798658 17.869467 0.000000 -0.001713 0.005621 1.583572
28 -17.489864 -1.186454 -17.846340 -2.407237 0.104366 -2.914341
29 44.544300 0.000002 -0.000007 0.000000 -0.000000 -0.334419
30 36.285259 0.000004 0.000004 -0.030443 0.161110 0.330237
31 13.798655 17.869469 -0.000004 0.000241 0.000278 1.573182
32 9.473439 1.433091 22.460854 1.888568 -0.604656 2.807338
33 23.080149 -0.000004 0.000013 0.057331 -0.101218 0.028976
34 9.473492 1.432966 -22.461210 1.839440 0.314864 -2.739370
35 23.080158 -0.000002 0.000004 0.070583 0.186958 -0.035183
36 9.771006 22.181158 -0.000037 -2.964512 0.136765 2.896716
37 23.541594 0.000003 0.000004 -0.023882 -0.125642 -0.012144
38 6.820167 -16.874149 0.000058 -2.936759 -0.207314 -2.754182
39 19.889782 -0.000001 -0.000001 0.105079 0.137386 0.003078
time 13
0 0.000000 0.000000 0.000000 1.570796 -0.000000 0.000000
1 0.102635 92.510811 -5.886837 -2.796262 -1.496873 1.185581
2 0.000000 0.000000 -0.000001 -1.570795 -1.570796 0.000000
3 18.064405 1.612344 0.000741 -0.048133 0.029027 -0.034659
4 18.778284 -0.019765 -0.000711 0.035951 -0.007642 0.111138
5 30.402472 -4.923583 -0.000000 0.000000 -0.000001 0.182958
6 -6.837914 2.941532 9.388212 0.540195 -1.401022 2.423989
7 15.294981 -0.000000 0.000007 -0.051301 0.750253 -0.818860
8 31.848358 0.000000 0.000002 0.000000 -0.000000 -1.740058
9 25.199852 -0.000003 -0.000014 -1.602120 0.333775 -0.422546
10 4.981267 5.314326 -5.471667 1.725575 0.733419 0.506503
11 7.043925 0.000002 -0.000007 -0.000000 -0.000000 0.708841
12 15.014604 -0.003020 -1.047786 0.081426 0.051366 1.039085
13 7.827653 -0.000001 -0.000004 0.000000 0.000000 0.323973
14 12.673376 2.128983 4.586257 1.579381 -0.410632 -0.089723
15 -6.837915 2.941583 -9.388223 1.038531 1.392738 -2.294104
16 15.294987 0.000000 0.000008 0.647303 -0.981524 -1.595813
17 31.848368 0.000001 0.000002 0.000000 -0.000000 -1.599801
18 25.199856 0.000009 0.000007 1.323954 0.197076 0.028560
19 4.981271 5.314332 5.471671 -2.030175 -0.709232 0.733253
20 7.043926 -0.000003 0.000007 0.000000 -0.000000 0.708841
21 15.014604 -0.003014 1.047784 -0.079972 -0.053605 1.011368
22 7.827644 0.000015 -0.000017 0.000000 0.000000 0.654558
23 6.497880 0.000000 0.000000 0.601296 -0.067247 0.007782
24 -18.490160 -3.039826 16.571463 -3.080006 -0.230179 2.886522
25 44.544304 -0.000002 -0.000001 0.000000 -0.000000 -0.456458
26 36.285278 0.000002 0.000004 -0.006879 -0.228216 0.087128
27 13.798658 17.869471 0.000002 -0.002263 0.005003 1.586151
28 -17.490005 -1.379213 -17.832169 -2.394732 0.078627 -2.897017
29 44.544327 -0.000002 0.000004 0.000000 -0.000000 -0.318773
30 36.285271 -0.000006 0.000004 0.041793 0.148095 0.341728
31 13.798661 17.869467 -0.000005 0.000360 0.000414 1.574187
32 9.473434 1.433090 22.460854 1.890866 -0.603251 2.805277
33 23.080147 -0.000004 0.000014 0.089868 -0.136450 0.018391
34 9.473494 1.432967 -22.461208 1.836034 0.315834 -2.743390
35 23.080164 -0.000000 0.000002 0.115710 0.238466 -0.025120
36 9.771008 22.181154 -0.000036 -2.964256 0.137898 2.896761
37 23.541597 0.000004 0.000001 -0.006466 -0.164969 -0.024753
38 6.820168 -16.874147 0.000058 -2.935912 -0.207652 -2.753886
39 19.889784 -0.000003 -0.000000 0.124909 0.173865 0.014259
time 14
0 0.000000 0.000000 0.000000 1.570796 -0.000000 0.000000
1 -0.444322 92.623741 -6.414507 -2.479487 -1.481141 0.869834
2 0.000000 0.000000 -0.000002 -1.570795 -1.570796 0.000000
3 18.064394 1.612330 0.000279 -0.021034 0.029005 -0.034658
4 18.778164 -0.019771 -0.000915 0.045677 -0.012112 0.105893
5 30.402243 -4.923609 -0.000000 0.000000 -0.000000 0.153890
6 -6.935974 2.701698 9.388209 0.540194 -1.401022 2.458562
7 15.294987 0.000000 -0.000003 -0.088338 0.720329 -0.881858
8 31.848375 -0.000006 -0.000004 0.000000 -0.000000 -1.745445
9 25.199865 -0.000002 0.000007 -1.638006 0.474022 -0.384477
10 4.981275 5.314309 -5.471684 1.725575 0.733420 0.506503
11 7.043931 0.000007 -0.000015 -0.000000 -0.000000 0.708841
12 15.014609 -0.003026 -1.047785 0.081497 0.051256 1.040438
13 7.827641 0.000002 -0.000006 0.000000 -0.000000 0.323370
14 12.673380 2.128983 4.586264 1.579381 -0.410632 -0.089723
15 -6.935965 2.701747 -9.388222 1.038532 1.392738 -2.259407
16 15.294985 0.000002 -0.000003 0.679880 -1.012277 -1.632721
17 31.848385 -0.000004 0.000005 0.000000 -0.000000 -1.548334
18 25.199865 -0.000003 -0.000002 1.331046 0.378793 -0.085339
19 4.981284 5.314323 5.471684 -2.030175 -0.709233 0.733253
20 7.043925 0.000000 0.000004 0.000000 -0.000000 0.708841
21 15.014613 -0.003017 1.047785 -0.079948 -0.053640 1.010913
22 7.827640 0.000002 0.000001 -0.000000 0.000000 0.752928
23 6.497884 0.000003 0.000000 0.572939 -0.049500 0.052096
24 -18.489744 -2.526131 16.658421 -3.034666 -0.221447 2.879941
25 44.544327 -0.000001 -0.000005 0.000000 -0.000000 -0.413099
26 36.285275 0.000001 0.000006 0.007287 -0.231833 0.045847
27 13.798658 17.869459 -0.000004 -0.002621 0.004603 1.587727
28 -17.490456 -1.929735 -17.780125 -2.363461 0.052444 -2.890893
29 44.544312 -0.000000 0.000001 0.000000 -0.000000 -0.302481
30 36.285267 0.000002 0.000003 0.070012 0.137974 0.339758
31 13.798657 17.869465 0.000002 0.000467 0.000537 1.575096
32 9.473434 1.433090 22.460855 1.837638 -0.618413 2.856682
33 23.080147 -0.000003 0.000013 0.091362 -0.130830 0.016586
34 9.473488 1.432966 -22.461210 1.807322 0.323868 -2.777950
35 23.080164 0.000001 0.000002 0.111129 0.234911 -0.024605
36 9.771007 22.181158 -0.000036 -2.987373 0.094697 2.898535
37 23.541595 0.000002 0.000002 -0.000001 -0.169144 -0.029432
38 6.820163 -16.874149 0.000058 -2.960970 -0.184414 -2.757235
39 19.889784 -0.000002 -0.000001 0.121715 0.170006 0.011703
time 15
0 0.000000 0.000000 0.000000 1.570796 -0.000000 0.000000
1 -0.766826 92.708374 -6.634609 -2.434199 -1.478339 0.823323
2 0.000000 0.000000 -0.000001 -1.570795 -1.570796 0.000000
3 18.064394 1.612328 0.000027 -0.000700 0.028989 -0.034658
4 18.778070 -0.019776 -0.000981 0.049323 -0.011921 0.101481
5 30.402205 -4.923618 0.000000 -0.000000 -0.000000 0.134359
6 -6.971767 2.607762 9.388210 0.540195 -1.401022 2.471980
7 15.294989 -0.000002 0.000016 -0.127410 0.694375 -0.926201
8 31.848373 -0.000006 -0.000003 0.000000 -0.000000 -1.750313
9 25.199869 -0.000003 0.000011 -1.666626 0.597576 -0.353491
10 4.981277 5.314324 -5.471673 1.725575 0.733419 0.506503
11 7.043932 0.000010 0.000004 -0.000000 -0.000000 0.708841
12 15.014616 -0.003023 -1.047775 0.081499 0.051252 1.040486
13 7.827643 0.000003 0.000004 -0.000000 0.000000 0.322838
14 12.673381 2.128983 4.586262 1.579381 -0.410632 -0.089723
15 -6.971759 2.607813 -9.388227 1.038532 1.392739 -2.245657
16 15.294986 0.000002 0.000022 0.704701 -1.037366 -1.671879
17 31.848366 0.000001 0.000003 0.000000 -0.000000 -1.502107
18 25.199862 -0.000002 -0.000003 1.319811 0.540056 -0.192906
19 4.981278 5.314327 5.471685 -2.030176 -0.709233 0.733252
20 7.043924 0.000002 0.000008 0.000000 -0.000000 0.708841
21 15.014618 -0.003023 1.047795 -0.079947 -0.053642 1.010898
22 7.827642 0.000004 0.000002 0.000000 -0.000000 0.840017
23 6.497870 -0.000002 0.000000 0.553343 -0.042409 0.078717
24 -18.489532 -2.245614 16.699049 -3.010364 -0.220365 2.879856
25 44.544312 -0.000002 -0.000001 0.000000 -0.000000 -0.390881
26 36.285263 0.000001 0.000001 0.007571 -0.235579 0.027596
27 13.798657 17.869461 0.000001 -0.002834 0.004365 1.588644
28 -17.490707 -2.228482 -17.744671 -2.346425 0.037941 -2.889112
29 44.544296 0.000001 -0.000001 0.000000 -0.000000 -0.289549
30 36.285271 -0.000002 0.000000 0.073647 0.133465 0.334849
31 13.798662 17.869465 -0.000002 0.000466 0.000536 1.575079
32 9.473437 1.433090 22.460855 1.750873 -0.643147 2.940474
33 23.080149 -0.000001 0.000014 0.074836 -0.066552 0.016199
34 9.473495 1.432967 -22.461210 1.751620 0.339465 -2.844993
35 23.080168 -0.000003 0.000003 0.029682 0.152461 -0.033103
36 9.771004 22.181158 -0.000036 -3.022925 0.028263 2.901257
37 23.541603 0.000004 0.000002 -0.000001 -0.105728 -0.029432
38 6.820164 -16.874149 0.000058 -2.996742 -0.151232 -2.762011
39 19.889780 -0.000001 -0.000001 0.081434 0.109600 -0.016136
time 16
0 0.000000 0.000000 0.000000 1.570796 -0.000000 0.000000
1 -0.890979 92.771957 -6.562923 -2.481945 -1.481709 0.871539
2 0.000000 0.000000 -0.000002 -1.570795 -1.570796 0.000000
3 18.064404 1.612329 0.000208 -0.016452 0.029002 -0.034658
4 18.778187 -0.019766 -0.000951 0.047654 -0.012777 0.107533
5 30.402233 -4.923613 0.000000 0.000000 -0.000000 0.144560
6 -6.945472 2.677113 9.388212 0.540194 -1.401023 2.461220
7 15.294989 0.000000 -0.000017 -0.129774 0.691493 -0.914805
8 31.848370 -0.000001 0.000007 0.000000 -0.000000 -1.750499
9 25.199862 0.000003 -0.000008 -1.661577 0.575364 -0.358981
10 4.981275 5.314326 -5.471673 1.725575 0.733419 0.506503
11 7.043932 -0.000004 0.000009 -0.000000 -0.000000 0.708841
12 15.014613 -0.003026 -1.047797 0.081464 0.051307 1.039810
13 7.827640 -0.000007 0.000004 0.000000 -0.000000 0.322645
14 12.673380 2.128984 4.586256 1.579381 -0.410632 -0.089723
15 -6.945476 2.677166 -9.388226 1.038531 1.392739 -2.255861
16 15.294983 0.000001 0.000002 0.703518 -1.032856 -1.684267
17 31.848375 -0.000001 0.000003 0.000000 -0.000000 -1.512729
18 25.199867 -0.000007 -0.000006 1.321295 0.521475 -0.180630
19 4.981267 5.314330 5.471670 -2.030175 -0.709233 0.733253
20 7.043938 0.000001 -0.000006 0.000000 -0.000000 0.708841
21 15.014614 -0.003022 1.047795 -0.079959 -0.053624 1.011124
22 7.827642 -0.000003 0.000006 0.000000 -0.000000 0.833912
23 6.497869 0.000003 0.000000 0.571942 -0.053799 0.080511
24 -18.489687 -2.446480 16.670443 -3.029934 -0.226916 2.890477
25 44.544308 -0.000002 -0.000002 0.000000 -0.000000 -0.382618
26 36.285267 0.000001 0.000001 0.007691 -0.236785 0.025177
27 13.798659 17.869463 -0.000002 -0.002826 0.004374 1.588570
28 -17.490532 -2.014698 -17.770557 -2.357857 0.038133 -2.886369
29 44.544308 0.000001 -0.000001 0.000000 -0.000000 -0.279779
30 36.285271 0.000000 -0.000002 0.068517 0.132519 0.329270
31 13.798660 17.869467 -0.000001 0.000454 0.000523 1.574973
32 9.473435 1.433090 22.460859 1.654624 -0.670547 3.033426
33 23.080149 -0.000008 0.000013 0.053528 0.015963 0.015979
34 9.473492 1.432967 -22.461212 1.690904 0.356443 -2.918070
35 23.080162 -0.000001 0.000004 -0.091293 0.029954 -0.045639
36 9.771007 22.181158 -0.000036 -3.062787 -0.046225 2.904323
37 23.541595 0.000004 0.000002 -0.000001 -0.027521 -0.029432
38 6.820169 -16.874149 0.000058 -3.038444 -0.112553 -2.767587
39 19.889782 -0.000000 -0.000001 0.028980 0.030817 -0.052344
time 17
0 0.000000 0.000000 0.000000 1.570796 -0.000000 0.000000
1 -0.897945 92.828262 -6.292928 -2.661526 -1.491314 1.050912
2 0.000000 0.000000 -0.000002 -1.570795 -1.570796 0.000000
3 18.064402 1.612336 0.000543 -0.035698 0.029017 -0.034659
4 18.778315 -0.019755 -0.000849 0.042784 -0.011891 0.113966
5 30.402365 -4.923595 0.000000 0.000000 -0.000000 0.168812
6 -6.883551 2.832819 9.388213 0.540194 -1.401022 2.439525
7 15.294989 -0.000001 0.000008 -0.091003 0.718446 -0.863764
8 31.848383 -0.000001 0.000007 0.000000 -0.000000 -1.746310
9 25.199877 0.000002 0.000001 -1.633934 0.457283 -0.388834
10 4.981276 5.314331 -5.471676 1.725575 0.733419 0.506503
11 7.043937 -0.000005 0.000020 -0.000000 -0.000000 0.708841
12 15.014616 -0.003017 -1.047792 0.081421 0.051375 1.038980
13 7.827646 -0.000005 0.000001 0.000000 0.000000 0.322979
14 12.673383 2.128983 4.586254 1.579381 -0.410632 -0.089723
15 -6.883549 2.832870 -9.388225 1.038531 1.392738 -2.278152
16 15.294992 -0.000000 -0.000002 0.674369 -1.001942 -1.640681
17 31.848391 -0.000003 -0.000004 0.000000 -0.000000 -1.558626
18 25.199879 -0.000002 0.000003 1.331898 0.361593 -0.073776
19 4.981284 5.314323 5.471681 -2.030175 -0.709233 0.733252
20 7.043944 0.000001 -0.000014 0.000000 -0.000000 0.708841
21 15.014627 -0.003017 1.047786 -0.079973 -0.053601 1.011402
22 7.827643 -0.000003 -0.000006 -0.000000 -0.000000 0.739900
23 6.497884 -0.000005 0.000000 0.593866 -0.073491 0.073886
24 -18.489992 -2.819496 16.610760 -3.067097 -0.237368 2.905313
25 44.544308 -0.000005 -0.000006 0.000000 -0.000000 -0.385733
26 36.285275 -0.000001 0.000003 0.005299 -0.237130 0.034940
27 13.798658 17.869469 0.000001 -0.002730 0.004482 1.588121
28 -17.490219 -1.615890 -17.811897 -2.379931 0.045193 -2.883655
29 44.544304 0.000000 0.000000 0.000000 -0.000000 -0.269817
30 36.285263 -0.000002 -0.000005 0.052190 0.134957 0.321943
31 13.798656 17.869465 -0.000001 0.000425 0.000489 1.574695
32 9.473432 1.433091 22.460855 1.574712 -0.693255 3.110602
33 23.080154 -0.000006 0.000013 0.028236 0.114115 0.015866
34 9.473493 1.432967 -22.461210 1.638559 0.371064 -2.981069
35 23.080168 0.000002 0.000003 -0.218890 -0.099271 -0.058816
36 9.771004 22.181160 -0.000036 -3.097406 -0.110912 2.906999
37 23.541594 0.000005 0.000001 -0.000001 0.063869 -0.029432
38 6.820168 -16.874151 0.000058 -3.074778 -0.078854 -2.772451
39 19.889782 -0.000001 -0.000000 -0.031857 -0.060533 -0.094350
time 18
0 0.000000 0.000000 0.000000 1.570796 -0.000000 0.000000
1 -0.814696 92.878906 -5.870444 -3.056986 -1.500761 1.443849
2 0.000000 0.000000 0.000000 -1.570795 -1.570796 0.000000
3 18.064419 1.612348 0.000819 -0.052473 0.029031 -0.034659
4 18.778345 -0.019760 -0.000647 0.032482 -0.005727 0.114661
5 30.402514 -4.923570 0.000000 0.000000 -0.000001 0.196552
6 -6.799454 3.029498 9.388214 0.540252 -1.401013 2.410915
7 15.294990 0.000001 -0.000005 -0.043946 0.756242 -0.805065
8 31.848383 0.000003 -0.000004 0.000000 -0.000000 -1.738814
9 25.199873 -0.000001 0.000011 -1.593103 0.300896 -0.432013
10 4.981273 5.314321 -5.471670 1.725575 0.733420 0.506503
11 7.043933 -0.000003 0.000007 -0.000000 -0.000000 0.708841
12 15.014612 -0.003022 -1.047786 0.081399 0.051408 1.038566
13 7.827648 0.000005 0.000007 0.000000 -0.000000 0.324029
14 12.673384 2.128984 4.586244 1.579381 -0.410632 -0.089723
15 -6.799476 3.029550 -9.388222 1.038531 1.392738 -2.306898
16 15.294994 0.000001 -0.000001 0.639037 -0.972489 -1.587312
17 31.848372 -0.000004 -0.000007 0.000000 -0.000000 -1.611935
18 25.199883 0.000001 0.000002 1.319361 0.153695 0.055246
19 4.981285 5.314329 5.471673 -2.030175 -0.709233 0.733252
20 7.043934 0.000003 0.000002 0.000000 -0.000000 0.708841
21 15.014626 -0.003018 1.047785 -0.079981 -0.053590 1.011541
22 7.827644 -0.000012 0.000007 -0.000000 0.000000 0.632596
23 6.497878 -0.000002 0.000000 0.603768 -0.095520 0.064792
24 -18.490232 -3.126530 16.555164 -3.107381 -0.250394 2.921043
25 44.544312 -0.000009 0.000005 0.000000 -0.000000 -0.400482
26 36.285275 0.000002 -0.000006 -0.003971 -0.237817 0.058871
27 13.798658 17.869467 -0.000005 -0.002574 0.004656 1.587415
28 -17.489948 -1.285846 -17.839298 -2.398012 0.052968 -2.882287
29 44.544315 -0.000000 0.000002 0.000000 -0.000000 -0.258596
30 36.285267 0.000004 -0.000003 0.021578 0.139836 0.310816
31 13.798659 17.869465 0.000001 0.000298 0.000343 1.573533
32 9.473439 1.433091 22.460855 1.529414 -0.706134 -3.128836
33 23.080156 -0.000003 0.000014 0.007563 0.194855 0.015794
34 9.473492 1.432966 -22.461210 1.610881 0.378792 -3.014380
35 23.080166 0.000001 0.000004 -0.323700 -0.205415 -0.069581
36 9.771003 22.181158 -0.000036 -3.115579 -0.144866 2.908405
37 23.541594 0.000003 0.000002 -0.000001 0.148286 -0.029432
38 6.820168 -16.874149 0.000058 -3.092787 -0.062151 -2.774863
39 19.889780 0.000000 -0.000001 -0.082298 -0.136308 -0.129223
time 19
0 0.000000 0.000000 0.000000 1.570796 -0.000000 0.000000
1 -0.668512 92.925606 -5.341587 2.606857 -1.497111 2.057650
2 0.000000 0.000000 0.000003 -1.570795 -1.570796 0.000000
3 18.064426 1.612354 0.000909 -0.060646 0.029037 -0.034659
4 18.778080 -0.019796 -0.000324 0.016364 0.007997 0.102095
5 30.402666 -4.923537 0.000000 0.000000 -0.000001 0.223912
6 -6.710151 3.222800 9.388213 0.496786 -1.408539 2.425108
7 15.294983 -0.000002 -0.000007 0.005010 0.820981 -0.724790
8 31.848370 -0.000005 -0.000005 0.000000 -0.000000 -1.629672
9 25.199856 -0.000017 0.000008 -1.508416 0.228211 -0.385721
10 4.981273 5.314325 -5.471673 1.725575 0.733419 0.506503
11 7.043928 -0.000000 -0.000002 -0.000000 -0.000000 0.708841
12 15.014610 -0.003025 -1.047791 0.083004 0.048616 1.071993
13 7.827634 -0.000008 -0.000000 0.000000 -0.000000 0.408495
14 12.673381 2.128983 4.586244 1.579381 -0.410632 -0.089723
15 -6.710152 3.222854 -9.388225 1.038530 1.392738 -2.335431
16 15.294989 0.000003 -0.000008 0.597404 -1.004538 -1.473573
17 31.848389 -0.000001 -0.000004 0.000000 -0.000000 -1.647627
18 25.199884 -0.000002 -0.000010 1.264063 0.045414 0.058220
19 4.981277 5.314322 5.471674 -2.030175 -0.709233 0.733252
20 7.043927 0.000003 0.000009 0.000000 -0.000000 0.708841
21 15.014626 -0.003037 1.047792 -0.075921 -0.059207 0.939550
22 7.827644 0.000001 0.000006 0.000000 -0.000000 0.652396
23 6.497869 -0.000001 -0.000000 0.594306 -0.110638 0.056801
24 -18.490313 -3.225388 16.536013 -3.139673 -0.265025 2.936044
25 44.544312 -0.000000 0.000002 0.000000 -0.000000 -0.425795
26 36.285267 -0.000000 0.000004 -0.023530 -0.239372 0.095622
27 13.798659 17.869463 -0.000000 -0.002283 0.004980 1.586146
28 -17.489870 -1.179239 -17.846832 -2.404026 0.058497 -2.883384
29 44.544315 0.000001 0.000004 0.000000 -0.000000 -0.244918
30 36.285278 -0.000001 -0.000002 -0.022947 0.146244 0.294136
31 13.798662 17.869465 -0.000003 0.000225 0.000259 1.572864
32 9.473438 1.433090 22.460855 1.527105 -0.706790 -3.126606
33 23.080151 -0.000007 0.000014 0.000105 0.223231 0.015792
34 9.473498 1.432967 -22.461210 1.609376 0.379212 -3.016192
35 23.080168 -0.000001 0.000003 -0.359987 -0.243479 -0.073109
36 9.771007 22.181156 -0.000036 -3.116473 -0.146536 2.908474
37 23.541601 0.000004 0.000002 -0.000001 0.174606 -0.029432
38 6.820173 -16.874149 0.000058 -3.094507 -0.060555 -2.775093
39 19.889786 -0.000000 -0.000001 -0.103006 -0.167350 -0.142775
time 20
0 0.000000 0.000000 0.000000 1.570796 -0.000000 0.000000
1 -0.486661 92.970093 -4.752441 2.116483 -1.461940 2.540195
2 0.000000 0.000000 0.000003 -1.570795 -1.570796 0.000000
3 18.064432 1.612355 0.000925 -0.060583 0.029037 -0.034659
4 18.777702 -0.019835 0.000084 -0.004467 0.026199 0.081843
5 30.402765 -4.923508 0.000000 0.000000 -0.000001 0.248642
6 -6.631164 3.382543 9.388214 0.323826 -1.431108 2.571351
7 15.294985 0.000001 -0.000007 0.092255 0.927553 -0.572344
8 31.848368 -0.000002 -0.000010 0.000000 -0.000000 -1.294013
9 25.199867 -0.000004 0.000014 -1.363973 0.207859 -0.200027
10 4.981276 5.314328 -5.471675 1.725575 0.733419 0.506503
11 7.043930 0.000000 0.000001 -0.000000 -0.000000 0.708841
12 15.014610 -0.003026 -1.047794 0.086213 0.042832 1.140682
13 7.827642 -0.000002 -0.000000 -0.000000 0.000000 0.651461
14 12.673380 2.128984 4.586256 1.579381 -0.410632 -0.089723
15 -6.631155 3.382597 -9.388225 1.038530 1.392738 -2.359505
16 15.294985 -0.000001 -0.000003 0.470330 -1.122492 -1.139579
17 31.848368 0.000001 -0.000005 0.000000 -0.000000 -1.618140
18 25.199860 -0.000004 0.000001 1.194294 0.005983 -0.085512
19 4.981275 5.314321 5.471681 -2.030175 -0.709233 0.733253
20 7.043931 -0.000001 0.000001 0.000000 -0.000000 0.708841
21 15.014609 -0.003025 1.047789 -0.065698 -0.070350 0.782184
22 7.827641 -0.000003 0.000007 0.000000 0.000000 0.807324
23 6.497867 0.000000 0.000000 0.564148 -0.109011 0.037469
24 -18.490326 -3.244097 16.532318 3.112886 -0.280427 2.955050
25 44.544312 -0.000010 0.000002 0.000000 -0.000000 -0.452845
26 36.285267 0.000003 -0.000002 -0.050580 -0.241184 0.137839
27 13.798657 17.869467 -0.000002 -0.002008 0.005290 1.584907
28 -17.489851 -1.159043 -17.848190 -2.405441 0.063640 -2.886811
29 44.544308 0.000001 -0.000001 0.000000 -0.000000 -0.230277
30 36.285271 0.000001 -0.000001 -0.078578 0.153006 0.272516
31 13.798658 17.869465 0.000001 0.000177 0.000205 1.572428
32 9.473438 1.433091 22.460854 1.526960 -0.706832 -3.126466
33 23.080149 -0.000008 0.000014 -0.000167 0.183463 0.015792
34 9.473491 1.432967 -22.461208 1.609312 0.379230 -3.016268
35 23.080168 0.000002 0.000004 -0.302107 -0.204345 -0.063955
36 9.771004 22.181158 -0.000036 -3.116557 -0.146694 2.908480
37 23.541590 0.000005 0.000002 -0.000001 0.144406 -0.029432
38 6.820167 -16.874149 0.000058 -3.094507 -0.060555 -2.775093
39 19.889786 0.000004 -0.000001 -0.085772 -0.139327 -0.098760
time 21
0 0.000000 0.000000 0.000000 1.570796 -0.000000 0.000000
1 -0.296432 93.014038 -4.149137 1.879835 -1.408736 2.767836
2 0.000000 0.000000 -0.000001 -1.570795 -1.570796 0.000000
3 18.064423 1.612352 0.000904 -0.059612 0.029036 -0.034659
4 18.777225 -0.019860 0.000549 -0.027523 0.045794 0.058303
5 30.402895 -4.923476 0.000001 0.000000 -0.000001 0.272429
6 -6.548823 3.539518 9.388216 0.038061 -1.450426 2.830651
7 15.294990 -0.000001 -0.000010 0.270971 1.035460 -0.323570
8 31.848385 -0.000001 0.000008 0.000000 -0.000000 -0.960968
9 25.199871 -0.000004 0.000005 -1.342505 0.176848 -0.053427
10 4.981278 5.314324 -5.471676 1.725575 0.733419 0.506503
11 7.043933 -0.000000 0.000002 -0.000000 -0.000000 0.708841
12 15.014623 -0.003022 -1.047793 0.089834 0.034651 1.233489
13 7.827647 0.000000 0.000001 -0.000000 0.000000 0.949349
14 12.673383 2.128983 4.586250 1.579381 -0.410632 -0.089723
15 -6.548827 3.539573 -9.388224 1.038530 1.392739 -2.383249
16 15.294988 0.000001 0.000008 0.143984 -1.214751 -0.571373
17 31.848370 -0.000002 -0.000000 0.000000 -0.000000 -1.439218
18 25.199867 0.000000 -0.000003 1.259954 -0.008518 -0.173888
19 4.981277 5.314323 5.471687 -2.030175 -0.709233 0.733252
20 7.043933 0.000002 0.000007 0.000000 -0.000000 0.708841
21 15.014619 -0.003031 1.047799 -0.065024 -0.071005 0.772456
22 7.827644 0.000001 -0.000002 0.000000 -0.000000 1.034936
23 6.497888 0.000001 -0.000000 0.506343 -0.086210 -0.006259
24 -18.490309 -3.220215 16.537029 3.082698 -0.295522 2.976462
25 44.544304 -0.000005 0.000003 0.000000 -0.000000 -0.478923
26 36.285263 0.000000 0.000001 -0.083754 -0.242966 0.182267
27 13.798657 17.869463 -0.000001 -0.001712 0.005622 1.583566
28 -17.489878 -1.184819 -17.846455 -2.404286 0.067981 -2.892339
29 44.544312 0.000001 -0.000003 0.000000 -0.000000 -0.214566
30 36.285282 0.000001 -0.000001 -0.140508 0.159569 0.248316
31 13.798662 17.869469 -0.000001 0.000115 0.000134 1.571865
32 9.473437 1.433091 22.460855 1.527008 -0.706818 -3.126513
33 23.080151 -0.000009 0.000013 0.000001 0.112297 0.015792
34 9.473489 1.432966 -22.461212 1.609354 0.379218 -3.016218
35 23.080166 -0.000002 0.000004 -0.177347 -0.119949 -0.044087
36 9.771004 22.181158 -0.000036 -3.116546 -0.146673 2.908479
37 23.541594 0.000003 0.000002 -0.000001 0.094147 -0.029432
38 6.820166 -16.874149 0.000058 -3.094507 -0.060555 -2.775093
39 19.889784 0.000002 0.000000 -0.051123 -0.082999 -0.009020
time 22
0 0.000000 0.000000 0.000000 1.570796 -0.000000 0.000000
1 -0.125115 93.059181 -3.577798 1.751874 -1.349710 2.886429
2 -0.000000 0.000000 0.000003 -1.570795 -1.570796 0.000000
3 18.064415 1.612352 0.000873 -0.057691 0.029035 -0.034659
4 18.776770 -0.019861 0.001038 -0.051756 0.065136 0.033324
5 30.403000 -4.923443 0.000001 -0.000000 -0.000001 0.296535
6 -6.461534 3.696712 9.388214 -0.351277 -1.457701 -3.089710
7 15.294983 -0.000000 0.000019 0.569745 1.113157 0.044764
8 31.848373 -0.000004 -0.000004 0.000000 -0.000000 -0.687304
9 25.199863 -0.000004 0.000000 -1.568859 0.159418 -0.017173
10 4.981275 5.314331 -5.471675 1.725575 0.733419 0.506503
11 7.043935 0.000001 0.000002 -0.000000 -0.000000 0.708841
12 15.014621 -0.003015 -1.047782 0.092763 0.024781 1.340382
13 7.827651 -0.000000 -0.000002 0.000000 -0.000000 1.289638
14 12.673380 2.128984 4.586257 1.579381 -0.410632 -0.089723
15 -6.461535 3.696760 -9.388221 1.038530 1.392739 -2.407368
16 15.294988 0.000000 -0.000008 -0.336565 -1.194251 0.189080
17 31.848387 -0.000001 0.000005 0.000000 -0.000000 -0.967360
18 25.199869 -0.000013 -0.000009 1.587039 0.007891 -0.106940
19 4.981283 5.314324 5.471672 -2.030176 -0.709233 0.733252
20 7.043934 -0.000003 -0.000003 0.000000 -0.000000 0.708841
21 15.014618 -0.003025 1.047786 -0.085562 -0.044090 1.125985
22 7.827641 0.000007 -0.000000 0.000000 -0.000000 1.292756
23 6.497884 0.000002 0.000000 0.437125 -0.058012 -0.063772
24 -18.490269 -3.183817 16.544140 3.053270 -0.308706 3.001947
25 44.544312 -0.000002 0.000004 0.000000 -0.000000 -0.498750
26 36.285271 0.000005 -0.000003 -0.119771 -0.244302 0.223362
27 13.798659 17.869469 -0.000003 -0.001625 0.005720 1.583129
28 -17.489897 -1.224089 -17.843742 -2.402479 0.071576 -2.898779
29 44.544308 -0.000001 0.000001 0.000000 -0.000000 -0.197395
30 36.285267 0.000002 0.000002 -0.204410 0.164499 0.221854
31 13.798660 17.869469 -0.000000 0.000070 0.000081 1.571446
32 9.473441 1.433091 22.460859 1.527127 -0.706784 -3.126628
33 23.080147 -0.000004 0.000013 0.000001 0.043140 0.015792
34 9.473495 1.432967 -22.461214 1.609430 0.379197 -3.016126
35 23.080164 -0.000005 0.000003 -0.073731 -0.049866 -0.027560
36 9.771005 22.181158 -0.000036 -3.116497 -0.146582 2.908475
37 23.541595 0.000003 0.000002 -0.000001 0.040605 -0.029432
38 6.820166 -16.874151 0.000058 -3.094507 -0.060555 -2.775093
39 19.889784 -0.000001 -0.000000 -0.015992 -0.025945 0.081906
time 23
0 0.000000 0.000000 0.000000 1.570796 -0.000000 0.000000
1 0.000000 93.107208 -3.084548 1.680792 -1.291140 2.948548
2 0.000000 0.000000 -0.000002 -1.570795 -1.570796 0.000000
3 18.064421 1.612350 0.000854 -0.055791 0.029033 -0.034659
4 18.776333 -0.019844 0.001514 -0.076369 0.084517 0.007842
5 30.403118 -4.923408 -0.000001 0.000000 -0.000001 0.320624
6 -6.370772 3.851242 9.388212 -0.762471 -1.445166 -2.704493
7 15.294993 0.000002 0.000011 0.962494 1.115415 0.506036
8 31.848379 0.000003 0.000001 0.000000 -0.000000 -0.415640
9 25.199879 -0.000001 0.000003 -1.863088 0.153542 -0.000986
10 4.981268 5.314335 -5.471673 1.725575 0.733419 0.506503
11 7.043935 -0.000005 -0.000003 -0.000000 -0.000000 0.708841
12 15.014625 -0.003015 -1.047788 0.095200 0.014153 1.453530
13 7.827644 0.000004 0.000001 0.000000 -0.000000 1.657047
14 12.673386 2.128983 4.586257 1.579381 -0.410632 -0.089723
15 -6.370773 3.851290 -9.388219 1.038529 1.392738 -2.431479
16 15.294993 -0.000001 -0.000001 -0.615863 -1.064135 0.778395
17 31.848392 0.000004 -0.000010 0.000000 -0.000000 -0.401998
18 25.199877 -0.000004 0.000006 1.991396 -0.000000 -0.000000
19 4.981279 5.314325 5.471673 -2.030176 -0.709233 0.733252
20 7.043941 0.000006 -0.000002 0.000000 -0.000000 0.708841
21 15.014616 -0.003025 1.047790 -0.096232 -0.001483 1.585306
22 7.827650 -0.000005 -0.000002 -0.000000 -0.000000 1.574982
23 6.497871 0.000004 0.000000 0.367144 -0.031347 -0.124830
24 -18.490271 -3.165000 16.547785 3.024773 -0.319318 3.029598
25 44.544315 -0.000002 0.000003 0.000000 -0.000000 -0.511094
26 36.285267 -0.000000 0.000000 -0.157197 -0.245274 0.259357
27 13.798660 17.869467 -0.000003 -0.001454 0.005914 1.582337
28 -17.489912 -1.244380 -17.842300 -2.401640 0.073763 -2.905882
29 44.544312 0.000003 0.000001 0.000000 -0.000000 -0.179905
30 36.285271 -0.000001 0.000001 -0.266693 0.167873 0.194649
31 13.798658 17.869473 -0.000000 -0.000001 -0.000000 1.570797
32 9.473431 1.433090 22.460857 1.527195 -0.706765 -3.126693
33 23.080154 -0.000004 0.000013 0.000001 -0.000000 0.015792
34 9.473490 1.432966 -22.461210 1.609472 0.379185 -3.016076
35 23.080166 0.000000 0.000004 0.000000 -0.000000 -0.015792
36 9.771001 22.181154 -0.000036 -3.116468 -0.146526 2.908473
37 23.541597 0.000004 0.000002 -0.000001 -0.000000 -0.029432
38 6.820168 -16.874149 0.000058 -3.094507 -0.060555 -2.775093
39 19.889788 -0.000001 0.000000 0.000000 -0.000000 0.123273
end
