version 1
nodes
0 "Bip01" -1
1 "Bip01 Footsteps" 0
2 "Bip01 Pelvis" 0
3 "Bip01 Spine" 2
4 "Bip01 Spine1" 3
5 "Bip01 Neck" 4
6 "Bip01 Head" 5
7 "Bip01 HeadNub" 6
8 "Bip01 L Clavicle" 5
9 "Bip01 L UpperArm" 8
10 "Bip01 L Forearm" 9
11 "Bip01 L Hand" 10
12 "Bip01 L Finger0" 11
13 "Bip01 L Finger01" 12
14 "Bip01 L Finger02" 13
15 "Bip01 L Finger0Nub" 14
16 "Bip01 L Finger1" 11
17 "Bip01 L Finger11" 16
18 "Bip01 L Finger12" 17
19 "Bip01 L Finger1Nub" 18
20 "Bip01 L Finger2" 11
21 "Bip01 L Finger21" 20
22 "Bip01 L Finger22" 21
23 "Bip01 L Finger2Nub" 22
24 "Bip01 R Clavicle" 5
25 "Bip01 R UpperArm" 24
26 "Bip01 R Forearm" 25
27 "Bip01 R Hand" 26
28 "Bip01 R Finger0" 27
29 "Bip01 R Finger01" 28
30 "Bip01 R Finger02" 29
31 "Bip01 R Finger0Nub" 30
32 "Bip01 R Finger1" 27
33 "Bip01 R Finger11" 32
34 "Bip01 R Finger12" 33
35 "Bip01 R Finger1Nub" 34
36 "Bip01 R Finger2" 27
37 "Bip01 R Finger21" 36
38 "Bip01 R Finger22" 37
39 "Bip01 R Finger2Nub" 38
40 "Bip01 L Thigh" 3
41 "Bip01 L Calf" 40
42 "Bip01 L Foot" 41
43 "Bip01 L Toe0" 42
44 "Bip01 L Toe0Nub" 43
45 "Bip01 R Thigh" 3
46 "Bip01 R Calf" 45
47 "Bip01 R Foot" 46
48 "Bip01 R Toe0" 47
49 "Bip01 R Toe0Nub" 48
50 "Bone09" 2
51 "Bone10" 50
52 "Bone11" 51
53 "Bone12" 52
54 "Bone05" 2
55 "Bone06" 54
56 "Bone07" 55
57 "Bone08" 56
58 "Bone01" 2
59 "Bone02" 58
60 "Bone03" 59
61 "Bone04" 60
62 "Bone13" 2
63 "Bone14" 62
64 "Bone15" 63
65 "Bone16" 64
end
skeleton
time 0
0 -1.347103 0.996494 35.968327 0.036673 0.000000 -1.852293
1 0.000000 -1.318873 -35.947220 0.010192 0.035229 1.852473
2 0.000000 0.000000 0.000000 -0.000000 -1.601831 -1.570795
3 4.858097 -0.006162 -0.151685 0.139780 -0.062613 -0.012362
4 7.816597 -0.007683 -0.000875 0.113901 0.082103 0.009384
5 9.710861 -0.001965 0.000000 0.000000 -0.000000 0.000000
6 2.467438 0.000000 0.000000 0.029081 -0.037232 -0.058954
7 7.731307 0.000000 -0.000000 0.000000 -0.000000 0.000000
8 -0.763014 0.002567 3.049178 3.140796 -1.570796 0.000000
9 4.276893 -0.000000 0.000002 0.443569 1.221027 0.502738
10 13.216448 0.000000 -0.000001 -0.000000 -0.000000 -0.321642
11 10.099730 0.000000 -0.000001 -2.029651 0.227977 0.160217
12 0.855657 0.776818 -1.992121 1.135635 0.207827 0.479601
13 1.028097 -0.000000 0.000000 -0.000000 0.000000 0.618657
14 1.572822 -0.000000 0.000000 -0.000000 -0.000000 0.361387
15 1.838196 -0.000001 0.000001 0.000000 -0.000000 0.000000
16 3.790161 0.417838 -1.620308 0.037345 0.168725 0.437291
17 1.585165 0.000000 0.000000 -0.000000 0.000000 0.818443
18 1.233720 -0.000000 -0.000000 0.000000 -0.000000 0.799427
19 1.455486 -0.000000 -0.000000 0.000000 -0.000000 0.000000
20 3.790162 0.000253 0.318445 -0.014142 -0.064309 0.621844
21 1.438407 -0.000001 -0.000000 0.000000 -0.000000 0.402189
22 1.239884 0.000002 0.000001 -0.000000 0.000000 0.837899
23 1.028098 -0.000001 0.000000 0.000000 -0.000000 0.000000
24 -0.763013 0.002583 -3.049178 -2.507453 1.484236 0.631554
25 4.276892 0.000000 -0.000003 -0.190162 -1.325664 0.238111
26 13.216450 -0.000000 0.000001 -0.000000 0.000000 -0.458127
27 10.099728 -0.000000 0.000001 2.159924 -0.324763 -0.039535
28 0.855654 0.776818 1.992121 -1.163146 -0.543942 0.335849
29 1.028100 0.000002 -0.000000 0.000000 0.000000 0.257269
30 1.572820 -0.000001 0.000002 0.000000 -0.000000 0.000000
31 1.838196 0.000001 0.000000 0.000000 -0.000000 3.141593
32 3.790160 0.417838 1.620307 0.000790 -0.172768 0.213771
33 1.585166 -0.000000 -0.000001 -0.000000 -0.000000 0.598149
34 1.233719 -0.000000 -0.000002 -0.000000 0.000000 0.579134
35 1.455486 0.000001 0.000001 0.000000 -0.000000 3.141593
36 3.790160 0.000253 -0.318447 0.000730 0.065839 0.416323
37 1.438408 0.000000 -0.000000 0.000000 0.000000 0.197099
38 1.239886 -0.000000 -0.000000 0.000000 -0.000000 0.632809
39 1.028099 0.000001 0.000000 0.000000 -0.000000 3.141593
40 -4.515870 0.727719 5.558980 -0.010828 -3.048065 -0.070115
41 16.449583 -0.000000 0.000000 0.000000 -0.000000 -0.139904
42 15.566289 0.000000 0.000000 -0.284129 -0.034323 0.065178
43 4.082387 7.769351 -0.000000 0.000000 -0.035964 1.570796
44 0.493488 0.000000 -0.000000 0.000000 -0.000000 3.141593
45 -5.161715 -0.707567 -4.642138 0.200646 -3.062951 -0.019137
46 16.449585 -0.000000 0.000000 -0.000000 -0.000000 -0.161192
47 15.566288 0.000000 0.000000 0.136137 -0.024736 0.142326
48 4.082387 7.769351 0.000001 0.000000 -0.000000 1.570796
49 0.493488 0.000000 -0.000000 0.000000 -0.000000 0.000000
50 1.723507 0.620937 -6.894467 -1.444160 2.819111 -0.119873
51 10.575605 0.000060 0.000001 0.067077 0.035786 0.094841
52 10.205497 0.000000 0.000000 -0.024201 0.385069 -0.059580
53 9.258061 0.000003 0.000001 0.000000 -0.000000 0.000000
54 -1.170632 -6.100732 -3.876530 -0.451460 3.013519 0.103575
55 6.475051 0.000005 0.000001 0.090007 -0.073576 -0.094416
56 9.146826 0.000001 0.000001 -0.193234 0.089460 -0.109826
57 8.841339 0.000003 0.000000 0.000000 -0.000000 0.000000
58 1.602071 0.620974 6.742610 1.543358 -0.381012 3.040943
59 10.011530 -0.000000 -0.000000 -0.122079 -0.058220 -0.063531
60 8.821379 0.000000 0.000000 -0.025080 0.058795 -0.020453
61 12.678901 0.000003 0.000000 0.000000 -0.000000 0.000000
62 -1.167326 -6.143956 4.892939 -1.361013 -0.070978 -3.050295
63 6.573833 0.000004 -0.000001 0.038354 -0.084256 -0.036156
64 8.647152 0.000000 -0.000000 -0.011836 -0.199594 0.033305
65 10.390688 -0.000000 -0.000001 0.000000 -0.000000 0.000000
time 1
0 -1.347103 1.046053 35.968327 0.036673 -0.001471 -1.852347
1 -0.052917 -1.318873 -35.947178 0.011607 0.034819 1.852522
2 0.000000 -0.000000 0.000000 -0.000000 -1.601831 -1.570795
3 4.857953 -0.006160 -0.151681 0.138993 -0.042772 -0.033029
4 7.816374 -0.007661 -0.001025 0.133694 0.105579 -0.014950
5 9.710860 -0.001965 -0.000000 0.000000 -0.000000 0.000000
6 2.467437 0.000000 0.000000 0.007772 -0.071799 -0.017973
7 7.731314 0.000000 -0.000000 0.000000 -0.000000 0.000000
8 -0.763015 0.002566 3.049178 3.140796 -1.570796 0.000000
9 4.276893 -0.000000 0.000003 -0.410270 1.088821 -0.717694
10 13.216450 0.000001 -0.000001 -0.000000 0.000000 -1.332509
11 10.099730 -0.000003 0.000000 -1.683192 0.229334 0.015004
12 0.855656 0.776817 -1.992123 1.185256 0.117132 0.515210
13 1.028099 -0.000002 0.000000 0.000000 0.000000 0.715898
14 1.572822 0.000002 -0.000000 -0.000000 -0.000000 0.458629
15 1.838195 -0.000001 -0.000000 0.000000 -0.000000 0.000000
16 3.790160 0.417839 -1.620308 0.066158 0.159718 0.613096
17 1.585165 0.000000 0.000000 -0.000000 0.000000 0.992110
18 1.233718 0.000000 -0.000000 0.000000 -0.000000 0.973094
19 1.455486 -0.000001 0.000001 0.000000 -0.000000 0.000000
20 3.790160 0.000254 0.318447 -0.025554 -0.060689 0.804067
21 1.438407 0.000000 0.000001 -0.000000 -0.000000 0.584091
22 1.239886 -0.000001 0.000004 0.000000 0.000000 1.019802
23 1.028099 0.000000 -0.000001 0.000000 -0.000000 0.000000
24 -0.763012 0.002583 -3.049177 -2.701823 1.450189 0.436172
25 4.276893 0.000000 0.000002 -0.442831 -1.401115 0.300803
26 13.216449 0.000000 0.000001 0.000000 -0.000000 -0.915667
27 10.099729 -0.000002 -0.000002 2.390085 -0.091259 0.017288
28 0.855656 0.776818 1.992119 -1.152242 -0.583299 0.315443
29 1.028099 -0.000000 0.000002 -0.000000 -0.000000 0.214299
30 1.572823 0.000000 -0.000001 0.000000 0.000000 -0.042971
31 1.838196 0.000001 -0.000002 0.000000 -0.000000 3.141593
32 3.790159 0.417839 1.620308 0.008285 -0.172573 0.170152
33 1.585166 -0.000000 0.000000 -0.000000 0.000000 0.555178
34 1.233719 0.000002 0.000002 0.000000 -0.000000 0.536163
35 1.455486 0.000000 -0.000002 0.000000 -0.000000 3.141593
36 3.790159 0.000255 -0.318446 -0.002103 0.065810 0.373259
37 1.438408 0.000001 -0.000000 0.000000 -0.000000 0.154128
38 1.239887 -0.000000 -0.000000 -0.000000 -0.000000 0.589839
39 1.028098 -0.000001 -0.000001 0.000000 -0.000000 3.141593
40 -4.623916 0.611358 5.483531 -0.013675 -3.064287 -0.046496
41 16.449583 0.000000 0.000000 0.000000 0.000000 -0.139386
42 15.566287 -0.000000 -0.000000 -0.284116 -0.034433 0.063715
43 4.082387 7.769351 -0.000000 0.000014 -0.035938 1.570452
44 0.493487 -0.000000 0.000000 -0.000000 -0.000000 3.141593
45 -5.065248 -0.817392 -4.729395 0.198733 -3.079470 0.003249
46 16.449583 0.000000 0.000000 -0.000000 -0.000000 -0.163005
47 15.566291 -0.000000 0.000000 0.136095 -0.025254 0.141789
48 4.082387 7.769351 -0.000000 0.000000 -0.000000 1.570796
49 0.493487 0.000000 -0.000000 0.000000 -0.000000 0.000000
50 1.723509 0.620937 -6.894467 -1.452390 2.827430 -0.112599
51 10.575608 0.000059 0.000001 0.100427 0.014042 0.059721
52 10.205496 -0.000000 0.000000 -0.008200 0.366388 -0.075645
53 9.258062 0.000003 0.000002 0.000000 -0.000000 0.000000
54 -1.170629 -6.100733 -3.876530 -0.458307 3.014587 0.111565
55 6.475051 0.000005 0.000000 0.149517 -0.097088 -0.054981
56 9.146826 -0.000000 -0.000000 -0.142785 0.078218 -0.091807
57 8.841339 0.000002 0.000001 0.000000 -0.000000 0.000000
58 1.602077 0.620974 6.742609 1.554010 -0.377435 3.045888
59 10.011527 0.000001 0.000000 -0.163282 -0.097474 -0.025008
60 8.821377 -0.000001 0.000000 -0.047487 0.047228 0.010866
61 12.678899 0.000004 0.000000 0.000000 -0.000000 0.000000
62 -1.167324 -6.143957 4.892939 -1.361487 -0.068974 -3.044019
63 6.573836 0.000003 -0.000000 0.018182 -0.047451 -0.065459
64 8.647153 0.000000 0.000000 -0.020019 -0.183207 0.015840
65 10.390688 -0.000001 0.000000 0.000000 -0.000000 0.000000
time 2
0 -1.347103 0.996494 35.968327 0.036673 0.000000 -1.852293
1 0.000000 -1.318873 -35.947216 0.010192 0.035229 1.852473
2 0.000000 0.000000 0.000000 -0.000000 -1.601831 -1.570795
3 4.857834 -0.006156 -0.151679 0.138532 -0.030211 -0.050149
4 7.816385 -0.007647 -0.001124 0.146948 0.114497 -0.010484
5 9.710856 -0.001965 -0.000000 0.000000 -0.000000 0.000000
6 2.467438 0.000000 0.000000 -0.006568 -0.088634 0.002462
7 7.731308 0.000000 -0.000000 0.000000 -0.000000 0.000000
8 -0.763013 0.002567 3.049178 3.140796 -1.570796 0.000000
9 4.276893 -0.000000 0.000002 -0.611062 0.823656 -1.282392
10 13.216446 0.000001 0.000003 0.000000 0.000000 -2.114846
11 10.099728 0.000001 -0.000002 -1.435742 0.269176 -0.061138
12 0.855655 0.776818 -1.992121 1.224416 0.039148 0.541594
13 1.028099 0.000001 -0.000001 0.000000 -0.000000 0.798179
14 1.572822 0.000001 0.000000 -0.000000 0.000000 0.540910
15 1.838196 0.000000 0.000001 0.000000 -0.000000 0.000000
16 3.790160 0.417838 -1.620309 0.088944 0.148312 0.761361
17 1.585165 0.000000 -0.000000 0.000000 0.000000 1.139059
18 1.233719 0.000001 0.000001 0.000000 -0.000000 1.120043
19 1.455485 0.000002 0.000000 0.000000 -0.000000 0.000000
20 3.790160 0.000253 0.318445 -0.034563 -0.056054 0.958178
21 1.438407 -0.000001 -0.000001 0.000000 0.000000 0.738009
22 1.239888 0.000002 0.000001 -0.000000 0.000000 1.173719
23 1.028097 0.000001 -0.000000 0.000000 -0.000000 0.000000
24 -0.763012 0.002583 -3.049178 -2.795234 1.419333 0.341902
25 4.276893 0.000000 -0.000003 -0.470898 -1.468433 0.158052
26 13.216453 0.000000 0.000000 0.000000 -0.000000 -1.349502
27 10.099729 -0.000005 0.000002 2.621508 0.035637 0.089212
28 0.855656 0.776818 1.992119 -1.147747 -0.598272 0.307375
29 1.028097 0.000000 -0.000003 -0.000000 0.000000 0.197895
30 1.572825 0.000001 0.000006 -0.000000 0.000000 -0.059374
31 1.838197 0.000000 -0.000002 0.000000 -0.000000 3.141593
32 3.790160 0.417841 1.620308 0.011143 -0.172414 0.153502
33 1.585165 -0.000000 -0.000000 0.000000 -0.000000 0.538775
34 1.233718 0.000000 -0.000000 0.000000 -0.000000 0.519760
35 1.455486 -0.000001 -0.000001 0.000000 -0.000000 3.141593
36 3.790159 0.000256 -0.318446 -0.003184 0.065767 0.356821
37 1.438409 -0.000002 -0.000001 -0.000000 -0.000000 0.137725
38 1.239885 0.000002 0.000000 -0.000000 -0.000000 0.573435
39 1.028099 0.000001 0.000001 0.000000 -0.000000 3.141593
40 -4.689359 0.518433 5.437227 -0.015154 -3.074733 -0.027889
41 16.449583 -0.000000 -0.000000 0.000000 0.000000 -0.139902
42 15.566287 -0.000000 0.000000 -0.284129 -0.034323 0.065177
43 4.082387 7.769351 0.000000 0.000000 -0.035964 1.570796
44 0.493487 0.000000 -0.000000 0.000000 -0.000000 3.141593
45 -5.001126 -0.906263 -4.781041 0.197690 -3.089804 0.022935
46 16.449581 -0.000000 -0.000000 0.000000 0.000000 -0.161193
47 15.566288 0.000000 -0.000000 0.136137 -0.024736 0.142327
48 4.082387 7.769351 0.000000 0.000000 -0.000000 1.570796
49 0.493488 0.000000 -0.000000 0.000000 -0.000000 0.000000
50 1.723507 0.620937 -6.894467 -1.472014 2.847266 -0.095253
51 10.575605 0.000060 0.000001 0.133777 -0.007702 0.024602
52 10.205498 -0.000000 0.000000 0.029955 0.321842 -0.113955
53 9.258062 0.000003 0.000000 0.000000 -0.000000 0.000000
54 -1.170632 -6.100732 -3.876530 -0.474633 3.017132 0.130620
55 6.475050 0.000005 0.000000 0.209027 -0.120601 -0.015546
56 9.146827 0.000001 -0.000000 -0.022485 0.051410 -0.048837
57 8.841337 0.000002 0.000001 0.000000 0.000000 0.000000
58 1.602071 0.620974 6.742610 -1.562182 -2.772689 -0.083913
59 10.011529 -0.000001 0.000000 -0.204485 -0.136728 0.013515
60 8.821377 -0.000001 -0.000000 -0.100916 0.019643 0.085552
61 12.678900 0.000001 -0.000001 0.000000 -0.000000 0.000000
62 -1.167326 -6.143956 4.892939 -1.362618 -0.064196 -3.029051
63 6.573834 0.000003 -0.000001 -0.001990 -0.010646 -0.094763
64 8.647152 0.000000 0.000000 -0.039534 -0.144131 -0.025809
65 10.390688 -0.000001 -0.000001 0.000000 -0.000000 0.000000
time 3
0 -1.347103 0.699144 35.968327 0.036674 0.008826 -1.851969
1 0.317495 -1.318873 -35.945816 0.001701 0.037682 1.852163
2 0.000000 0.000000 0.000002 -0.000000 -1.601831 -1.570795
3 4.857798 -0.006153 -0.151690 0.140416 -0.041039 -0.057229
4 7.817227 -0.007633 -0.001063 0.138392 0.073537 0.092230
5 9.710860 -0.001965 -0.000000 0.000000 -0.000000 0.000000
6 2.467440 -0.000000 0.000000 0.005839 -0.049973 -0.048054
7 7.731315 -0.000000 0.000000 0.000000 -0.000000 0.000000
8 -0.763010 0.002566 3.049178 3.140796 -1.570796 0.000000
9 4.276893 -0.000000 0.000000 -0.497066 1.035921 -1.465566
10 13.216449 0.000000 -0.000000 -0.000000 -0.000000 -1.640263
11 10.099729 0.000001 -0.000000 -1.722883 0.317604 0.199333
12 0.855656 0.776818 -1.992121 1.224416 0.039148 0.541594
13 1.028099 -0.000001 0.000000 -0.000000 -0.000000 0.798179
14 1.572822 -0.000001 0.000000 0.000000 0.000000 0.540910
15 1.838195 -0.000000 0.000000 0.000000 -0.000000 0.000000
16 3.790160 0.417838 -1.620308 0.088944 0.148312 0.761361
17 1.585165 0.000001 0.000003 -0.000000 -0.000000 1.139059
18 1.233718 -0.000001 -0.000002 0.000000 0.000000 1.120043
19 1.455485 0.000001 0.000001 0.000000 -0.000000 0.000000
20 3.790160 0.000252 0.318444 -0.034563 -0.056054 0.958178
21 1.438410 0.000000 0.000002 -0.000000 -0.000000 0.738009
22 1.239883 -0.000000 0.000002 -0.000000 0.000000 1.173719
23 1.028099 0.000000 -0.000003 0.000000 -0.000000 0.000000
24 -0.763010 0.002583 -3.049178 -2.795234 1.419333 0.341902
25 4.276893 -0.000000 0.000001 0.259587 -1.305055 -0.642320
26 13.216448 -0.000000 0.000001 -0.000000 -0.000000 -1.652960
27 10.099730 0.000002 -0.000001 2.824379 -0.313166 -0.060213
28 0.855656 0.776818 1.992119 -1.178529 -0.479144 0.367255
29 1.028099 0.000000 0.000000 -0.000000 -0.000000 0.327613
30 1.572824 -0.000003 0.000003 0.000000 -0.000000 0.070344
31 1.838194 0.000001 -0.000001 0.000000 -0.000000 3.141593
32 3.790160 0.417839 1.620306 -0.011477 -0.172392 0.285175
33 1.585166 0.000001 0.000002 -0.000000 0.000000 0.668493
34 1.233717 -0.000001 -0.000004 0.000000 -0.000000 0.649477
35 1.455488 -0.000000 0.000000 0.000000 -0.000000 3.141593
36 3.790160 0.000255 -0.318445 0.005362 0.065625 0.486819
37 1.438409 0.000001 0.000001 -0.000000 -0.000000 0.267443
38 1.239883 -0.000002 -0.000000 0.000000 -0.000000 0.703153
39 1.028100 -0.000000 0.000001 0.000000 -0.000000 3.141593
40 -4.628162 0.501719 5.490941 -0.013368 -3.065605 -0.022890
41 16.449583 0.000000 0.000000 -0.000000 0.000000 -0.141551
42 15.566290 0.000000 0.000000 -0.284104 -0.033160 0.075220
43 4.082387 7.769351 -0.000000 0.000000 -0.035964 1.570796
44 0.493488 -0.000000 -0.000000 0.000000 -0.000000 3.141593
45 -5.051620 -0.941672 -4.720682 0.198417 -3.079373 0.034914
46 16.449583 -0.000000 0.000000 0.000000 -0.000000 -0.148524
47 15.566287 0.000000 -0.000000 0.136422 -0.021631 0.144620
48 4.082387 7.769351 -0.000000 -0.000000 0.000000 1.570796
49 0.493487 -0.000000 -0.000000 0.000000 -0.000000 0.000000
50 1.723510 0.620937 -6.894466 -1.495437 2.870942 -0.074550
51 10.575605 0.000060 0.000001 0.112933 0.005888 0.046551
52 10.205496 -0.000001 0.000000 0.075496 0.268675 -0.159680
53 9.258062 0.000003 0.000001 0.000000 -0.000000 0.000000
54 -1.170633 -6.100732 -3.876529 -0.494118 3.020170 0.153363
55 6.475051 0.000006 0.000000 0.171833 -0.105906 -0.040193
56 9.146825 -0.000000 -0.000000 0.121100 0.019413 0.002448
57 8.841338 0.000001 0.000000 0.000000 0.000000 0.000000
58 1.602072 0.620974 6.742609 -1.531865 -2.782872 -0.069838
59 10.011530 -0.000001 0.000000 -0.178733 -0.112194 -0.010562
60 8.821377 0.000000 0.000001 -0.164687 -0.013281 0.174693
61 12.678900 0.000001 0.000000 0.000000 -0.000000 0.000000
62 -1.167326 -6.143956 4.892938 -1.363968 -0.058493 -3.011187
63 6.573833 0.000004 -0.000000 0.010618 -0.033649 -0.076448
64 8.647151 0.000001 -0.000000 -0.062826 -0.097492 -0.075519
65 10.390687 -0.000001 -0.000001 0.000000 -0.000000 0.000000
time 4
0 -1.347103 0.302677 35.968327 0.036680 0.020595 -1.851537
1 0.740779 -1.318873 -35.939598 -0.009622 0.040950 1.851718
2 -0.000000 0.000000 0.000001 -0.000000 -1.601831 -1.570795
3 4.857801 -0.006151 -0.151703 0.142579 -0.055907 -0.059619
4 7.818081 -0.007532 -0.000934 0.121106 0.030050 0.197673
5 9.710862 -0.001965 0.000000 0.000000 -0.000000 0.000000
6 2.467438 -0.000000 0.000000 0.024373 -0.004759 -0.105257
7 7.731313 -0.000000 0.000000 0.000000 -0.000000 0.000000
8 -0.763012 0.002566 3.049178 3.140796 -1.570796 0.000000
9 4.276893 -0.000000 -0.000002 -0.432095 0.933079 -1.394195
10 13.216449 0.000000 -0.000002 0.000000 0.000000 -1.601960
11 10.099729 0.000000 0.000000 -1.772988 0.288797 0.031894
12 0.855656 0.776817 -1.992120 1.224416 0.039148 0.541594
13 1.028099 0.000001 0.000000 -0.000000 -0.000000 0.798179
14 1.572820 -0.000002 -0.000001 0.000000 0.000000 0.540910
15 1.838194 -0.000000 0.000000 0.000000 -0.000000 0.000000
16 3.790160 0.417838 -1.620306 0.088944 0.148312 0.761361
17 1.585165 0.000001 0.000000 -0.000000 -0.000000 1.139059
18 1.233719 -0.000000 -0.000001 -0.000000 -0.000000 1.120043
19 1.455486 -0.000000 -0.000000 0.000000 -0.000000 0.000000
20 3.790160 0.000252 0.318448 -0.034563 -0.056054 0.958178
21 1.438408 0.000000 -0.000003 -0.000000 -0.000000 0.738009
22 1.239885 0.000000 0.000000 -0.000000 -0.000000 1.173719
23 1.028099 0.000000 0.000000 0.000000 -0.000000 0.000000
24 -0.763013 0.002583 -3.049178 -2.795234 1.419333 0.341902
25 4.276893 0.000001 -0.000001 0.629917 -1.245430 -1.003505
26 13.216450 -0.000000 0.000001 -0.000000 -0.000000 -1.652960
27 10.099730 0.000001 0.000000 2.824379 -0.313166 -0.060213
28 0.855656 0.776818 1.992120 -1.178529 -0.479144 0.367255
29 1.028099 -0.000001 0.000001 -0.000000 -0.000000 0.327613
30 1.572823 -0.000001 0.000001 0.000000 0.000000 0.070344
31 1.838197 -0.000001 0.000002 0.000000 -0.000000 3.141593
32 3.790161 0.417838 1.620308 -0.011477 -0.172392 0.285175
33 1.585164 -0.000000 -0.000001 0.000000 -0.000000 0.668493
34 1.233720 0.000001 0.000002 0.000000 0.000000 0.649477
35 1.455486 0.000000 0.000001 -0.000000 -0.000000 3.141593
36 3.790160 0.000255 -0.318444 0.005362 0.065625 0.486819
37 1.438407 -0.000002 -0.000003 -0.000000 0.000000 0.267443
38 1.239887 0.000003 0.000004 -0.000000 0.000000 0.703153
39 1.028098 -0.000000 -0.000000 0.000000 -0.000000 3.141593
40 -4.545109 0.511806 5.558979 -0.011325 -3.053995 -0.021459
41 16.449583 0.000000 0.000000 -0.000000 -0.000000 -0.139965
42 15.566288 -0.000000 0.000000 -0.284017 -0.031612 0.086660
43 4.082387 7.769351 0.000000 -0.000000 -0.035964 1.570796
44 0.493487 -0.000000 -0.000000 0.000000 -0.000000 3.141593
45 -5.121858 -0.952611 -4.642138 0.198816 -3.065407 0.046740
46 16.449581 0.000000 -0.000000 -0.000000 -0.000000 -0.125495
47 15.566288 0.000000 0.000000 0.136879 -0.017505 0.144509
48 4.082387 7.769351 -0.000001 0.000000 -0.000000 1.570796
49 0.493487 0.000000 -0.000000 0.000000 -0.000000 0.000000
50 1.723508 0.620937 -6.894466 -1.515061 2.890778 -0.057204
51 10.575608 0.000060 0.000001 0.067077 0.035786 0.094841
52 10.205496 0.000001 0.000000 0.113651 0.224129 -0.197990
53 9.258062 0.000001 0.000001 0.000000 -0.000000 0.000000
54 -1.170631 -6.100732 -3.876529 -0.510444 3.022715 0.172418
55 6.475052 0.000006 0.000000 0.090007 -0.073576 -0.094416
56 9.146825 0.000002 0.000000 0.241400 -0.007395 0.045418
57 8.841337 0.000002 0.000000 0.000000 -0.000000 0.000000
58 1.602075 0.620974 6.742609 -1.506464 -2.791403 -0.058046
59 10.011531 -0.000002 0.000000 -0.122079 -0.058220 -0.063531
60 8.821381 -0.000002 -0.000000 -0.218117 -0.040867 0.249378
61 12.678901 -0.000000 0.000000 0.000000 -0.000000 0.000000
62 -1.167326 -6.143956 4.892938 -1.365099 -0.053715 -2.996219
63 6.573833 0.000003 -0.000000 0.038354 -0.084256 -0.036156
64 8.647154 0.000000 -0.000001 -0.082341 -0.058417 -0.117167
65 10.390688 0.000000 -0.000001 0.000000 -0.000000 0.000000
time 5
0 -1.347103 -0.044231 35.968327 0.036690 0.030893 -1.851159
1 1.111070 -1.318873 -35.930042 -0.019532 0.043805 1.851298
2 -0.000000 -0.000000 -0.000001 -0.000000 -1.601831 -1.570795
3 4.857798 -0.006151 -0.151706 0.143103 -0.059117 -0.060811
4 7.818287 -0.007493 -0.000900 0.116663 0.019925 0.223798
5 9.710856 -0.001965 0.000000 0.000000 -0.000000 0.000000
6 2.467438 0.000000 -0.000000 0.028662 0.005722 -0.116862
7 7.731308 0.000000 -0.000000 0.000000 -0.000000 0.000000
8 -0.763012 0.002566 3.049178 3.140796 -1.570796 0.000000
9 4.276893 -0.000000 0.000002 -0.403327 0.910903 -1.352415
10 13.216451 0.000000 -0.000002 0.000000 0.000000 -1.599542
11 10.099730 -0.000002 0.000001 -1.792275 0.292312 0.043749
12 0.855656 0.776817 -1.992123 1.224416 0.039148 0.541594
13 1.028099 0.000002 -0.000000 -0.000000 0.000000 0.798179
14 1.572823 0.000002 0.000000 0.000000 0.000000 0.540910
15 1.838196 -0.000000 0.000000 0.000000 -0.000000 0.000000
16 3.790160 0.417838 -1.620311 0.088944 0.148312 0.761361
17 1.585165 0.000000 0.000003 -0.000000 0.000000 1.139059
18 1.233718 -0.000000 -0.000003 0.000000 -0.000000 1.120043
19 1.455487 -0.000000 0.000002 0.000000 -0.000000 0.000000
20 3.790160 0.000253 0.318444 -0.034563 -0.056054 0.958178
21 1.438408 0.000000 0.000004 0.000000 -0.000000 0.738009
22 1.239885 0.000000 -0.000001 -0.000000 -0.000000 1.173719
23 1.028099 0.000000 -0.000002 0.000000 -0.000000 0.000000
24 -0.763012 0.002583 -3.049178 -2.795234 1.419333 0.341902
25 4.276893 0.000001 -0.000002 0.676495 -1.217764 -1.051650
26 13.216449 -0.000000 0.000001 -0.000000 -0.000000 -1.671926
27 10.099729 0.000000 0.000001 2.839506 -0.333813 -0.072472
28 0.855656 0.776817 1.992119 -1.180121 -0.471650 0.370734
29 1.028098 -0.000001 -0.000002 0.000000 0.000000 0.335720
30 1.572822 0.000001 0.000002 0.000000 -0.000000 0.078451
31 1.838197 -0.000001 -0.000001 0.000000 -0.000000 3.141593
32 3.790161 0.417838 1.620307 -0.012888 -0.172293 0.293403
33 1.585163 0.000001 -0.000002 -0.000000 -0.000000 0.676600
34 1.233718 -0.000001 -0.000001 0.000000 0.000000 0.657585
35 1.455487 -0.000000 -0.000001 0.000000 -0.000000 3.141593
36 3.790160 0.000252 -0.318447 0.005895 0.065579 0.494944
37 1.438408 -0.000002 -0.000002 -0.000000 -0.000000 0.275550
38 1.239886 0.000001 0.000003 0.000000 0.000000 0.711261
39 1.028100 0.000000 -0.000000 0.000000 -0.000000 3.141593
40 -4.526850 0.511067 5.573927 -0.011268 -3.053650 -0.017786
41 16.449585 -0.000000 0.000000 -0.000000 -0.000000 -0.134876
42 15.566289 -0.000000 0.000000 -0.283890 -0.030260 0.094765
43 4.082387 7.769351 0.000000 0.000000 -0.035964 1.570796
44 0.493487 -0.000000 0.000000 -0.000000 -0.000000 3.141593
45 -5.136668 -0.958418 -4.624538 0.197789 -3.062164 0.062093
46 16.449581 0.000000 0.000000 -0.000000 0.000000 -0.096014
47 15.566289 0.000000 -0.000000 0.137351 -0.013909 0.139603
48 4.082387 7.769351 0.000000 0.000000 -0.000000 1.570796
49 0.493487 -0.000000 -0.000000 0.000000 -0.000000 0.000000
50 1.723508 0.620937 -6.894466 -1.523290 2.899096 -0.049930
51 10.575608 0.000061 0.000001 0.021222 0.065684 0.143130
52 10.205499 0.000001 0.000000 0.129652 0.205448 -0.214056
53 9.258062 0.000003 0.000000 0.000000 -0.000000 0.000000
54 -1.170631 -6.100732 -3.876530 -0.517291 3.023782 0.180408
55 6.475051 0.000005 0.000000 0.008180 -0.041245 -0.148640
56 9.146826 0.000000 0.000000 0.291849 -0.018637 0.063437
57 8.841338 0.000003 0.000000 0.000000 0.000000 0.000000
58 1.602073 0.620974 6.742609 -1.495812 -2.794981 -0.053101
59 10.011531 -0.000000 0.000000 -0.065425 -0.004245 -0.116500
60 8.821378 -0.000001 0.000001 -0.240523 -0.052434 0.280698
61 12.678900 0.000002 0.000000 0.000000 -0.000000 0.000000
62 -1.167328 -6.143956 4.892938 -1.365574 -0.051711 -2.989942
63 6.573834 0.000004 -0.000000 0.066091 -0.134863 0.004136
64 8.647154 -0.000000 0.000000 -0.090525 -0.042030 -0.134633
65 10.390688 -0.000000 0.000000 0.000000 -0.000000 0.000000
time 6
0 -1.347103 -0.192907 35.968327 0.036696 0.035306 -1.850997
1 1.269733 -1.318873 -35.924786 -0.023779 0.045027 1.851110
2 -0.000000 -0.000000 -0.000001 -0.000000 -1.601831 -1.570795
3 4.857801 -0.006151 -0.151703 0.142579 -0.055907 -0.059619
4 7.818081 -0.007533 -0.000934 0.121106 0.030050 0.197673
5 9.710859 -0.001964 0.000000 0.000000 -0.000000 0.000000
6 2.467440 0.000000 0.000000 0.024373 -0.004759 -0.105257
7 7.731310 0.000000 0.000000 0.000000 -0.000000 0.000000
8 -0.763010 0.002567 3.049178 3.140796 -1.570796 0.000000
9 4.276893 -0.000000 -0.000002 -0.416000 0.904448 -1.328519
10 13.216448 0.000001 -0.000001 -0.000000 -0.000000 -1.658240
11 10.099730 -0.000000 -0.000001 -1.763005 0.295457 0.066555
12 0.855656 0.776819 -1.992120 1.224416 0.039148 0.541594
13 1.028099 -0.000001 -0.000000 -0.000000 -0.000000 0.798179
14 1.572819 -0.000002 0.000000 -0.000000 0.000000 0.540910
15 1.838197 0.000000 0.000000 0.000000 -0.000000 0.000000
16 3.790160 0.417839 -1.620309 0.088944 0.148312 0.761361
17 1.585165 0.000000 -0.000003 -0.000000 0.000000 1.139059
18 1.233721 0.000001 0.000005 0.000000 0.000000 1.120043
19 1.455486 0.000002 0.000000 0.000000 -0.000000 0.000000
20 3.790160 0.000253 0.318445 -0.034563 -0.056054 0.958178
21 1.438408 0.000001 0.000003 -0.000000 -0.000000 0.738009
22 1.239884 0.000000 -0.000003 0.000000 0.000000 1.173719
23 1.028099 0.000001 -0.000000 0.000000 -0.000000 0.000000
24 -0.763011 0.002584 -3.049178 -2.795234 1.419333 0.341902
25 4.276893 -0.000000 -0.000001 0.629917 -1.245430 -1.003505
26 13.216448 -0.000000 0.000001 -0.000000 -0.000000 -1.652960
27 10.099730 -0.000003 0.000000 2.824379 -0.313166 -0.060213
28 0.855656 0.776820 1.992123 -1.178529 -0.479144 0.367255
29 1.028097 -0.000000 -0.000001 -0.000000 -0.000000 0.327613
30 1.572823 -0.000002 -0.000001 -0.000000 0.000000 0.070344
31 1.838195 -0.000000 -0.000001 0.000000 -0.000000 3.141593
32 3.790161 0.417838 1.620310 -0.011477 -0.172392 0.285175
33 1.585164 0.000001 -0.000003 0.000000 0.000000 0.668493
34 1.233718 -0.000003 0.000002 0.000000 0.000000 0.649477
35 1.455487 0.000000 0.000002 0.000000 -0.000000 3.141593
36 3.790160 0.000253 -0.318444 0.005362 0.065625 0.486819
37 1.438409 -0.000001 0.000000 -0.000000 0.000000 0.267443
38 1.239886 -0.000001 -0.000000 -0.000000 0.000000 0.703153
39 1.028099 -0.000000 -0.000000 0.000000 -0.000000 3.141593
40 -4.545105 0.511806 5.558979 -0.012024 -3.058276 -0.016615
41 16.449583 0.000000 -0.000000 -0.000000 0.000000 -0.131540
42 15.566288 0.000000 -0.000000 -0.283822 -0.029682 0.097645
43 4.082387 7.769350 -0.000001 0.000000 -0.035964 1.570796
44 0.493488 0.000000 -0.000000 0.000000 -0.000000 3.141593
45 -5.121859 -0.952611 -4.642138 0.196824 -3.065109 0.070088
46 16.449581 0.000000 0.000000 0.000000 -0.000000 -0.078311
47 15.566286 0.000000 -0.000001 0.137573 -0.012373 0.134892
48 4.082387 7.769351 0.000000 -0.000000 0.000000 1.570796
49 0.493487 0.000000 -0.000000 0.000000 -0.000000 0.000000
50 1.723512 0.620937 -6.894467 -1.502775 2.878360 -0.068063
51 10.575606 0.000061 0.000001 0.000378 0.079274 0.165080
52 10.205498 0.000000 0.000000 0.089764 0.252017 -0.174006
53 9.258062 0.000003 0.000001 0.000000 -0.000000 0.000000
54 -1.170630 -6.100732 -3.876530 -0.500223 3.021122 0.160489
55 6.475054 0.000005 0.000000 -0.029014 -0.026550 -0.173286
56 9.146825 -0.000001 0.000000 0.166087 0.009388 0.018517
57 8.841339 0.000001 0.000000 0.000000 -0.000000 0.000000
58 1.602076 0.620973 6.742610 -1.522366 -2.786062 -0.065429
59 10.011527 0.000000 0.000000 -0.039673 0.020289 -0.140577
60 8.821379 -0.000001 0.000000 -0.184668 -0.023597 0.202622
61 12.678899 0.000003 -0.000000 0.000000 -0.000000 0.000000
62 -1.167324 -6.143956 4.892939 -1.364391 -0.056706 -3.005589
63 6.573835 0.000004 -0.000000 0.078699 -0.157866 0.022451
64 8.647152 -0.000000 0.000001 -0.070124 -0.082880 -0.091094
65 10.390686 -0.000001 -0.000001 0.000000 -0.000000 0.000000
time 7
0 -1.347103 -0.007063 35.968327 0.036689 0.029789 -1.851200
1 1.071401 -1.318873 -35.931252 -0.018470 0.043499 1.851344
2 0.000000 -0.000000 -0.000002 -0.000000 -1.601831 -1.570795
3 4.857820 -0.006154 -0.151689 0.140272 -0.041458 -0.054278
4 7.817133 -0.007641 -0.001059 0.137796 0.076900 0.080479
5 9.710859 -0.001965 0.000000 0.000000 -0.000000 0.000000
6 2.467436 0.000000 -0.000000 0.007159 -0.051936 -0.062942
7 7.731310 0.000000 -0.000000 0.000000 -0.000000 0.000000
8 -0.763014 0.002566 3.049178 3.140796 -1.570796 0.000000
9 4.276893 0.000000 -0.000001 -0.531465 0.854243 -1.305321
10 13.216445 0.000000 0.000002 -0.000000 0.000000 -1.920096
11 10.099728 -0.000001 -0.000003 -1.581644 0.274734 -0.013352
12 0.855655 0.776816 -1.992121 1.224416 0.039148 0.541594
13 1.028099 0.000004 0.000000 0.000000 0.000000 0.798179
14 1.572820 -0.000004 0.000003 -0.000000 -0.000000 0.540910
15 1.838197 0.000001 -0.000001 0.000000 -0.000000 0.000000
16 3.790161 0.417835 -1.620309 0.088944 0.148312 0.761361
17 1.585165 0.000001 -0.000000 -0.000000 -0.000000 1.139059
18 1.233719 0.000000 -0.000001 -0.000000 -0.000000 1.120043
19 1.455488 -0.000002 0.000002 0.000000 -0.000000 0.000000
20 3.790160 0.000252 0.318445 -0.034563 -0.056054 0.958178
21 1.438408 -0.000000 0.000001 -0.000000 0.000000 0.738009
22 1.239888 -0.000000 0.000000 -0.000000 0.000000 1.173719
23 1.028098 0.000002 -0.000001 0.000000 -0.000000 0.000000
24 -0.763014 0.002583 -3.049178 -2.795234 1.419333 0.341902
25 4.276892 0.000000 -0.000001 0.347009 -1.397702 -0.690168
26 13.216448 -0.000000 -0.000000 -0.000000 0.000000 -1.482265
27 10.099729 0.000004 0.000000 2.702667 -0.120565 0.033468
28 0.855656 0.776819 1.992124 -1.162515 -0.546349 0.334632
29 1.028099 -0.000000 -0.000002 0.000000 0.000000 0.254647
30 1.572823 -0.000000 0.000002 -0.000000 0.000000 -0.002622
31 1.838195 -0.000000 -0.000002 0.000000 -0.000000 3.141593
32 3.790160 0.417839 1.620311 0.001248 -0.172765 0.211109
33 1.585165 0.000000 -0.000000 0.000000 -0.000000 0.595527
34 1.233719 0.000000 0.000000 0.000000 0.000000 0.576511
35 1.455487 0.000000 0.000000 0.000000 -0.000000 3.141593
36 3.790160 0.000253 -0.318444 0.000557 0.065841 0.413695
37 1.438408 0.000001 0.000002 -0.000000 -0.000000 0.194477
38 1.239885 -0.000002 -0.000000 -0.000000 -0.000000 0.630187
39 1.028100 0.000001 0.000001 0.000000 -0.000000 3.141593
40 -4.626650 0.515377 5.490965 -0.014090 -3.071678 -0.021929
41 16.449581 0.000000 0.000000 -0.000000 0.000000 -0.135593
42 15.566285 -0.000000 0.000001 -0.283906 -0.030404 0.093986
43 4.082387 7.769351 0.000000 0.000000 -0.035964 1.570796
44 0.493487 0.000000 0.000000 0.000000 -0.000000 3.141593
45 -5.054433 -0.926517 -4.720690 0.196523 -3.080728 0.056355
46 16.449583 0.000000 -0.000000 -0.000000 -0.000000 -0.099806
47 15.566286 0.000001 -0.000000 0.137297 -0.014294 0.140456
48 4.082387 7.769350 -0.000000 0.000000 0.000000 1.570796
49 0.493488 -0.000000 -0.000000 0.000000 -0.000000 0.000000
50 1.723509 0.620937 -6.894466 -1.464676 2.839848 -0.101739
51 10.575604 0.000060 0.000001 0.025391 0.062966 0.138740
52 10.205498 0.000000 -0.000000 0.015687 0.338501 -0.099629
53 9.258062 0.000003 0.000001 0.000000 -0.000000 0.000000
54 -1.170629 -6.100732 -3.876530 -0.468527 3.016180 0.123495
55 6.475051 0.000005 0.000000 0.015619 -0.044184 -0.143710
56 9.146825 0.000000 0.000000 -0.067472 0.061434 -0.064906
57 8.841338 0.000002 0.000000 0.000000 0.000000 0.000000
58 1.602076 0.620974 6.742609 1.569912 -0.372094 3.053270
59 10.011529 -0.000000 0.000000 -0.070575 -0.009152 -0.111685
60 8.821379 -0.000001 0.000000 -0.080936 0.029958 0.057623
61 12.678899 0.000003 0.000000 0.000000 -0.000000 0.000000
62 -1.167327 -6.143956 4.892938 -1.362195 -0.065982 -3.034648
63 6.573836 0.000004 -0.000001 0.063569 -0.130262 0.000473
64 8.647152 0.000000 -0.000000 -0.032237 -0.158744 -0.010234
65 10.390687 0.000000 0.000000 0.000000 -0.000000 0.000000
time 8
0 -1.347103 0.401794 35.968327 0.036678 0.017653 -1.851645
1 0.634965 -1.318873 -35.941605 -0.006791 0.040134 1.851833
2 0.000000 0.000000 0.000002 -0.000000 -1.601831 -1.570795
3 4.857831 -0.006156 -0.151679 0.138532 -0.030211 -0.050149
4 7.816389 -0.007647 -0.001124 0.146948 0.114497 -0.010484
5 9.710861 -0.001965 0.000000 0.000000 -0.000000 0.000000
6 2.467438 -0.000000 0.000000 -0.004174 -0.088771 -0.023158
7 7.731316 0.000000 -0.000000 0.000000 -0.000000 0.000000
8 -0.763010 0.002567 3.049178 3.140796 -1.570796 0.000000
9 4.276893 -0.000000 -0.000001 -0.611062 0.823656 -1.282392
10 13.216448 -0.000001 0.000002 0.000000 -0.000000 -2.114846
11 10.099730 -0.000000 -0.000001 -1.435742 0.269176 -0.061138
12 0.855657 0.776818 -1.992122 1.224416 0.039148 0.541594
13 1.028099 0.000001 -0.000000 0.000000 0.000000 0.798179
14 1.572823 -0.000001 0.000002 -0.000000 0.000000 0.540910
15 1.838195 -0.000000 0.000002 0.000000 -0.000000 0.000000
16 3.790162 0.417838 -1.620309 0.088944 0.148312 0.761361
17 1.585166 -0.000001 -0.000000 0.000000 0.000000 1.139059
18 1.233718 -0.000000 0.000000 -0.000000 0.000000 1.120043
19 1.455487 -0.000001 0.000000 0.000000 -0.000000 0.000000
20 3.790161 0.000254 0.318445 -0.034563 -0.056054 0.958178
21 1.438407 -0.000002 -0.000000 -0.000000 -0.000000 0.738009
22 1.239887 0.000000 0.000000 0.000000 -0.000000 1.173719
23 1.028101 -0.000001 0.000001 0.000000 -0.000000 0.000000
24 -0.763009 0.002583 -3.049178 -2.795234 1.419333 0.341902
25 4.276893 0.000000 0.000003 -0.470898 -1.468433 0.158052
26 13.216448 0.000000 -0.000000 -0.000000 -0.000000 -1.349502
27 10.099730 0.000002 0.000001 2.621508 0.035637 0.089212
28 0.855656 0.776818 1.992119 -1.147747 -0.598272 0.307375
29 1.028099 -0.000000 0.000001 -0.000000 -0.000000 0.197895
30 1.572823 -0.000001 0.000001 0.000000 -0.000000 -0.059374
31 1.838195 -0.000000 -0.000000 0.000000 -0.000000 3.141593
32 3.790160 0.417839 1.620306 0.011143 -0.172414 0.153502
33 1.585165 -0.000001 0.000000 -0.000000 0.000000 0.538775
34 1.233718 0.000001 -0.000000 -0.000000 -0.000000 0.519760
35 1.455485 -0.000000 -0.000000 0.000000 -0.000000 3.141593
36 3.790161 0.000253 -0.318448 -0.003184 0.065767 0.356821
37 1.438408 -0.000000 0.000000 -0.000000 0.000000 0.137725
38 1.239885 -0.000001 -0.000000 -0.000000 -0.000000 0.573435
39 1.028099 0.000001 0.000001 0.000000 -0.000000 3.141593
40 -4.689351 0.518433 5.437227 -0.015530 -3.079813 -0.027457
41 16.449585 0.000000 0.000000 -0.000000 -0.000000 -0.140788
42 15.566287 0.000000 -0.000000 -0.284045 -0.032000 0.084016
43 4.082387 7.769351 0.000000 0.000000 -0.035964 1.570796
44 0.493487 0.000000 -0.000000 0.000000 -0.000000 3.141593
45 -5.001122 -0.906263 -4.781041 0.196568 -3.092089 0.037831
46 16.449583 -0.000000 -0.000000 0.000000 -0.000000 -0.132063
47 15.566289 0.000001 -0.000000 0.136757 -0.018535 0.144957
48 4.082387 7.769351 -0.000000 -0.000000 -0.000000 1.570796
49 0.493487 -0.000000 -0.000000 0.000000 -0.000000 0.000000
50 1.723510 0.620937 -6.894467 -1.444160 2.819111 -0.119873
51 10.575604 0.000060 0.000001 0.067077 0.035786 0.094841
52 10.205496 0.000001 -0.000000 -0.024201 0.385069 -0.059580
53 9.258062 0.000003 0.000000 0.000000 -0.000000 0.000000
54 -1.170632 -6.100732 -3.876530 -0.451460 3.013519 0.103575
55 6.475054 0.000006 0.000000 0.090007 -0.073575 -0.094416
56 9.146828 0.000000 -0.000000 -0.193234 0.089460 -0.109826
57 8.841339 0.000002 0.000000 -0.000000 0.000000 0.000000
58 1.602073 0.620974 6.742610 1.543358 -0.381012 3.040943
59 10.011532 0.000000 0.000000 -0.122079 -0.058220 -0.063531
60 8.821380 -0.000001 0.000000 -0.025080 0.058795 -0.020453
61 12.678901 0.000002 0.000000 0.000000 -0.000000 0.000000
62 -1.167326 -6.143956 4.892939 -1.361013 -0.070978 -3.050295
63 6.573835 0.000004 0.000000 0.038354 -0.084256 -0.036156
64 8.647153 -0.000000 -0.000001 -0.011836 -0.199594 0.033305
65 10.390689 -0.000000 -0.000001 0.000000 -0.000000 0.000000
time 9
0 -1.347103 0.810650 35.968327 0.036673 0.005517 -1.852091
1 0.198436 -1.318872 -35.946651 0.004885 0.036763 1.852282
2 -0.000000 -0.000000 0.000002 -0.000000 -1.601831 -1.570795
3 4.857817 -0.006154 -0.151689 0.140272 -0.041458 -0.054278
4 7.817133 -0.007641 -0.001059 0.137796 0.076900 0.080479
5 9.710858 -0.001965 -0.000000 0.000000 -0.000000 0.000000
6 2.467441 -0.000000 0.000000 0.006241 -0.052237 -0.032057
7 7.731308 -0.000000 0.000000 0.000000 -0.000000 0.000000
8 -0.763010 0.002566 3.049178 3.140796 -1.570796 0.000000
9 4.276893 0.000000 -0.000002 -0.499369 1.045223 -1.467593
10 13.216450 0.000001 -0.000000 -0.000000 -0.000000 -1.640263
11 10.099730 -0.000002 0.000000 -1.722883 0.317603 0.199333
12 0.855656 0.776818 -1.992123 1.224416 0.039148 0.541594
13 1.028099 0.000001 0.000001 0.000000 -0.000000 0.798179
14 1.572825 0.000001 0.000000 0.000000 0.000000 0.540910
15 1.838193 -0.000000 -0.000000 0.000000 -0.000000 0.000000
16 3.790160 0.417839 -1.620309 0.088944 0.148312 0.761361
17 1.585166 0.000001 0.000003 -0.000000 -0.000000 1.139059
18 1.233716 -0.000000 -0.000006 0.000000 0.000000 1.120043
19 1.455486 0.000000 0.000003 0.000000 -0.000000 0.000000
20 3.790160 0.000254 0.318445 -0.034563 -0.056054 0.958178
21 1.438409 0.000001 0.000000 -0.000000 -0.000000 0.738009
22 1.239884 -0.000000 0.000001 -0.000000 -0.000000 1.173719
23 1.028099 0.000000 -0.000000 0.000000 -0.000000 0.000000
24 -0.763009 0.002583 -3.049178 -2.795234 1.419333 0.341902
25 4.276893 -0.000000 0.000002 0.227477 -1.309081 -0.612592
26 13.216448 -0.000000 -0.000001 -0.000000 -0.000000 -1.652960
27 10.099730 0.000000 0.000002 2.824379 -0.313166 -0.060213
28 0.855657 0.776817 1.992119 -1.178529 -0.479144 0.367255
29 1.028099 -0.000000 0.000001 -0.000000 -0.000000 0.327613
30 1.572823 -0.000000 -0.000001 0.000000 -0.000000 0.070344
31 1.838196 -0.000001 -0.000001 0.000000 -0.000000 3.141593
32 3.790161 0.417840 1.620308 -0.011477 -0.172392 0.285175
33 1.585166 -0.000002 0.000001 -0.000000 -0.000000 0.668493
34 1.233718 0.000001 -0.000000 -0.000000 0.000000 0.649477
35 1.455487 -0.000000 -0.000000 0.000000 -0.000000 3.141593
36 3.790161 0.000252 -0.318447 0.005362 0.065625 0.486819
37 1.438409 0.000001 -0.000000 -0.000000 -0.000000 0.267443
38 1.239886 0.000001 -0.000000 0.000000 0.000000 0.703153
39 1.028099 -0.000000 0.000000 0.000000 -0.000000 3.141593
40 -4.626653 0.515377 5.490965 -0.013324 -3.064649 -0.025882
41 16.449581 0.000000 0.000000 -0.000000 -0.000000 -0.141235
42 15.566290 0.000000 0.000000 -0.284118 -0.033597 0.071606
43 4.082387 7.769351 0.000000 0.000000 -0.035964 1.570796
44 0.493487 0.000000 0.000000 -0.000000 -0.000000 3.141593
45 -5.054436 -0.926517 -4.720690 0.198630 -3.078915 0.029296
46 16.449583 -0.000000 -0.000000 -0.000000 -0.000000 -0.153661
47 15.566288 -0.000000 -0.000000 0.136310 -0.022795 0.143960
48 4.082387 7.769351 -0.000000 0.000000 0.000000 1.570796
49 0.493488 -0.000000 -0.000001 0.000000 -0.000000 0.000000
50 1.723506 0.620937 -6.894467 -1.452390 2.827430 -0.112599
51 10.575605 0.000060 0.000001 0.108764 0.008606 0.050941
52 10.205498 0.000001 0.000000 -0.008200 0.366388 -0.075645
53 9.258063 0.000002 0.000002 0.000000 -0.000000 0.000000
54 -1.170630 -6.100733 -3.876530 -0.458307 3.014587 0.111565
55 6.475053 0.000005 0.000000 0.164395 -0.102967 -0.045122
56 9.146827 0.000000 0.000000 -0.142785 0.078218 -0.091807
57 8.841338 0.000001 0.000001 0.000000 -0.000000 0.000000
58 1.602074 0.620974 6.742610 1.554010 -0.377435 3.045888
59 10.011531 0.000001 0.000000 -0.173583 -0.107287 -0.015377
60 8.821378 -0.000000 0.000000 -0.047487 0.047228 0.010866
61 12.678901 0.000003 -0.000000 0.000000 -0.000000 0.000000
62 -1.167326 -6.143957 4.892939 -1.361487 -0.068974 -3.044019
63 6.573836 0.000003 -0.000000 0.013139 -0.038250 -0.072785
64 8.647151 0.000000 0.000000 -0.020019 -0.183207 0.015840
65 10.390688 0.000000 -0.000000 0.000000 -0.000000 0.000000
time 10
0 -1.347103 0.996494 35.968327 0.036673 0.000000 -1.852293
1 0.000000 -1.318872 -35.947208 0.010192 0.035229 1.852473
2 0.000000 0.000000 0.000000 -0.000000 -1.601831 -1.570795
3 4.857800 -0.006151 -0.151703 0.142579 -0.055907 -0.059619
4 7.818080 -0.007532 -0.000934 0.121106 0.030050 0.197673
5 9.710862 -0.001965 -0.000000 0.000000 -0.000000 0.000000
6 2.467438 0.000001 -0.000000 0.025290 -0.006320 -0.050445
7 7.731311 -0.000000 -0.000000 0.000000 -0.000000 0.000000
8 -0.763013 0.002567 3.049178 3.140796 -1.570796 0.000000
9 4.276893 -0.000000 -0.000002 -0.445609 0.919070 -1.399976
10 13.216447 0.000001 -0.000001 -0.000000 -0.000000 -1.640263
11 10.099730 0.000002 -0.000001 -1.722883 0.317604 0.199333
12 0.855656 0.776817 -1.992121 1.224416 0.039148 0.541594
13 1.028099 -0.000002 -0.000001 -0.000000 -0.000000 0.798179
14 1.572821 -0.000000 0.000000 -0.000000 0.000000 0.540910
15 1.838196 0.000000 0.000001 0.000000 -0.000000 0.000000
16 3.790160 0.417838 -1.620308 0.088944 0.148312 0.761361
17 1.585166 0.000001 0.000003 -0.000000 -0.000000 1.139059
18 1.233719 0.000000 -0.000001 -0.000000 -0.000000 1.120043
19 1.455485 -0.000000 -0.000003 0.000000 -0.000000 0.000000
20 3.790160 0.000253 0.318447 -0.034563 -0.056054 0.958178
21 1.438408 -0.000001 -0.000002 -0.000000 0.000000 0.738009
22 1.239886 -0.000000 -0.000001 -0.000000 -0.000000 1.173719
23 1.028099 -0.000000 -0.000000 0.000000 -0.000000 0.000000
24 -0.763013 0.002584 -3.049178 -2.795234 1.419333 0.341902
25 4.276894 -0.000000 0.000002 0.629917 -1.245430 -1.003505
26 13.216449 0.000000 0.000000 0.000000 -0.000000 -1.652960
27 10.099730 -0.000003 -0.000000 2.835986 -0.324454 -0.097238
28 0.855656 0.776820 1.992120 -1.185501 -0.444972 0.382892
29 1.028101 -0.000000 0.000003 0.000000 0.000000 0.364540
30 1.572822 0.000001 -0.000003 -0.000000 -0.000000 0.107271
31 1.838195 -0.000001 0.000002 0.000000 -0.000000 3.141593
32 3.790160 0.417841 1.620308 -0.017896 -0.171850 0.322652
33 1.585167 0.000000 0.000003 -0.000000 -0.000000 0.705420
34 1.233717 -0.000001 -0.000003 0.000000 -0.000000 0.686404
35 1.455487 -0.000000 0.000001 0.000000 -0.000000 3.141593
36 3.790160 0.000254 -0.318447 0.007785 0.065382 0.523825
37 1.438407 -0.000000 -0.000002 0.000000 0.000000 0.304370
38 1.239885 0.000000 0.000003 0.000000 -0.000000 0.740080
39 1.028099 0.000000 -0.000001 0.000000 -0.000000 3.141593
40 -4.545109 0.511806 5.558979 -0.010827 -3.048065 -0.022472
41 16.449585 -0.000000 0.000000 0.000000 0.000000 -0.139911
42 15.566287 0.000000 0.000000 -0.284129 -0.034324 0.065180
43 4.082387 7.769351 0.000000 0.000000 -0.035964 1.570796
44 0.493488 -0.000000 0.000000 0.000000 -0.000000 3.141593
45 -5.121857 -0.952611 -4.642139 0.200645 -3.062951 0.028512
46 16.449585 -0.000000 -0.000000 -0.000000 -0.000000 -0.161191
47 15.566287 0.000000 -0.000000 0.136137 -0.024736 0.142325
48 4.082387 7.769351 -0.000000 0.000000 -0.000000 1.570796
49 0.493487 0.000000 -0.000000 0.000000 -0.000000 0.000000
50 1.723507 0.620937 -6.894467 -1.472014 2.847266 -0.095253
51 10.575605 0.000060 0.000001 0.133777 -0.007702 0.024602
52 10.205498 -0.000000 0.000000 0.029955 0.321842 -0.113955
53 9.258062 0.000003 0.000001 0.000000 -0.000000 0.000000
54 -1.170632 -6.100732 -3.876530 -0.474633 3.017132 0.130620
55 6.475050 0.000005 0.000000 0.209027 -0.120601 -0.015546
56 9.146827 0.000001 -0.000000 -0.022485 0.051410 -0.048837
57 8.841338 0.000002 0.000000 0.000000 0.000000 0.000000
58 1.602071 0.620974 6.742610 -1.562182 -2.772689 -0.083913
59 10.011529 -0.000001 0.000000 -0.204485 -0.136728 0.013515
60 8.821377 -0.000001 -0.000000 -0.100916 0.019643 0.085552
61 12.678900 0.000001 -0.000001 0.000000 -0.000000 0.000000
62 -1.167326 -6.143956 4.892939 -1.362618 -0.064196 -3.029051
63 6.573834 0.000003 -0.000001 -0.001990 -0.010646 -0.094763
64 8.647152 0.000000 0.000000 -0.039534 -0.144131 -0.025809
65 10.390688 -0.000001 -0.000000 0.000000 -0.000000 0.000000
time 11
0 -1.347103 0.500911 35.968327 0.036677 0.014711 -1.851753
1 0.529146 -1.318872 -35.943314 -0.003960 0.039317 1.851945
2 -0.000000 0.000000 0.000002 -0.000000 -1.601831 -1.570795
3 4.857798 -0.006151 -0.151704 0.142840 -0.057512 -0.060215
4 7.818184 -0.007514 -0.000917 0.118917 0.024973 0.210731
5 9.710856 -0.001964 0.000000 0.000000 -0.000000 0.000000
6 2.467439 -0.000000 0.000000 0.027770 -0.001333 -0.052036
7 7.731307 0.000000 0.000000 0.000000 -0.000000 0.000000
8 -0.763012 0.002566 3.049178 3.140796 -1.570796 0.000000
9 4.276893 0.000000 0.000003 -0.426811 0.897726 -1.358422
10 13.216447 -0.000000 0.000001 0.000000 0.000000 -1.679019
11 10.099729 0.000002 -0.000001 -1.722883 0.317603 0.199333
12 0.855656 0.776817 -1.992122 1.224416 0.039148 0.541594
13 1.028099 -0.000002 -0.000001 0.000000 -0.000000 0.798179
14 1.572825 0.000003 0.000001 -0.000000 0.000000 0.540910
15 1.838194 0.000000 0.000000 0.000000 -0.000000 0.000000
16 3.790161 0.417839 -1.620308 0.088944 0.148312 0.761361
17 1.585166 -0.000001 -0.000002 0.000000 -0.000000 1.139059
18 1.233720 0.000000 0.000004 0.000000 -0.000000 1.120043
19 1.455485 0.000001 -0.000002 0.000000 -0.000000 0.000000
20 3.790160 0.000254 0.318446 -0.034563 -0.056054 0.958178
21 1.438408 -0.000000 -0.000002 -0.000000 -0.000000 0.738009
22 1.239885 -0.000001 -0.000001 0.000000 -0.000000 1.173719
23 1.028099 0.000000 -0.000001 0.000000 -0.000000 0.000000
24 -0.763012 0.002583 -3.049178 -2.795234 1.419333 0.341902
25 4.276893 -0.000000 -0.000002 0.664184 -1.235945 -1.036606
26 13.216450 0.000000 -0.000000 0.000000 -0.000000 -1.652960
27 10.099730 -0.000002 -0.000001 2.836975 -0.325376 -0.100336
28 0.855657 0.776816 1.992119 -1.186050 -0.442120 0.384171
29 1.028099 0.000000 0.000002 -0.000000 0.000000 0.367617
30 1.572824 -0.000000 -0.000001 -0.000000 -0.000000 0.110348
31 1.838195 -0.000000 -0.000002 0.000000 -0.000000 3.141593
32 3.790160 0.417838 1.620306 -0.018430 -0.171794 0.325774
33 1.585167 0.000000 0.000002 -0.000000 0.000000 0.708497
34 1.233717 -0.000001 0.000002 -0.000000 -0.000000 0.689482
35 1.455488 0.000001 -0.000001 0.000000 -0.000000 3.141593
36 3.790160 0.000252 -0.318448 0.007986 0.065358 0.526909
37 1.438410 0.000000 0.000002 -0.000000 0.000000 0.307447
38 1.239883 -0.000001 -0.000004 0.000000 0.000000 0.743158
39 1.028100 -0.000000 0.000000 0.000000 -0.000000 3.141593
40 -4.535981 0.511434 5.566461 -0.010858 -3.050626 -0.022080
41 16.449581 -0.000000 0.000000 0.000000 0.000000 -0.141318
42 15.566289 0.000000 0.000000 -0.284068 -0.032386 0.081226
43 4.082387 7.769352 0.000000 0.000000 -0.035964 1.570796
44 0.493488 -0.000000 0.000000 -0.000000 -0.000000 3.141593
45 -5.129269 -0.955515 -4.633345 0.199570 -3.063251 0.040748
46 16.449585 0.000000 -0.000000 0.000000 -0.000000 -0.138071
47 15.566286 0.000000 -0.000000 0.136640 -0.019566 0.145109
48 4.082387 7.769351 -0.000001 -0.000000 0.000000 1.570796
49 0.493487 -0.000000 -0.000000 0.000000 -0.000000 0.000000
50 1.723510 0.620937 -6.894466 -1.495437 2.870942 -0.074550
51 10.575607 0.000060 0.000001 0.112933 0.005888 0.046551
52 10.205497 -0.000001 0.000000 0.075496 0.268675 -0.159680
53 9.258062 0.000002 0.000001 0.000000 -0.000000 0.000000
54 -1.170632 -6.100732 -3.876530 -0.494118 3.020170 0.153363
55 6.475051 0.000005 0.000000 0.171833 -0.105906 -0.040193
56 9.146827 0.000000 0.000000 0.121100 0.019413 0.002448
57 8.841339 0.000002 -0.000000 -0.000000 0.000000 0.000000
58 1.602073 0.620974 6.742610 -1.531865 -2.782872 -0.069838
59 10.011530 -0.000001 0.000000 -0.178733 -0.112194 -0.010562
60 8.821379 -0.000001 0.000001 -0.164687 -0.013282 0.174693
61 12.678899 0.000002 0.000000 0.000000 -0.000000 0.000000
62 -1.167327 -6.143956 4.892939 -1.363968 -0.058493 -3.011187
63 6.573832 0.000003 -0.000000 0.010618 -0.033649 -0.076448
64 8.647152 0.000001 0.000000 -0.062826 -0.097492 -0.075519
65 10.390687 -0.000001 -0.000000 0.000000 -0.000000 0.000000
time 12
0 -1.347103 -0.192907 35.968327 0.036696 0.035306 -1.850997
1 1.269733 -1.318872 -35.924778 -0.023779 0.045027 1.851110
2 -0.000000 -0.000000 -0.000001 -0.000000 -1.601831 -1.570795
3 4.857801 -0.006151 -0.151703 0.142579 -0.055907 -0.059619
4 7.818081 -0.007533 -0.000934 0.121106 0.030050 0.197673
5 9.710859 -0.001964 0.000000 0.000000 -0.000000 0.000000
6 2.467440 0.000000 0.000000 0.025290 -0.006320 -0.050445
7 7.731315 -0.000001 0.000000 0.000000 -0.000000 0.000000
8 -0.763010 0.002567 3.049178 3.140796 -1.570796 0.000000
9 4.276893 -0.000000 -0.000002 -0.416000 0.904448 -1.328519
10 13.216448 0.000001 -0.000001 -0.000000 0.000000 -1.717775
11 10.099730 -0.000000 -0.000001 -1.722883 0.317603 0.199333
12 0.855656 0.776818 -1.992119 1.224416 0.039148 0.541594
13 1.028099 -0.000002 0.000001 0.000000 -0.000000 0.798179
14 1.572822 -0.000001 -0.000000 0.000000 0.000000 0.540910
15 1.838196 0.000000 0.000000 0.000000 -0.000000 0.000000
16 3.790160 0.417839 -1.620307 0.088944 0.148312 0.761361
17 1.585165 -0.000000 0.000000 -0.000000 -0.000000 1.139059
18 1.233719 -0.000000 -0.000001 0.000000 0.000000 1.120043
19 1.455487 -0.000000 -0.000000 0.000000 -0.000000 0.000000
20 3.790160 0.000253 0.318444 -0.034563 -0.056054 0.958178
21 1.438409 0.000001 0.000001 -0.000000 -0.000000 0.738009
22 1.239885 -0.000000 0.000002 0.000000 -0.000000 1.173719
23 1.028098 0.000001 -0.000002 0.000000 -0.000000 0.000000
24 -0.763011 0.002584 -3.049178 -2.795234 1.419333 0.341902
25 4.276893 -0.000000 -0.000001 0.629917 -1.245430 -1.003505
26 13.216448 -0.000000 0.000001 -0.000000 -0.000000 -1.652960
27 10.099730 -0.000003 0.000000 2.835986 -0.324454 -0.097238
28 0.855656 0.776820 1.992122 -1.185501 -0.444972 0.382892
29 1.028100 -0.000000 -0.000002 0.000000 0.000000 0.364540
30 1.572822 0.000000 -0.000003 -0.000000 0.000000 0.107271
31 1.838196 -0.000000 0.000002 0.000000 -0.000000 3.141593
32 3.790160 0.417840 1.620308 -0.017896 -0.171850 0.322652
33 1.585166 0.000002 0.000000 -0.000000 0.000000 0.705420
34 1.233719 -0.000002 -0.000000 0.000000 -0.000000 0.686404
35 1.455488 0.000000 0.000000 0.000000 -0.000000 3.141593
36 3.790160 0.000254 -0.318446 0.007785 0.065382 0.523825
37 1.438409 0.000001 -0.000000 0.000000 0.000000 0.304370
38 1.239886 -0.000000 -0.000000 -0.000000 0.000000 0.740080
39 1.028100 0.000000 0.000000 0.000000 -0.000000 3.141593
40 -4.545105 0.511806 5.558979 -0.012024 -3.058276 -0.016617
41 16.449587 -0.000000 0.000000 0.000000 -0.000000 -0.131546
42 15.566288 0.000000 -0.000000 -0.283821 -0.029682 0.097648
43 4.082387 7.769351 -0.000000 0.000000 -0.035964 1.570796
44 0.493487 0.000000 -0.000000 0.000000 -0.000000 3.141593
45 -5.121859 -0.952611 -4.642138 0.196823 -3.065108 0.070091
46 16.449583 0.000000 -0.000000 0.000000 -0.000000 -0.078305
47 15.566289 0.000000 0.000000 0.137573 -0.012373 0.134889
48 4.082387 7.769351 -0.000000 -0.000000 0.000000 1.570796
49 0.493488 0.000000 -0.000000 0.000000 -0.000000 0.000000
50 1.723512 0.620937 -6.894467 -1.515061 2.890778 -0.057204
51 10.575606 0.000059 0.000001 0.067077 0.035786 0.094841
52 10.205497 -0.000000 0.000000 0.113652 0.224129 -0.197990
53 9.258062 0.000001 0.000001 0.000000 -0.000000 0.000000
54 -1.170630 -6.100732 -3.876530 -0.510444 3.022715 0.172418
55 6.475053 0.000006 0.000000 0.090007 -0.073575 -0.094416
56 9.146827 0.000002 0.000000 0.241400 -0.007395 0.045418
57 8.841337 0.000003 0.000000 -0.000000 0.000000 -0.000000
58 1.602076 0.620973 6.742610 -1.506464 -2.791403 -0.058046
59 10.011532 0.000000 0.000000 -0.122079 -0.058220 -0.063531
60 8.821379 -0.000002 0.000001 -0.218117 -0.040867 0.249378
61 12.678902 0.000003 -0.000000 0.000000 -0.000000 0.000000
62 -1.167324 -6.143956 4.892939 -1.365100 -0.053715 -2.996219
63 6.573835 0.000004 -0.000000 0.038354 -0.084256 -0.036156
64 8.647152 0.000000 -0.000000 -0.082341 -0.058417 -0.117168
65 10.390688 -0.000000 -0.000000 0.000000 -0.000000 0.000000
time 13
0 -1.347103 -0.192907 35.968327 0.036696 0.035306 -1.850997
1 1.269733 -1.318873 -35.924782 -0.023779 0.045027 1.851110
2 -0.000000 -0.000000 -0.000001 -0.000000 -1.601831 -1.570795
3 4.857801 -0.006151 -0.151703 0.142579 -0.055907 -0.059619
4 7.818081 -0.007533 -0.000934 0.121106 0.030050 0.197673
5 9.710859 -0.001964 0.000000 0.000000 -0.000000 0.000000
6 2.467440 0.000000 0.000000 0.025290 -0.006320 -0.050445
7 7.731315 -0.000001 0.000000 0.000000 -0.000000 0.000000
8 -0.763010 0.002567 3.049178 3.140796 -1.570796 0.000000
9 4.276893 -0.000000 -0.000002 -0.416000 0.904448 -1.328519
10 13.216448 0.000001 -0.000001 -0.000000 0.000000 -1.717775
11 10.099730 -0.000000 -0.000001 -1.722883 0.317603 0.199333
12 0.855656 0.776818 -1.992119 1.224416 0.039148 0.541594
13 1.028099 -0.000002 0.000001 0.000000 -0.000000 0.798179
14 1.572822 -0.000001 -0.000000 0.000000 0.000000 0.540910
15 1.838196 0.000000 0.000000 0.000000 -0.000000 0.000000
16 3.790160 0.417839 -1.620307 0.088944 0.148312 0.761361
17 1.585165 -0.000000 0.000000 -0.000000 -0.000000 1.139059
18 1.233719 -0.000000 -0.000001 0.000000 0.000000 1.120043
19 1.455487 -0.000000 -0.000000 0.000000 -0.000000 0.000000
20 3.790160 0.000253 0.318444 -0.034563 -0.056054 0.958178
21 1.438409 0.000001 0.000001 -0.000000 -0.000000 0.738009
22 1.239885 -0.000000 0.000002 0.000000 -0.000000 1.173719
23 1.028098 0.000001 -0.000002 0.000000 -0.000000 0.000000
24 -0.763011 0.002584 -3.049178 -2.795234 1.419333 0.341902
25 4.276893 -0.000000 -0.000001 0.629917 -1.245430 -1.003505
26 13.216448 -0.000000 0.000001 -0.000000 -0.000000 -1.652960
27 10.099730 -0.000003 0.000000 2.835986 -0.324454 -0.097238
28 0.855656 0.776820 1.992122 -1.185501 -0.444972 0.382892
29 1.028100 -0.000000 -0.000002 0.000000 0.000000 0.364540
30 1.572822 0.000000 -0.000003 -0.000000 0.000000 0.107271
31 1.838196 -0.000000 0.000002 0.000000 -0.000000 3.141593
32 3.790160 0.417840 1.620308 -0.017896 -0.171850 0.322652
33 1.585166 0.000002 0.000000 -0.000000 0.000000 0.705420
34 1.233719 -0.000002 -0.000000 0.000000 -0.000000 0.686404
35 1.455488 0.000000 0.000000 0.000000 -0.000000 3.141593
36 3.790160 0.000254 -0.318446 0.007785 0.065382 0.523825
37 1.438409 0.000001 -0.000000 0.000000 0.000000 0.304370
38 1.239886 -0.000000 -0.000000 -0.000000 0.000000 0.740080
39 1.028100 0.000000 0.000000 0.000000 -0.000000 3.141593
40 -4.545105 0.511806 5.558979 -0.012025 -3.058276 -0.016614
41 16.449581 0.000000 -0.000000 -0.000000 -0.000000 -0.131542
42 15.566287 -0.000000 -0.000000 -0.283821 -0.029681 0.097648
43 4.082387 7.769350 0.000000 0.000000 -0.035964 1.570796
44 0.493488 0.000000 -0.000000 -0.000000 -0.000000 3.141593
45 -5.121859 -0.952611 -4.642138 0.196823 -3.065108 0.070091
46 16.449581 0.000000 0.000000 0.000000 -0.000000 -0.078305
47 15.566289 0.000000 0.000000 0.137573 -0.012373 0.134889
48 4.082387 7.769351 0.000000 -0.000000 0.000000 1.570796
49 0.493487 0.000000 -0.000000 0.000000 -0.000000 0.000000
50 1.723512 0.620937 -6.894467 -1.523290 2.899096 -0.049930
51 10.575606 0.000059 0.000001 0.021222 0.065684 0.143130
52 10.205497 -0.000000 0.000000 0.129652 0.205448 -0.214056
53 9.258062 0.000003 0.000002 0.000000 -0.000000 0.000000
54 -1.170630 -6.100732 -3.876530 -0.517291 3.023782 0.180408
55 6.475053 0.000006 0.000000 0.008180 -0.041245 -0.148639
56 9.146826 -0.000000 0.000001 0.291849 -0.018637 0.063437
57 8.841338 0.000002 0.000000 0.000000 0.000000 0.000000
58 1.602076 0.620973 6.742610 -1.495812 -2.794981 -0.053101
59 10.011529 -0.000000 0.000000 -0.065425 -0.004245 -0.116500
60 8.821377 -0.000001 -0.000000 -0.240523 -0.052434 0.280698
61 12.678900 0.000002 0.000001 0.000000 -0.000000 0.000000
62 -1.167324 -6.143956 4.892939 -1.365574 -0.051711 -2.989942
63 6.573832 0.000004 -0.000000 0.066091 -0.134863 0.004136
64 8.647153 -0.000000 -0.000000 -0.090525 -0.042030 -0.134633
65 10.390687 -0.000001 -0.000001 0.000000 -0.000000 0.000000
time 14
0 -1.347103 0.159509 35.968327 0.036684 0.024845 -1.851381
1 0.893609 -1.318873 -35.936104 -0.013711 0.042129 1.851548
2 0.000000 0.000000 0.000001 -0.000000 -1.601831 -1.570795
3 4.857892 -0.006156 -0.151698 0.141783 -0.057908 -0.045621
4 7.817645 -0.007606 -0.000925 0.119999 0.045601 0.141973
5 9.710861 -0.001964 -0.000000 0.000000 -0.000000 0.000000
6 2.467438 0.000000 0.000000 0.025628 -0.015580 -0.052958
7 7.731314 -0.000000 -0.000000 0.000000 -0.000000 0.000000
8 -0.763013 0.002567 3.049178 3.140796 -1.570796 0.000000
9 4.276893 -0.000000 -0.000001 -0.386545 1.062721 -0.997901
10 13.216449 0.000000 0.000002 -0.000000 -0.000000 -1.304106
11 10.099730 0.000001 -0.000000 -1.814993 0.292315 0.184665
12 0.855655 0.776818 -1.992120 1.199366 0.089680 0.524908
13 1.028100 0.000001 0.000001 -0.000000 0.000000 0.744987
14 1.572817 -0.000001 -0.000003 -0.000000 -0.000000 0.487718
15 1.838196 -0.000000 0.000001 0.000000 -0.000000 0.000000
16 3.790160 0.417838 -1.620308 0.074412 0.156068 0.665573
17 1.585165 -0.000000 -0.000002 0.000000 -0.000000 1.044062
18 1.233719 0.000000 -0.000000 -0.000000 0.000000 1.025046
19 1.455486 0.000000 -0.000001 0.000000 -0.000000 0.000000
20 3.790161 0.000253 0.318448 -0.028820 -0.059209 0.858560
21 1.438408 -0.000000 0.000002 0.000000 0.000000 0.638507
22 1.239885 0.000000 -0.000002 -0.000000 0.000000 1.074217
23 1.028100 0.000001 0.000000 0.000000 -0.000000 0.000000
24 -0.763014 0.002583 -3.049177 -2.739865 1.439420 0.397826
25 4.276893 0.000000 0.000001 0.465138 -1.304288 -0.716408
26 13.216448 -0.000000 0.000000 0.000000 0.000000 -1.298936
27 10.099730 -0.000002 -0.000001 2.635757 -0.328427 -0.080359
28 0.855657 0.776818 1.992119 -1.179543 -0.474390 0.369465
29 1.028099 0.000001 -0.000001 0.000000 0.000000 0.332756
30 1.572824 -0.000003 0.000002 -0.000000 -0.000000 0.075487
31 1.838195 0.000001 0.000000 0.000000 -0.000000 3.141593
32 3.790161 0.417840 1.620308 -0.012372 -0.172331 0.290395
33 1.585165 0.000003 0.000003 0.000000 0.000000 0.673636
34 1.233719 -0.000000 -0.000002 0.000000 0.000000 0.654620
35 1.455484 -0.000000 0.000001 0.000000 -0.000000 3.141593
36 3.790161 0.000253 -0.318448 0.005700 0.065597 0.491973
37 1.438408 -0.000000 0.000002 -0.000000 0.000000 0.272586
38 1.239885 0.000000 0.000002 -0.000000 -0.000000 0.708296
39 1.028098 -0.000000 -0.000002 0.000000 -0.000000 3.141593
40 -4.537520 0.575922 5.558980 -0.011498 -3.055227 -0.034560
41 16.449581 0.000000 -0.000000 -0.000000 0.000000 -0.138313
42 15.566286 -0.000000 0.000000 -0.283970 -0.031054 0.090235
43 4.082387 7.769351 -0.000000 0.000000 -0.035964 1.570796
44 0.493488 -0.000000 -0.000000 0.000000 -0.000000 3.141593
45 -5.134884 -0.880208 -4.642138 0.198335 -3.065592 0.037995
46 16.449585 0.000000 0.000000 0.000000 0.000000 -0.114743
47 15.566287 -0.000000 -0.000000 0.137066 -0.016019 0.143214
48 4.082387 7.769351 -0.000000 0.000000 -0.000000 1.570796
49 0.493487 0.000000 -0.000000 0.000000 -0.000000 0.000000
50 1.723508 0.620937 -6.894466 -1.502775 2.878360 -0.068063
51 10.575604 0.000060 0.000001 0.000378 0.079274 0.165080
52 10.205496 0.000000 -0.000000 0.089764 0.252017 -0.174006
53 9.258061 0.000002 0.000000 0.000000 -0.000000 0.000000
54 -1.170631 -6.100732 -3.876530 -0.500223 3.021122 0.160489
55 6.475051 0.000006 0.000000 -0.029014 -0.026550 -0.173286
56 9.146826 0.000001 0.000000 0.166087 0.009388 0.018517
57 8.841338 0.000001 0.000001 0.000000 -0.000000 -0.000000
58 1.602076 0.620974 6.742609 -1.522366 -2.786062 -0.065429
59 10.011526 0.000001 0.000000 -0.039673 0.020289 -0.140577
60 8.821378 -0.000000 0.000000 -0.184668 -0.023597 0.202622
61 12.678899 0.000001 0.000000 0.000000 -0.000000 0.000000
62 -1.167326 -6.143956 4.892939 -1.364391 -0.056706 -3.005589
63 6.573835 0.000004 0.000000 0.078699 -0.157866 0.022451
64 8.647153 0.000000 -0.000001 -0.070124 -0.082880 -0.091094
65 10.390687 -0.000000 0.000000 0.000000 -0.000000 0.000000
time 15
0 -1.347103 0.578001 35.968327 0.036676 0.012422 -1.851837
1 0.446839 -1.318872 -35.944420 -0.001758 0.038681 1.852031
2 -0.000000 -0.000000 0.000001 -0.000000 -1.601831 -1.570795
3 4.857993 -0.006160 -0.151692 0.140801 -0.060269 -0.028994
4 7.817123 -0.007662 -0.000905 0.117558 0.063953 0.075745
5 9.710860 -0.001965 0.000000 0.000000 -0.000000 0.000000
6 2.467436 0.000000 0.000000 0.026891 -0.026489 -0.055949
7 7.731307 0.000000 0.000000 0.000000 -0.000000 0.000000
8 -0.763016 0.002567 3.049178 3.140796 -1.570796 0.000000
9 4.276893 -0.000000 0.000000 -0.107856 1.211425 -0.379776
10 13.216449 -0.000000 -0.000000 0.000000 -0.000000 -0.812874
11 10.099730 0.000002 -0.000000 -1.922986 0.260780 0.170600
12 0.855656 0.776818 -1.992123 1.168319 0.149110 0.503307
13 1.028097 -0.000002 -0.000002 -0.000000 -0.000000 0.681822
14 1.572824 -0.000001 0.000001 0.000000 -0.000000 0.424552
15 1.838197 -0.000001 0.000002 0.000000 -0.000000 0.000000
16 3.790160 0.417839 -1.620311 0.056254 0.163441 0.551551
17 1.585163 0.000001 -0.000003 0.000000 -0.000000 0.931252
18 1.233719 -0.000004 0.000004 -0.000000 -0.000000 0.912236
19 1.455487 0.000000 -0.000000 0.000000 -0.000000 0.000000
20 3.790160 0.000254 0.318443 -0.021633 -0.062193 0.740221
21 1.438408 0.000001 -0.000002 -0.000000 -0.000000 0.520348
22 1.239885 -0.000001 0.000001 0.000000 0.000000 0.956058
23 1.028098 -0.000000 0.000002 0.000000 -0.000000 0.000000
24 -0.763016 0.002583 -3.049178 -2.647705 1.462534 0.490645
25 4.276893 0.000000 -0.000002 0.148236 -1.339375 -0.251695
26 13.216449 0.000000 0.000000 -0.000000 -0.000000 -0.878531
27 10.099732 0.000002 0.000001 2.397747 -0.328905 -0.059709
28 0.855655 0.776820 1.992121 -1.171759 -0.509226 0.352983
29 1.028098 -0.000000 -0.000001 0.000000 -0.000000 0.295013
30 1.572823 0.000000 0.000001 -0.000000 0.000000 0.037743
31 1.838196 0.000000 0.000000 0.000000 -0.000000 3.141593
32 3.790160 0.417839 1.620307 -0.005796 -0.172674 0.252084
33 1.585166 -0.000001 -0.000002 0.000000 0.000000 0.635893
34 1.233719 0.000000 0.000002 -0.000000 -0.000000 0.616877
35 1.455486 -0.000000 -0.000001 0.000000 -0.000000 3.141593
36 3.790160 0.000255 -0.318446 0.003217 0.065765 0.454149
37 1.438408 -0.000000 -0.000002 -0.000000 0.000000 0.234843
38 1.239886 -0.000003 -0.000003 0.000000 -0.000000 0.670553
39 1.028099 0.000002 0.000002 0.000000 -0.000000 3.141593
40 -4.527328 0.651911 5.558979 -0.011059 -3.051634 -0.053510
41 16.449585 0.000000 -0.000000 0.000000 0.000000 -0.141519
42 15.566287 -0.000000 -0.000000 -0.284084 -0.032687 0.078950
43 4.082387 7.769351 0.000001 0.000000 -0.035964 1.570796
44 0.493487 -0.000000 -0.000000 -0.000000 -0.000000 3.141593
45 -5.149025 -0.794000 -4.642138 0.199622 -3.064687 0.007352
46 16.449581 0.000000 0.000000 -0.000000 0.000000 -0.142336
47 15.566287 0.000000 -0.000001 0.136553 -0.020369 0.145024
48 4.082387 7.769351 -0.000000 -0.000000 0.000000 1.570796
49 0.493487 -0.000000 -0.000000 0.000000 -0.000000 0.000000
50 1.723509 0.620937 -6.894466 -1.464676 2.839848 -0.101739
51 10.575604 0.000061 0.000001 0.033728 0.057530 0.129960
52 10.205497 0.000000 -0.000000 0.015687 0.338501 -0.099629
53 9.258062 0.000002 0.000001 0.000000 -0.000000 0.000000
54 -1.170629 -6.100732 -3.876530 -0.468527 3.016180 0.123495
55 6.475051 0.000006 0.000000 0.030496 -0.050063 -0.133851
56 9.146826 -0.000001 0.000000 -0.067472 0.061435 -0.064906
57 8.841338 0.000000 0.000000 0.000000 0.000000 0.000000
58 1.602073 0.620974 6.742609 1.569912 -0.372094 3.053270
59 10.011529 0.000001 0.000001 -0.080876 -0.018965 -0.102054
60 8.821377 -0.000001 0.000001 -0.080936 0.029958 0.057623
61 12.678899 0.000004 0.000001 0.000000 -0.000000 0.000000
62 -1.167328 -6.143956 4.892938 -1.362195 -0.065982 -3.034648
63 6.573835 0.000004 -0.000000 0.058526 -0.121061 -0.006853
64 8.647152 0.000000 0.000001 -0.032237 -0.158744 -0.010234
65 10.390687 -0.000000 -0.000000 0.000000 -0.000000 0.000000
end
